<mxfile host="Electron" agent="Mozilla/5.0 (Windows NT 10.0; Win64; x64) AppleWebKit/537.36 (KHTML, like Gecko) draw.io/24.7.5 Chrome/126.0.6478.183 Electron/31.3.0 Safari/537.36" version="24.7.5">
  <diagram name="Seite-1" id="54FVFI7G-huoACOhDOh3">
    <mxGraphModel dx="1434" dy="844" grid="1" gridSize="10" guides="1" tooltips="1" connect="1" arrows="1" fold="1" page="1" pageScale="1" pageWidth="827" pageHeight="1169" math="0" shadow="0">
      <root>
        <mxCell id="0" />
        <mxCell id="1" parent="0" />
        <mxCell id="rmpsdoVU6oN7jqYleleH-1" value="&lt;font style=&quot;font-size: 16px;&quot;&gt;MUCGPT Frontend&lt;/font&gt;" style="swimlane;whiteSpace=wrap;html=1;strokeColor=#0080ff;startSize=60;" parent="1" vertex="1">
          <mxGeometry x="50" y="110" width="528.25" height="390" as="geometry">
            <mxRectangle x="50" y="110" width="140" height="30" as="alternateBounds" />
          </mxGeometry>
        </mxCell>
        <mxCell id="rmpsdoVU6oN7jqYleleH-20" value="" style="shape=image;imageAspect=0;aspect=fixed;verticalLabelPosition=bottom;verticalAlign=top;image=data:image/png,iVBORw0KGgoAAAANSUhEUgAAAD4AAAA5CAYAAABuxJj8AAAAAXNSR0IArs4c6QAAAARnQU1BAACxjwv8YQUAAAAJcEhZcwAADsMAAA7DAcdvqGQAAA97SURBVGhD5ZsHlFXFGccNBBSNxha7xmDvvXexxRZNTDTmJMZEE41RkygG6U1UOgoKgsCyLNKkd1B6LyId6b0tsCywtF2//H9z7+wuj/fe3vvQnJOT/zlz9r17583MN1//ZvYI+z/Fd0b4vgOFtnrbTluyOc9yd+4Jnx4mvv3WtuwscGOu2b7T9hcWhS8OH4dN+Jz1W+21/lPsipb97Kx3e9npjXrazxr3tts+Gmw1hs2w8cs3WpEIiAqIG710vb01eLrd3GaQnft+bzfmWe/1sqta9bc3B02z+Ru3h70zR8aEQ0yLcfPsxPqf2RFvd1bLsiOq8VfN/dV3fT6mdle7r/1wGzB/ddoNgOBec5bbne2G2lG1uqYd8ycNu9vHkxZKIKJvaCIyJrzJmDlWTgspV6OL/aB6luNylfbD7NFOI+0mceqsd3sGC9U7WgX1+2X2l05CEjF99WZ7uONIK68+/jeMeba4fLMk57HOI+3eT4bZT8V9njPnD9VaT1wQjhAfGRE+btkGx8nyNbLtaP2tPWKW08ESfGtLtuRZx2nf2N3iYMWa2hxHVGc79Z0e1mbSAsf9A+IyG3iSkxqI7WJH1sq2BzoMt+yZS2xZ7o5wvAArt+XbW0Omq09XR/zx9brZ1FWbw7fxEJvwwqJv7RFxh4XCocZaeDrsP1BkPWcvc/oJJx23tBF/7DnenskZ474zDpy8QZLSf94qN0c61NVGe+l4quuXGYl8bMIRS3YaIm5vO8QK9h8I36THZln6fw2cZsfW7WYVQ46xeLh3vDheY+hMyyvYF/ZOj/y9++361oPcGk5u0D2p+pSF2IQ3GTu32NB8MmVx+DQ66o38ysqL40dJRY5Uq6DPLcbPC99GR4vx890aaB9moOuxCX/2szFushPqd7O5G7aFT6NhovTx4ub9xPFsx202gM9XfzjQZq+PN9b01VvsR3VytJbO9kKvCeHT6IhFOC7nihb9HOFXym9v2703fFM2Zq/bapWb9HEGrJzaPbLSt3w8xOk2IntZi/62WIFKVGzcsdsuatrHreXG1gPtQBl2IRGxCN8uQgkoEHV8c1SsyM23q1oGxo2FPtRxhMbaZxvzC5zfds/VbpFx2yCCogCPcEdb/VZrubhZX6f3cRCL8E35u+0c+VYme7jTqPBpemyXwYK7EAxxd+vzll0lIe3avN12vQh279Ue7TzKdu2LZjCryO2xlguafG65pcaMgliEww2CCke4FlgWcEvPy23RH32+XaKdu+tQ9ViTt8uuk57TB519rd8UwvQyUaXDCDf2+RAeMz+IRTiDEz0xGeKaCrvFMdxX49FznBGriAWXEXuu+1hrIKteVXH46wOm2D/UiMkbjpptv80Z7Qwdrq5CzWz7aOJCJSh7UrpLfLeTJK3lQul6Xgx7A2IRDkHnNf7cceUO+XBwoKhIKlBgwxetsfdF6J/E4bukt5UVwkIsfhrXRYOgQM/D+Ns3Paugvr4fxBOvn6+5IO7PvSe4QGnkN+u0oQVOkgql4zfiy/X7y+Up9uwvdOuJiliEgzs+HqzJsuxcEVZz2EzF0aPsdIWhlbRgTxTBiSfER2X4aziK7+Y5/X3jGe/oQ18iO79RjMWYPK9UO8fObNTDnujyhVUfOqM4H3jw0+iG1iMW4Uu37BDhQ4KISwvz3PIEkzgcXScghoWzaCx1oy9mW/spi6zb7OXWVyHpyMVrbaxST9oIfe4zb6XeLVNAtMjeUd9rPxjg5vAbRD7g9b9kviy3Bua4X8nR8q354SqjIRLhXysk/FvfydrtnoEYakLPkePq5tgtyqBe6jPROk9fYu9/+bUjnoWeKY7E8c0es9bm2ikNe4jz2Qpxc6yl0t8O0xbbi70nuhydwIW5/TpQJ7hPXSBqUJWW8HWy4m8o8T+pQZA9+d32O/24xJyiALoPCqRnbALv4BgczBRNFRoT6DAWbqtQtgTslL+GuAdk0Z3kiegSKQhy9X8rg9sg15sOKQnvJ/G7pJkiI1nNIKXMsgtkPV+UoTlFOs0kv1J+XRpYZ7+Ix7O+cEFGpmAzq8iwodtsQKuEeP7hTnJlWtNpksIXtKbz5NL47taqNV+uCHPg/NVh70NxCOHkyY0krkfJ2LhBNDEi20C6hwQo1barpYNMwmTrFYCAhZu222naEDhExvT1ulz3/HAwYflGlwkyJsZ0RajHyxUJunhCa6DEBdZs3+USIMpUrJnQGNvQeMzcpJWfgwjnffXhs9wP0VFE6ZluY+ybBD3958CpblKM2XAZJ4DL4Rm/rSFrnw7bCvbaUi1+mQhJl4qy3Felt4xJw++DPnNXWnkRhtTV0npLAwaQozt1w0vob21tSCLtBxHeUQYEl8IPMFD4Tvx0IvrJMkM0hL41eJrNEnePU57NZCQOJBDJQKiKC0QM4QZVHAoUSBOhbTKs2LpTQVOvYknCprwsQ8rcxAnDwo0vDYofjUZ/7TwCtFSUIcyasSR8G6CYcMo8Z7/X002Awfho0sLwzaEgYHE6JS6QfDzWaaTbWbiQqg62attOhazEAEH4ioGkIVU8o9yUKkF5V6rnDd0TWaPsUgUszH2ZNhDpSYUPJsx3RPM7cozSLq+YcAICjAKLeH3A1PBpajxHDK7JcSc+v76m1QDbkYRz+2TknlZIyvjeBSU23mGkipKkl5sUrV3SvG/APc3l+ovjr/SbHPZIjVfkhqGJ8ZE2D0c48fClGhhCiMUxFGVh0ILVrnJazDn9tt3k5O6L4iTGkn6JBPsGQajLzDXJjWJTGalymgNpdOOo/xcKYcsCBtFllPotKuZjf0c4NauT5f/Ylae7jXYvykLenn3FERacuFIivz2F2OGT4VAygks3+nSYmrychRqQjBDUILq3Sm18/FAWnuoaSBs+fl4Y4DjCJ6yQ26jfzYnEm7LYUYFPZydpr6YRu6p4AfVJRmzpRp93ZIFTgcqsr9i8EUEdPV7HM4i2E+p/ZpNWbnLPHOFEQsUcly5GAVYYixxwPNsZmq0pUsNmcTguz5IMa5WzY1A9x29uM9h2Ray6EGgFHO9xMMf3SO6Rf3YSfVi1reyAfwAuTf2djkvv0L82KSz6xBWbrBI6rn7JCKaRzRGsfJUi8HlP7qm0jh+pDSDZKQvLlFi5LE6/5XwPWoEjHGDxnPVTwxKWhd93H1csvvhTOJ9KzylSPtttrNv1RILd79V499Lnk5IeDhB3o9/ODWoufoN0vBRhnX/9XD5f62R8Tnw8ignH+mHRESN8X8sJqWvVG3YUWGUKEhrwGhm4J5Ufo3tY9pYpauR4inspLFYLTmAc55AUfWazOXPDbSVDA+UAcJu+v5HYukqvvuPitiYpZXk0HTvPZXHEGBRGiCU8igkHXRTdHKldRY+ogDRUREUUlIiSkDFLmdAMl7b6mJpExsX0SUA5up6IwBuQzv5Yv7nxw0ES4zmWvye5vi4L43LGPkV2iDQ38M1B5DZ04ZqwZwn2KkusI+4Gkggt2ZYza2n4NsBBhIM6sqrlagSxOpNxwpl4Hk2Aw8SEt6OWBL70JS9SatW0GemwQ65wlSSARpqZCgg9QYofl7NxUBIyd1bgdXBeMHf9NvuFMkNPA9LVUJFfIg4hHB3DChNLe9fBCSc7yI0Hl51xACjCqW4i9oBE5vRGQXZG/j5r7Rb3/HBA4INkMCbH0KvDE1ni93MUv7OGW8PsDFWtPmyGK2D4jaJgQTp7qNVIQrjHEImQ0yUZBZeeanfRa4wagQCTkgWVBjG136xHOo06rKsbBCd3fxIcNkB4Yg7wiGwCazhVm/1cj3HBQYfW6NcKc3zmmAwpCQcYm2qK4d0uajC/k1hhRIjJ0W9EF+wrLHQnIywUUUuX6JQFKrZBESLLft5xZHFaidf4am2uu4TgjaRfF2ukJoCHojSdDmkJ91ggHScHx8i4ODlsGEFU4vrWA+35XhNcqanRqK+Ka25nNOppCzbFr7lxIEgK6mpu9XKsuVSPTfyDOIthPLo2FdmSmhuGGI9UVTZgkfLxKIhEuMdK6fhd7YY4jnpfWnq34UClUlVWvnNCUnv4LGsj94jX6DFnhfWfv8pZY1o/feYZ+XJrpZG1hs9UoBFEhIzhxpOu8r201DE371nLg0ppoyRWpRGLcECphwVUbtLb6ssDYPWJjOAyYultgnOJIfEsEitMfFAcvfE3/Mwz3vniBnV1JIsxnM5qTAg8WhtAZPnrnDHuVgT1A/rf12FYuLroiEU4BodAAMLvbDvUPSN/prLCFa3m4+YpUppk94sDFzfr4wgrJlSN1NMbPyctNH3mmc+zg35BLf2SZn3twU9H2Mt9J8k6z7exsvK5u/c4z1NUVGQ3hScpl33fJylRz872Hih0p5dcB4N7/uzseeloE8XcdST6FD5odSXaTWTInhUX0VuIpi8HECQ9XBxMBnd2JgPHWi5s2tcdYcdBLMLjnpZS3fwLgY24ghhzGMDZVyIIJXE/GET6vhExNfbHxN/7aWkm5+O4uirttcBQtG+VimzILyEeg3mNDKAXf+rxHExEwX/tfJxScCY3Ioj4rqMWH+r3PfrtZi2Uc/GbMJbhc87lKGRGQXAjYohby/d+I4LJyGnhTHAHJvouUwC4iJMZBTZY6tu0aG5CeGPHIUXihb50CEpRwekJRu57vQMDfhfeeiIbi3vracaaLS5np+iAm0On+XyDFr4gYuDhwX07f+uJElhcxCbcFQ4lXhDfLoNDwXryv95PO1+tDWgxbm74Njp8OYvGFdG4iE34THGNO26IJ5lR1EonBu3vSjGPEZfw7Y7jargvyspVB01Pej8mGXYod7/2w8BmUEebH1PyQGzCCVg4HmanWTiH/ulAHbvLzCV2aVg1IQIjj8fNEXszBs94RzWnx+zlKX23B2dzJEGsgfuwycpVZSE24YDi4bEufs62SuJYtSHTDzqe4SwbLrSdvMidlyPOPl0kcWk/dbHLtrjL0krxuU9z6cNNZ+7QfDptsRKOvIOI4j8VODik0MhmnSjJm6GEJhNkRDjglgI1Ns8t/DuXeu9VNHW9/DLpIYTyjkYszskrmV4iuPX4pPy3i9XD/mzEGcoBMHzEAbfJ1flqKXNWVEt1chMFGRNOWQOj4rgVGjv317fwO5LxkPL2YYvWOi6nAlJC1gaRnKK6TUsxJpWeVCcuUZE54SGox705eLpd22qAO84lpCWE5IJ+XWVvcS/SE+ZyslNT8TyJEFUfxjxXYyNJbyu+z+ReTSIOm3APOLZJQcUaRWnJTkwzRV7BXkV++bZZ4XKyk9RM8Z0R/r8Fs/8A4qwlkX27Ah4AAAAASUVORK5CYII=;" parent="rmpsdoVU6oN7jqYleleH-1" vertex="1">
          <mxGeometry x="50" y="300" width="62" height="57" as="geometry" />
        </mxCell>
        <mxCell id="rmpsdoVU6oN7jqYleleH-21" value="" style="shape=image;imageAspect=0;aspect=fixed;verticalLabelPosition=bottom;verticalAlign=top;image=data:image/png,iVBORw0KGgoAAAANSUhEUgAAAKUAAAA3CAYAAABthYqSAAAAAXNSR0IArs4c6QAAAARnQU1BAACxjwv8YQUAAAAJcEhZcwAADsMAAA7DAcdvqGQAABMASURBVHhe7Z0JUBTH/sdzViWVpCqpnCYxxiiH0USjuUw0UUDkULw5vABFUYlHPOINigbEpyZPXy6fx1OCUUBQzAviQcQLniiIgooHinuf7MnusrDf190znBFB/5Lwfzvfql/tTE/vMDX7mV/3r3/dw0MQJKidSYBSULuT00OpUqmQnZ2NEydOsH2dTse2jx8/Do1Gw44dPny4zg4dOoSCggIolUq2nZOTA7PZzL4rEomQmZmJixcvQq/Xs2P0PFVVVey4oNbJ6aGk4HTt2hXvv/8+2z979izb7tmzJ06dOoXOnTvjxRdfxCuvvIKXX34Zzz//PEJCQnDw4EG2Ty0lJQUGgwGDBw/G008/jaioKBQVFeGdd97Bu+++y+AW1Ho5PZTU2z3zzDPo0KEDysvLsXfvXrz66qt46aWXcPLkSXz88cfo2LEjHnroITz++ONwc3PD9OnTkZ6ezsqo9erVC3FxcXX748ePR35+PgOWwky9qqDWy+mhPHLkCJ577jkG01NPPYUnnniCbb/++usQi8WsTmJiIitzdXXFtWvXWNmBAwdY2SOPPIKHH34Yjz32GPushZJ6XAolhV3wlPcmAUoC5bPPPsuAok019ZKPPvoog1Imk7E6qampHJTES8rlclZWC6Wfnx969OiBJ598EoGBgaxs3LhxDErqJanHLSkpgUKhYGa329n3BTUvp4eSBi+0+aYAUS+4Z88eBibtR0qlUlaHllHYuhJPWVuWkZHByiIjI7Ft2zZMmjSJnasWStp81wL+4Ycfom/fvggICGBdBEF3l9NDSaNjFxcXBg4V9XB0mwYo1LNRUa/4wgsvoF+/fnWekvZFqYedO3cuC3JotJ2bm8vq1QY6ffr0YZ6SltG63bt3r2v+BTUvp4eSwlRYWMiGcaiMRiMuXLjAoKodytFqtczzFRcXo8pmY2V06IiW3bp1CzU1NayMfpdCXVZWxoaJ6Hno/rlz59gnPafFYmF1BTUvp4dSUPuTU0LpqLKiWqNEtVb115lOA0dNNX9FghrKKaG0FedBFvYp5FO9/xKTTfKAamkoanRq/ooENZRTQmktOQOR5/MQ+3cl1uW+TeR378a+N/gNKKb7wGEy8lckqKGc01PevALxyB4QD3GBeKjrfZl0mCtkI93uyaTExAGuEPm+BeX8MaQbIeTE7ySnhNIuE0EW6QOxb+c7AtcaUwa5Qz+5G3STWm8VYe6QDidQ+r0FTfQE/moENZVzQkkCDfni8RD5dLojcK0xZbA7DFO7QT+l9VYR3gDKlRP5qxHUVE4JZY1BC3XsFNa3awQbbc6p92yFKcd0gWFyV+gntWQuHJQEYM1Ed0hIsy+mUMZN4a9GUFM5J5RmA9RrZ0Hk3bExkCO6QxL6WatMNWMAjF95wLCgBZvbn0DJeVXVOHf+b3WFdtMy/moENZVTQumoskH740qIBr1eD6XPm5BM8YAi5yAUucehOH3srmYoPI3qqwWwl55r3q4WwnYsmXhJNwalIpgEOhT+ANIfTd3GX42gpnJKKOEA9D//HSKvVxtA2QnSad5Q3bgKldEMlU5/VzNZuXRjS6Jw6iNcWfOtCCJQ+rtAMrwbLHlH+RqCmso5oSTSp2+ByPPleihJP1EaRprlMyc48FSqelNr/mAmcyV/prvLfi4L+vAurF8pD3SDiEI5shusVwr5GoKaymmhNB1Mwm2PFwiQxHtRKP27QBLYG4rMZKgMxnogZTKoxLf/YEaNCrCa4bCYmjdy3HZ4G4GyM/OUHJRdIQnqDbtCwl+JoKZyWigrT/ybGxKqHUCnn8NcIN+9kWu+eSgVvx+AdPkkSFdGNjLtuihYfpqDyh/vbqaYANJ8uxEjUI7hoJSG9kO1TstfiaCmcl4o87IhGtadRcJ1UA7pAvnO9cRT8lCSZlq5PxFiz1dYn7OhKUd1hiH8LejDWjB+SEhHoJSN5qCURQxEjZBibFb/76G02WwwGO/9B7YW5UIS/AEbM6yDkjTh8u3r6ptvrRaK7AzS32wynknsXgfPaUaHphoZlFMHoKaydX1SZ1SbQ6mr0CLraDbUWh1f8mB1NHM/Fi2LpgH1PclyvQSSqV4EuDfroSSAyrcmEChNHJQVOihOZkHkTQIiNnmj3pSBXWGgUfXkFoxCSeDVhnWDdAQHpTzKA47q1q/VcTgcbHZ7hU6Han5C8f+y2hzKkuILGDo6CEXFl/iSB6uUxC0IHDvhnqG0y8uhnD+ycVbHuyNkm6Kh0hs4KDVaKK9egmzjckg3rWxk2i2rYfklAZW77mI7V0M/4x0OylB3SIaTv0GgVC0ey19Fy7JUmpEQGwNPD0/4+ngjcuZC6MhDU22348b16zBbrHzN/x21OZQXL57H4GEjUHixhC/hVF1lQ0F+Hvbt24fMg1mQSLmVg1T6CjVbZUgXZxWeLyLewQGlQo7jOcdY/RMnT8Fg4pq/vUnbEDwh7J6hrNFroI4Jb5TVEXl2gHTNTAIjHfZRc2CqyCeBk5U1MFNly8saHHo1DLN7s2ZePZ7P5pAugpaA31odP/Qb+vbtD5lCDZNBh+MnclFpseDalRL4+g9BTl4B8aT13tNmtbJ1ROYGQ1bU09qrq1FF7rlOp0c12aYykW6PQqmEtcmYq81aCblMxpZ30GUdtfXpp1qtgpa0IPScbaU2h7KYQOkzfCTON4Fy147NGDVqJBYuWoTQCWMRHBgMubKC3EE75n0RibHjwzB/3lzMW7AYZSIFkncnYc6cL7F0yWL4+vliw3f/ZOdJu08oHeTH0yTMbpzVGfQapNHhUIlFHHwMyjubyWTiz9S8aog3NnzRBEq/zqjYu5Wv0bKy9u/G+x/1hUxF7g0vu92G9Wvj4eLqhulfzELWkd9RVV2D0pIixK6MxaqVK7F40WJk5+Sx+kq5FD/9+A9s3vwDZs+dj7Jbt5F9JAvx8WuxcsUKxK5ahRukjEp0sxRr16zBpk0byTkWYnVcPCTkgTCbDNi+5UdEx6zA8mVLkJy6r83A/EugFJdfx7Bhftj/22G2r1EpMGKIDzZv343igtP4tP8ASOTcrGwN8VhqjY71p+x27on95/ffkiY7lG2n79p+f1AS02xcTKBskNUhTblsXiBUN65BZST9SvI3m7PWZHSqb16APrIHa77r8t4kcjedzuJrtCylVITRw/3h7TsEib+k8B7agb3Ju9Hngw+xYeN3KLlcSvruagSO8MPyVWvYQrgNcbHw9PRDuViG0ssX4OryJmbPX4iU1L1QEO+fnpaGjN8O4kJRIYJGBmDdhk2oIl2C5QtnYf6SFZBIJAifEIxJkdOhJp4xhdxnv+Gj8Z8z+cj69358PuAzFJaUchf5gPWXQHnmVA5GjRxW18+srrJgxZK5WLnmW2Ts2YmgkMkkouZeGlWrG+TG0uWss2fNhOeA/giZyM2ySf/l/qCkqvh+SeOsDgl0pKH9odizGYpjmVAcPdCs6QlY1ReOw16Uw9sx1Eiu82fmVFVwiAQ67izYUYa4QzSEQvkGbJfO8DVaJ4moHN9+sw79+/dD0OQoaA1miG6Xw29IAM4VX2V1LvznGHr37gN9JRdA2S1GDPIcgIys33GpuAgDPLxQWNz4+kS3RcjLy0Vk+AQsXrqMNNcGjA8JRGLqr+z4mtUxiF//LQmy9JgYMgbTZi3A6dOnkHPsGDw++wQ/bE9i9R60/jQoGwY6RfmnMSJgKPILith+pdmIObOnkyZ5Cw6m/4IA8kTqDQ2GeaotGD7UD1t27mLv5dm0IQGjx4axQ/8nKH9aDpFXAyipBbhBPLI7xKN61NvodyAe07ORqcLeg3EmaZpp8xz1Hgwz+8B2aCd/Zk6Wk/sJkG6NofTvjKrS83yNe9MVAlevXr3xKwFNVF6Gwb7+yC+6zI6dPPIrPvm0H+p7lzUYHuCL5IyDKCG/wZChIyCScgP2dMFawrJ5pIs0Efv370f4+GAsiY6BxWrBN/Er4OHlg6WLF2HQIH+cyj1L+p56DPHxwpfzF2E/6dPTF3ol7kxE6bUb7HwPWn8ClEUYONgHOxKTcDY/HwWFRbhVdh3jAkcjelUCbt4qx8ED++Dh8TlOFZBI9+YV9lKpfb9m4mrpFaSmpuNMbh68Pb3w865k9t3Z08IQSPqcVGlJW+8r+qbS70ho3HzzUEom9Yc0ygfSGd7EBkMy/iNuPLPRkJArDDRTM5nYJFfWRNvyGzfLtqNJHJQR3GQMCqVkRHdU3eK8W2skunWT9GG5roxaIUG/T/siIzObdIHK4OXlhRNnuBz69Yvn0Ovdnrh8/RbbL79xGQMHfo78wovMU/r6BeCWSMWOGbRKfPReN5w6x611X/bVl1i4dCkJYLSYMDYI32/ejrS9aaSpPkeadBIgEVjnRIZi7rJYVp90JmE0GNixtlCbQymViPDVgvkICg5mL36KnBZFbtQllBYXYNrUCAQFBSE0NAzJaRn8N4CM1N0IIoFPUHAIVn29BnqTBQdSdyEkKBCTp0RiyaIF2LFjOwPxzImj+GbjP7gv3qOMGYkEwm6Nszoj3CA/lAJlhZ55ZRqFy3/eCLF3g4CIWKPB8wiyPb0H7GXcj1yryt0JLMVIszlcitEFkuBeqJaL+Bota9v36zA1YirWb1iPsLAwjAkeB6mSRP+GCkwLJ/c0LAKn8s7CWlmJr+ZEYVxoOLZv24bpkRGIXr0GVlsVLhMoh5HWp1zKvWiLQjYlLAQzZs/D5p9+gM+Afli+IpZF7DOnjMNHffshdGIosTAkfLMJlaT/fCb3OLx9fBCXsA5bt27HmjVrUS5rm7fJtTmUVDRKo8MJnNXQB40rJ80Ie+Kq/jiQbCU3zsS/jLRWVkslzLVDMfUnue8o0HzqIIHkfeIFu9RBKRnqAkXmHqj0NKujJkGNEfLUzSQy79AClN3hUHERbK3MG6czT1pBszmjOChl43ujpoLzWK2RpdKEfanJWL58Obb9KxEa8rDU6vq1y/h69SpkZR9HDbkFNosZyUk7sSImBqlp++rulVajRmZWFoyV9WOaCpkYG9avY+c8nXMMJcXFbNgtwHcw8s5dYPf3emkJ3nZzQ0Ex10UoKSrA2oR4xMbG4beso+y3bAv9KVC2V1mLz0AW3o9b4sBgI55ycCco0v9VP4BO4JTv2woxnVFEsz/UmzaEkmZtJnaCYUYPOHTcu4dqZYr1Z8cZlHyKUR7xORxmA1+jfUmrVmLApx/i6/i1OHL4MDYkfI2RI0dDpmj9Q/Qg5NRQ2kXXoJjuDZEPn2qk5vkKpInfQKWt4AbQNRooy65Ctn8nZHGzIBnXhy2TVY7pDMO07jDGDCPNdDyLvlFdv2SWzm43Rg+qg5IurxUR+BVLw+EgrUB7FG1xSi6cR1JSEnbv3o2U5BRcK+P6qH+mnBpK+voUxRwSlTaE0qsDZN/FQKVQ1Gd16Cc1uQyKm1ehzM2G/lgaasovwVFpJIHuH5sxh1EH4xICZYQrtGHuDGSa0tRsXAaHvX2v96Zw0vdottXgeEtybih1FVDMHdVoqa2IBDSKv80nkS4Jcmi/kqYYG8FJU5AtpxlrKhQwLBzIQRlaC2VHVPy06p4mYzijnBrKGosFygVjGk/KoMsiooZCsXcbVIW5UNKUI4WTzhyigN4tzUg8i8Oggf3qGVgPfAfDzA9IIOTOltYy4Ae9BmPqD6yeoObl1FBSNJRLgpgHq4OSmh8JfIZ0gXTyQEhjIiDbEgfFb7ugKrtGonE9g9RUOzuHAFYjvg5bTiIse+JgXh8Gw7xPoAvrxIaDaHSuHseNUdKFaubf07jvCWpWTg0llXrFBAJl4zFIZjTKplH5IAIshTSwJ6Rf+JFgZwbkO9dBn3cY1rS/wbwxgvQdvaAnQY8+/C3oJr7BDabToSLeVGN5KEnflc54F3R3OT2UFd9Fc1kafqinWfPvAro2nGV2hrtDFdYThkgCHV0SQS3CnbMGMDaC0p+cP8CFzXgXdHc5PZSG1C0EsrdbhrKhkbrKQJf6wXNqdLt2f3I3NgykndiNjWdKhvMvIRjhCmupsLS2JTk9lObsdALaW9y8ytr1Oq0wOsGCeUoeRPryKhplq8e5Qz7ajQeR1CUwinw6cy8+GNYZVWXF/F8W1JycHkq7+AZ0O+Khig6HeEJfFokzQAlId4Kx1hRB7gREbp4k9YZS4gUldNiHzQTqSs7TiUXb9A1rsshB0MTPgGHXBjbjXdDd5fRQ1qq6Qg3rpbMwZv4CzbdfQR7lT8B8nUXmFKymUNJX+tGFYHSbgUjNl3rc10gz/TaUS8dDtzUe5pwDqLpRAkdl4zy+oOYlQHkH1VjNsCvEsJ4/DUPaFigXBrEghUXhNOChs4qI0Vw22/fvBMnoHlCtnQPToRTYSotQTd9nLvx3sfuSAGVLogPilkrYpLdhIv1PTVwUZBM/hmRMD8gmD0DFjytgLjqNaq0SDnvrXnol6O4SoLwP1dhssCulQmamjSRAKajdSYBSULuTAKWgdicBSkHtTMB/Aa+IAZqTM0eFAAAAAElFTkSuQmCC;" parent="rmpsdoVU6oN7jqYleleH-1" vertex="1">
          <mxGeometry x="161.75" y="300" width="187.5" height="62.5" as="geometry" />
        </mxCell>
        <mxCell id="GIPEAf3Tnj1e-WWM6_0W-1" value="IndexedDB" style="shape=image;imageAspect=0;aspect=fixed;verticalLabelPosition=bottom;verticalAlign=top;image=data:image/png,iVBORw0KGgoAAAANSUhEUgAAAGQAAABkCAMAAABHPGVmAAAAAXNSR0IArs4c6QAAAARnQU1BAACxjwv8YQUAAAL0UExURf////7+/vf39/Ly8u/v7+Xl5dXV1b29vaioqIyMjG9vb2JiYlNTU0pKSj09PSgoKB0dHRcXFxAQEAkJCQMDAwsLCx8fHysrKz4+PktLS1RUVGNjY3FxcZCQkKurq8DAwNjY2Ofn5/j4+PPz8+Pj45mZmWdnZy4uLgwMDAAAAA8PDzExMU1NTWtra56ensLCwtfX1/X19fb29tnZ2bu7u5eXl2lpaTk5OW1tbZubm76+vtvb2/n5+fT09MjIyJSUlDU1NQoKCg0NDRgYGCUlJTAwMEFBQUhISE9PT1lZWWVlZWZmZmFhYVhYWE5OTkBAQCQkJA4ODjg4OMzMzP39/SYmJgEBARwcHFFRUXR0dImJiaCgoLKyssfHx9HR0eHh4e7u7u3t7eDg4NDQ0MbGxrq6urCwsJ2dnYiIiDQ0NAQEBCkpKVdXV15eXj8/P87Ozunp6fv7++jo6Nra2ri4uDo6OioqKr+/v0ZGRhQUFAUFBXBwcLm5ud7e3tzc3LOzsxUVFUxMTMPDwwgICDs7O5KSkouLizY2NgcHB5aWlnh4eNbW1hkZGWRkZJqamjc3N2pqaubm5p+fn+Li4kRERBoaGoCAgOvr63p6eklJSbe3t7GxsVpaWvz8/C0tLdPT0xISEra2tkJCQmBgYLS0tIGBgQYGBoWFhcTExIODg4SEhDMzM+zs7C8vLwICAvr6+vDw8G5ubt/f3/Hx8UVFRerq6q2trdLS0tTU1KWlpaGhoSAgIHZ2dl1dXYaGhjIyMpGRkSIiIicnJ46Ojs/Pz4qKipiYmBEREZycnKampqysrIeHh2xsbBsbGxYWFnNzc8vLy4KCgiMjI0NDQ3JycqKioo+Pj42Njd3d3SEhIVBQUHx8fBMTE+Tk5JOTk8rKynd3dzw8PK6urmhoaFZWVh4eHlJSUlxcXMHBwZWVlc3Nzby8vHl5eX5+flVVVVtbW39/f319fUdHR3V1dSwsLKOjo6mpqXt7e19fX6+vr8nJyQAAABuMpMwAAAD8dFJOU///////////////////////////////////////////////////////////////////////////////////////////////////////////////////////////////////////////////////////////////////////////////////////////////////////////////////////////////////////////////////////////////////////////////////////////////////////////////////////////////////////////////ANR6x34AAAAJcEhZcwAADsMAAA7DAcdvqGQAAAWUSURBVGhDxVq9tfMqEHQlygic0wUhDRBSEF1QBREtEKoCanizsLKEZP2a+7255/pIssQyu5gdFr3OYIxJcrBKZedDiPENxBiCc1kpMciEG/jWR0hJCuUCNXsE75TQsMVP3QC177mVS/BKyMQPX4IUeWUgBg//wEETsnMO3uOvKyIMaW7iBMnmhYeiz6MdpNRp7RCTkpaI1pj9wlbI9pyPnC1EPwoNZ/M3uzAwhtjxU7CjJH/zHdJNnfIK44avXoIx8hPE6Pa9ljLf5MStEM5IdrKjdloQlUUYH1qoSGP1dxR8YYlKI/qBz3+AqHTUxt2pBM59M/8Aora2ckmxEe2DX+13mJF879r2yFfheOTdhKTQZD4pELjgf4r3FpqsLN2PSMWuPAgSHvN8DAw4VXzcEYjBousWxDoM3TUkmrV8/HqNOOscEUJrhJjMZ91AzY58XJn4br+RCYaGV8ukf+QVtdrGBMy6cjHFxprJdq75BXUuXMeEEIdOZIydkl/LpMxobzd0YGOGMtdH6nvLxMiaBdxVwbEDozk7ep3w2TJJPD2TEHhuRwtVG4kYRq0RYkJukpld6bOVt8NjJNRRfT4q6qbG0ZoJYDR3BHzI0OUAJWmzn8QUTJQeEpM2JtyemQUH7g7QaoM+MgXRNdhGS/rP2NlhUqFZcDAiRLxTo4CE14SEf0hHIUao8SrzP4DUmd38PSYzEnrXPn6KuFGoh0wY0qKnV0yRGld2OyJ3Y7KC0QKKmtY/8EtjD6fUeCY9XuO8wRUmC2CxJQdEQQgrrLV0IAaE6Fgun8WkC24yeYarMfkJWya/TYtf0RohJn9gZKtWZud1A/W9jUnoHhRNv6uWSdcMT6hZvmUCnd/Viq5KYsUEHuuohweeyNvRVbC3Zr2Lzzp6xaSajst88BAmVbEQBny0MTEsx5A7f6KTZJWOWPx+nbt4afz2N5J7C6T6qQ1R1cp27poW+hjPo9hJErswiwKLLzlybxZG2i13AcjrdrgWIaNLFuUHwaLOUfv5JA0fVYQAeZ+VlXqnBIjL0CrKuUUxKqiPYjvMJ7CzkivBU01tHCknDpQi7ThmtF2y8gJBLbX0WT4hRdsYOkdwduXcQyYMk4a8EVZbFFmWv0Xveo6HXilyxQdChFFqFQehlCXVuKdVrjFpYagKqEk4kk6Bljwv0v5POf4PjFyPyQ/4Z0zamHSvRCFxbZj8TSlqFZPYXXhRUW3FBEtiPusEXTJLG5PeVrgssGICj3Us2U51j5ZJuej6jLGp7oH/lomsKdHdLxKsYXjvwm1rkMbUyCB5/qKKPnWAaL//4pnMO+b96fsQSMZcOInk+J1ZuBbygZgps5cvL4Ky/bTFE+vGwt7cZaauACGP4hIltI/E9snWIXNt7mAWlrMqQp+8U5APw5fFtCl1FVrmL8XK281Vg8NZOEkx8ylAqoVeqVuAY90CZLHCN1SELJaD8ywzQkR8PHwN0UHctnSv5BMoNzE6yIbSyC5KDelr7LYx+XJTBYXVTnKlqJUiVQAq24iDQfgkM9J+tkkEfF7ZTz6LSRc8YXIbB7+TfvhnTNqY/LlaoZTfbAn2QbtxZpACYvedMyKy3DOlzczQWa2ULdNmL7lsy/bkYkrxoY0BOewde1U9MLDK6na1wcyFI99HFBlbMti2uMUbXXWZ/xPSWKXEdtMfmF5f4I2JZzCSywB7ETZTmcBb/eStHSQgJkHVJr64hf7IASz7L7yyMoPy/eLhY59PDgWiV1ZKpA7+ag9JI63N7wVFf+F1ETMs31SKISP9leJ/k6goe2HBPdiyU8M3A8jEfMcZkhxXb1wh4ZY3lgCFPwBiZb25Epy9t02JzL7Qa+egza9HGhqjRUJCnJiiuthNSbtFKWqJkeTcVHmi2hTVVYpWOR3sr9d/BTn8nVmyYjMAAAAASUVORK5CYII=;" vertex="1" parent="rmpsdoVU6oN7jqYleleH-1">
          <mxGeometry x="392" y="300" width="47" height="47" as="geometry" />
        </mxCell>
        <mxCell id="GIPEAf3Tnj1e-WWM6_0W-8" value="Chat" style="rounded=0;whiteSpace=wrap;html=1;" vertex="1" parent="rmpsdoVU6oN7jqYleleH-1">
          <mxGeometry x="20" y="85" width="151" height="95" as="geometry" />
        </mxCell>
        <mxCell id="GIPEAf3Tnj1e-WWM6_0W-9" value="Summarize" style="rounded=0;whiteSpace=wrap;html=1;" vertex="1" parent="rmpsdoVU6oN7jqYleleH-1">
          <mxGeometry x="180" y="85" width="151" height="95" as="geometry" />
        </mxCell>
        <mxCell id="GIPEAf3Tnj1e-WWM6_0W-10" value="Brainstorm" style="rounded=0;whiteSpace=wrap;html=1;" vertex="1" parent="rmpsdoVU6oN7jqYleleH-1">
          <mxGeometry x="340" y="85" width="151" height="95" as="geometry" />
        </mxCell>
        <mxCell id="GIPEAf3Tnj1e-WWM6_0W-11" value="Simple Language" style="rounded=0;whiteSpace=wrap;html=1;" vertex="1" parent="rmpsdoVU6oN7jqYleleH-1">
          <mxGeometry x="20" y="190" width="151" height="95" as="geometry" />
        </mxCell>
        <mxCell id="GIPEAf3Tnj1e-WWM6_0W-12" value="Own Assistants" style="rounded=0;whiteSpace=wrap;html=1;" vertex="1" parent="rmpsdoVU6oN7jqYleleH-1">
          <mxGeometry x="180" y="190" width="151" height="95" as="geometry" />
        </mxCell>
        <mxCell id="rmpsdoVU6oN7jqYleleH-2" value="&lt;font style=&quot;font-size: 16px;&quot;&gt;MUCGPT Backend&lt;/font&gt;" style="swimlane;whiteSpace=wrap;html=1;strokeColor=#0080ff;startSize=60;" parent="1" vertex="1">
          <mxGeometry x="650" y="90" width="410" height="440" as="geometry" />
        </mxCell>
        <mxCell id="rmpsdoVU6oN7jqYleleH-7" value="" style="shape=image;imageAspect=0;aspect=fixed;verticalLabelPosition=bottom;verticalAlign=top;image=data:image/jpeg,/9j/4AAQSkZJRgABAQEASABIAAD/4SAqRXhpZgAATU0AKgAAAAgABgALAAIAAAAmAAAIYgESAAMAAAABAAEAAAExAAIAAAAmAAAIiAEyAAIAAAAUAAAIrodpAAQAAAABAAAIwuocAAcAAAgMAAAAVgAAEV4c6gAAAAgAAAAAAAAAAAAAAAAAAAAAAAAAAAAAAAAAAAAAAAAAAAAAAAAAAAAAAAAAAAAAAAAAAAAAAAAAAAAAAAAAAAAAAAAAAAAAAAAAAAAAAAAAAAAAAAAAAAAAAAAAAAAAAAAAAAAAAAAAAAAAAAAAAAAAAAAAAAAAAAAAAAAAAAAAAAAAAAAAAAAAAAAAAAAAAAAAAAAAAAAAAAAAAAAAAAAAAAAAAAAAAAAAAAAAAAAAAAAAAAAAAAAAAAAAAAAAAAAAAAAAAAAAAAAAAAAAAAAAAAAAAAAAAAAAAAAAAAAAAAAAAAAAAAAAAAAAAAAAAAAAAAAAAAAAAAAAAAAAAAAAAAAAAAAAAAAAAAAAAAAAAAAAAAAAAAAAAAAAAAAAAAAAAAAAAAAAAAAAAAAAAAAAAAAAAAAAAAAAAAAAAAAAAAAAAAAAAAAAAAAAAAAAAAAAAAAAAAAAAAAAAAAAAAAAAAAAAAAAAAAAAAAAAAAAAAAAAAAAAAAAAAAAAAAAAAAAAAAAAAAAAAAAAAAAAAAAAAAAAAAAAAAAAAAAAAAAAAAAAAAAAAAAAAAAAAAAAAAAAAAAAAAAAAAAAAAAAAAAAAAAAAAAAAAAAAAAAAAAAAAAAAAAAAAAAAAAAAAAAAAAAAAAAAAAAAAAAAAAAAAAAAAAAAAAAAAAAAAAAAAAAAAAAAAAAAAAAAAAAAAAAAAAAAAAAAAAAAAAAAAAAAAAAAAAAAAAAAAAAAAAAAAAAAAAAAAAAAAAAAAAAAAAAAAAAAAAAAAAAAAAAAAAAAAAAAAAAAAAAAAAAAAAAAAAAAAAAAAAAAAAAAAAAAAAAAAAAAAAAAAAAAAAAAAAAAAAAAAAAAAAAAAAAAAAAAAAAAAAAAAAAAAAAAAAAAAAAAAAAAAAAAAAAAAAAAAAAAAAAAAAAAAAAAAAAAAAAAAAAAAAAAAAAAAAAAAAAAAAAAAAAAAAAAAAAAAAAAAAAAAAAAAAAAAAAAAAAAAAAAAAAAAAAAAAAAAAAAAAAAAAAAAAAAAAAAAAAAAAAAAAAAAAAAAAAAAAAAAAAAAAAAAAAAAAAAAAAAAAAAAAAAAAAAAAAAAAAAAAAAAAAAAAAAAAAAAAAAAAAAAAAAAAAAAAAAAAAAAAAAAAAAAAAAAAAAAAAAAAAAAAAAAAAAAAAAAAAAAAAAAAAAAAAAAAAAAAAAAAAAAAAAAAAAAAAAAAAAAAAAAAAAAAAAAAAAAAAAAAAAAAAAAAAAAAAAAAAAAAAAAAAAAAAAAAAAAAAAAAAAAAAAAAAAAAAAAAAAAAAAAAAAAAAAAAAAAAAAAAAAAAAAAAAAAAAAAAAAAAAAAAAAAAAAAAAAAAAAAAAAAAAAAAAAAAAAAAAAAAAAAAAAAAAAAAAAAAAAAAAAAAAAAAAAAAAAAAAAAAAAAAAAAAAAAAAAAAAAAAAAAAAAAAAAAAAAAAAAAAAAAAAAAAAAAAAAAAAAAAAAAAAAAAAAAAAAAAAAAAAAAAAAAAAAAAAAAAAAAAAAAAAAAAAAAAAAAAAAAAAAAAAAAAAAAAAAAAAAAAAAAAAAAAAAAAAAAAAAAAAAAAAAAAAAAAAAAAAAAAAAAAAAAAAAAAAAAAAAAAAAAAAAAAAAAAAAAAAAAAAAAAAAAAAAAAAAAAAAAAAAAAAAAAAAAAAAAAAAAAAAAAAAAAAAAAAAAAAAAAAAAAAAAAAAAAAAAAAAAAAAAAAAAAAAAAAAAAAAAAAAAAAAAAAAAAAAAAAAAAAAAAAAAAAAAAAAAAAAAAAAAAAAAAAAAAAAAAAAAAAAAAAAAAAAAAAAAAAAAAAAAAAAAAAAAAAAAAAAAAAAAAAAAAAAAAAAAAAAAAAAAAAAAAAAAAAAAAAAAAAAAAAAAAAAAAAAAAAAAAAAAAAAAAAAAAAAAAAAAAAAAAAAAAAAAAAAAAAAAAAAAAAAAAAAAAAAAAAAAAAAAAAAAAAAAAAAAAAAAAAAAAAAAAAAAAAAAAAAAAAAAAAAAAAAAAAAAAAAAAAAAAAAAAAAAAAAAAAAAAAAAAAAAAAAAAAAAAAAAAAAAAAAAAAAAAAAAAAAAAAAAAAAAAAAAAAAAAAAAAAAAAAAAAAAAAAAAAAAAAAAAAAAAAAAAAAAAAAAAAAAAAAAAAAAAAAAAAAAAAAAAAAAAAAAAAAAAAAAAAAAAAAAAAAAAAAAAAAAAAAAAAAAAAAAAAAAAAAAAAAAAAAAAAAAAAAAAAAAAAAAAAAAAAAAAAAAAAAAAAAAAAAAAAAAAAAAAAAAAAAAAAAAAAAAAAAAAAAAAAAAAAAAAAAAAAAAAAAAAAAAAAAAAAAAAAAAAAAAAAAAAAAAAAAAAAAAAAAAAAAAAAAAAAAAAAAAAAAAAAAAAAAAAAAAAAAAAAAAAAAAAAAAAAAAAAAAAAAAAAAAAAAAAAAAAAAAAAAAAAAAAAAAAAAAAAAAAAAAAAAAAAAAAAAAAAAAAAAAAAAAAAAAAAAAAAAAAAAAAAAAAAAAAAAAAAAAAAAAAAAAAAAAAAAAAAAAAAAAAAAAAAAAAAAAAAAAAAAAAAAAAAAAAAAAAAAAAAAAAAAAAAAAAAAAAAAAAAAAAAAAAAAAAAAAAAAAAAAAAAAAAAAAAAAAAAAAAAAAAAAAAAAAAAAAAAAAAAAAAAAAAAAAAAAAAAAAAAAAAAAAAAAAAAAAAAAAAAAAAAAAAAAAAAAAAAAAAAAAAAAAAAAAAAAAAAAAAAAAAAAFdpbmRvd3MgUGhvdG8gRWRpdG9yIDEwLjAuMTAwMTEuMTYzODQAV2luZG93cyBQaG90byBFZGl0b3IgMTAuMC4xMDAxMS4xNjM4NAAyMDI0OjA2OjEwIDA5OjQyOjM4AAAIQAAAAwAAAAEAjgAAQAEAAQAAAAEAAAAAkAMAAgAAABQAABE0kAQAAgAAABQAABFIkpEAAgAAAAMyMQAAkpIAAgAAAAMyMQAAoAEAAwAAAAEAAQAA6hwABwAACAwAAAkoAAAAABzqAAAACAAAAAAAAAAAAAAAAAAAAAAAAAAAAAAAAAAAAAAAAAAAAAAAAAAAAAAAAAAAAAAAAAAAAAAAAAAAAAAAAAAAAAAAAAAAAAAAAAAAAAAAAAAAAAAAAAAAAAAAAAAAAAAAAAAAAAAAAAAAAAAAAAAAAAAAAAAAAAAAAAAAAAAAAAAAAAAAAAAAAAAAAAAAAAAAAAAAAAAAAAAAAAAAAAAAAAAAAAAAAAAAAAAAAAAAAAAAAAAAAAAAAAAAAAAAAAAAAAAAAAAAAAAAAAAAAAAAAAAAAAAAAAAAAAAAAAAAAAAAAAAAAAAAAAAAAAAAAAAAAAAAAAAAAAAAAAAAAAAAAAAAAAAAAAAAAAAAAAAAAAAAAAAAAAAAAAAAAAAAAAAAAAAAAAAAAAAAAAAAAAAAAAAAAAAAAAAAAAAAAAAAAAAAAAAAAAAAAAAAAAAAAAAAAAAAAAAAAAAAAAAAAAAAAAAAAAAAAAAAAAAAAAAAAAAAAAAAAAAAAAAAAAAAAAAAAAAAAAAAAAAAAAAAAAAAAAAAAAAAAAAAAAAAAAAAAAAAAAAAAAAAAAAAAAAAAAAAAAAAAAAAAAAAAAAAAAAAAAAAAAAAAAAAAAAAAAAAAAAAAAAAAAAAAAAAAAAAAAAAAAAAAAAAAAAAAAAAAAAAAAAAAAAAAAAAAAAAAAAAAAAAAAAAAAAAAAAAAAAAAAAAAAAAAAAAAAAAAAAAAAAAAAAAAAAAAAAAAAAAAAAAAAAAAAAAAAAAAAAAAAAAAAAAAAAAAAAAAAAAAAAAAAAAAAAAAAAAAAAAAAAAAAAAAAAAAAAAAAAAAAAAAAAAAAAAAAAAAAAAAAAAAAAAAAAAAAAAAAAAAAAAAAAAAAAAAAAAAAAAAAAAAAAAAAAAAAAAAAAAAAAAAAAAAAAAAAAAAAAAAAAAAAAAAAAAAAAAAAAAAAAAAAAAAAAAAAAAAAAAAAAAAAAAAAAAAAAAAAAAAAAAAAAAAAAAAAAAAAAAAAAAAAAAAAAAAAAAAAAAAAAAAAAAAAAAAAAAAAAAAAAAAAAAAAAAAAAAAAAAAAAAAAAAAAAAAAAAAAAAAAAAAAAAAAAAAAAAAAAAAAAAAAAAAAAAAAAAAAAAAAAAAAAAAAAAAAAAAAAAAAAAAAAAAAAAAAAAAAAAAAAAAAAAAAAAAAAAAAAAAAAAAAAAAAAAAAAAAAAAAAAAAAAAAAAAAAAAAAAAAAAAAAAAAAAAAAAAAAAAAAAAAAAAAAAAAAAAAAAAAAAAAAAAAAAAAAAAAAAAAAAAAAAAAAAAAAAAAAAAAAAAAAAAAAAAAAAAAAAAAAAAAAAAAAAAAAAAAAAAAAAAAAAAAAAAAAAAAAAAAAAAAAAAAAAAAAAAAAAAAAAAAAAAAAAAAAAAAAAAAAAAAAAAAAAAAAAAAAAAAAAAAAAAAAAAAAAAAAAAAAAAAAAAAAAAAAAAAAAAAAAAAAAAAAAAAAAAAAAAAAAAAAAAAAAAAAAAAAAAAAAAAAAAAAAAAAAAAAAAAAAAAAAAAAAAAAAAAAAAAAAAAAAAAAAAAAAAAAAAAAAAAAAAAAAAAAAAAAAAAAAAAAAAAAAAAAAAAAAAAAAAAAAAAAAAAAAAAAAAAAAAAAAAAAAAAAAAAAAAAAAAAAAAAAAAAAAAAAAAAAAAAAAAAAAAAAAAAAAAAAAAAAAAAAAAAAAAAAAAAAAAAAAAAAAAAAAAAAAAAAAAAAAAAAAAAAAAAAAAAAAAAAAAAAAAAAAAAAAAAAAAAAAAAAAAAAAAAAAAAAAAAAAAAAAAAAAAAAAAAAAAAAAAAAAAAAAAAAAAAAAAAAAAAAAAAAAAAAAAAAAAAAAAAAAAAAAAAAAAAAAAAAAAAAAAAAAAAAAAAAAAAAAAAAAAAAAAAAAAAAAAAAAAAAAAAAAAAAAAAAAAAAAAAAAAAAAAAAAAAAAAAAAAAAAAAAAAAAAAAAAAAAAAAAAAAAAAAAAAAAAAAAAAAAAAAAAAAAAAAAAAAAAAAAAAAAAAAAAAAAAAAAAAAAAAAAAAAAAAAAAAAAAAAAAAAAAAAAAAAAAAAAAAAAAAAAAAAAAAAAAAAAAAAAAAAAAAAAAAAAAAAAAAAAAAAAAAAAAAAAAAAAAAAAAAAAAAAAAAAAAAAAAAAAAAAAAAAAAAAAAAAAAAAAAAAAAAAAAAAAAAAAAAAAAAAAAAAAAAAAAAAAAAAAAAAAAAAAAAAAAAAAAAAAAAAAAAAAAAAAAAAAAAAAAAAAAAAAAAAAAAAAAAAAAAAAAAAAAAAAAAAAAAAAAAAAAAAAAAAAAAAAAAAAAAAAAAAAAAAAAAAAAAAAAAAAAAAAAAAAAAAAAAAAAAAAAAAAAAAAAAAAAAAAAAAAAAAAAAAAAAAAAAAAAAAAAAAAAAAAAAAAAAAAAAAAAAAAAAAAAAAAAAAAAAAAAAAAAAAAAAAAAAAAAAAAAAAAAAAAAAAAAAAAAAAAAAAAAAAAAAAAAAAAAAAAAAAAAAAAAAAAAAAAAAAAAAAAAAAAAAAAAAAAAAAAAAAAAAAAAAAAAAAAAAAAAAAAAAAAAAAAAAAAAAAAAAAAAAAAAAAAAAAAAAAAAAAAAAAAAAAAAAAAAAAAAAAAAAAAAAAAAAAAAAAAAAAAAAAAAAAAAAAAAAAAAAAAAAAAAAAAAAAAAAAAAAAAAAAAAAAAAAAAAAAAAAAAAAAAAAAAAAAAAAAAAAAAAAAAAAAAAAAAAAAAAAAAAAMjAyNDowNjoxMCAwOTo0MTo1MwAyMDI0OjA2OjEwIDA5OjQxOjUzAAAAAAYBAwADAAAAAQAGAAABGgAFAAAAAQAAEawBGwAFAAAAAQAAEbQBKAADAAAAAQACAAACAQAEAAAAAQAAEbwCAgAEAAAAAQAADmUAAAAAAAAAYAAAAAEAAABgAAAAAf/Y/9sAQwAIBgYHBgUIBwcHCQkICgwUDQwLCwwZEhMPFB0aHx4dGhwcICQuJyAiLCMcHCg3KSwwMTQ0NB8nOT04MjwuMzQy/9sAQwEJCQkMCwwYDQ0YMiEcITIyMjIyMjIyMjIyMjIyMjIyMjIyMjIyMjIyMjIyMjIyMjIyMjIyMjIyMjIyMjIyMjIy/8AAEQgAMgEAAwEhAAIRAQMRAf/EAB8AAAEFAQEBAQEBAAAAAAAAAAABAgMEBQYHCAkKC//EALUQAAIBAwMCBAMFBQQEAAABfQECAwAEEQUSITFBBhNRYQcicRQygZGhCCNCscEVUtHwJDNicoIJChYXGBkaJSYnKCkqNDU2Nzg5OkNERUZHSElKU1RVVldYWVpjZGVmZ2hpanN0dXZ3eHl6g4SFhoeIiYqSk5SVlpeYmZqio6Slpqeoqaqys7S1tre4ubrCw8TFxsfIycrS09TV1tfY2drh4uPk5ebn6Onq8fLz9PX29/j5+v/EAB8BAAMBAQEBAQEBAQEAAAAAAAABAgMEBQYHCAkKC//EALURAAIBAgQEAwQHBQQEAAECdwABAgMRBAUhMQYSQVEHYXETIjKBCBRCkaGxwQkjM1LwFWJy0QoWJDThJfEXGBkaJicoKSo1Njc4OTpDREVGR0hJSlNUVVZXWFlaY2RlZmdoaWpzdHV2d3h5eoKDhIWGh4iJipKTlJWWl5iZmqKjpKWmp6ipqrKztLW2t7i5usLDxMXGx8jJytLT1NXW19jZ2uLj5OXm5+jp6vLz9PX29/j5+v/aAAwDAQACEQMRAD8A98kkWJC7sFUDJLHAFQJf2z42zIQ33Tng1nOpGDSZSi3qiz2pau5IUUwCigCpdahb2QX7RKFZvuoBlm+gHJqmniPTmk2NK8RzjMsZUfmapQbVyeZGqrBhkHIPQ06pKCigAooAKKACigAooAKKACigAooAKKACigDzT4p+IZdPbTtMwRa3RMk5HVlUj5fYHPNQaHNp1lptwLW9urmOdzJi4l3bAeiqPQV5OZqSScTanNJNHV+EdcbUbeS0uGP2iA8Enl07H8OldNXoYeanTTML3ForYYVnarqK2FuXMiI2CSzn5UUdWPsKEBxVhbal4ymluIbq40/RWOPPHy3F775/gT0Ap2rfC2x+xvNot3d2eoRqSkhmLBz6Nn1p8z6CaQvwx8SXOqWtzpd//wAfdmefp0rur2+tdOtWub24jt7dcbpJGwoz05pbj2G2OoWmpWy3Njcx3EDEgSRNuU4681boAKKACkoAWigAqpfalZaZCZ767htoh/HK4UfrQBl2vjbwze3Agt9cspJWOAvmgZranuIba3e4nlSOFF3M7HAA9c0AV9O1aw1eJptPvIbqNW2s0ThgD6cVdoAKSgDK1nxHpPh6OKTVr+K1SVtqGQ/eNaUMqTwrLG4dHAZWByCD0NAElFAFaeytrlg09vFKQpUb1B4PUc/QV5R4gtbbQ/HMkUUQjtbiNZggGFB6HA/CuTGx5qTJnsb1vLahkmt9scqnh14IrrNJ1Vb5THIVEy+nRh615mW15Rn7OWwos1RR0r3iyjf6jDZryQzbd2CwUKB3YngD3rx7xf40j1i/WyWSNrLzlM7IxCyIvO3OM4znNOwX1PVdE1eC7SO28lLdxEHjRGDRunTKEcED07Vo3t2lrBuPzOx2og6sx6ChqzFe6PPvh7pf/FV69qkJ3WoYW6ydpJM5fHsDgVofF8f8W01L/ei/9GLS6jZD8GP+SbWn/Xeb/wBDNegHgcmmxLY841n4zeHdK1CWzgiuL5omKvJBjZkcHBJ5+o4rc8I/EDRfGJkisWkiuo13PbzLhseo7EUgMy7+Lfh+w1q90y7S5hezLq8hQFSV7DBySe1UNN+Nnh6+1OO1ltry1SRwizSAFQT0zg8U7Adzr3iHTfDekyalqVwI7dcAYGS7HoFHc1xGmfGnw7qOopaTw3VkkjbVmmA2ZPTODx9TxQBueFfiFpfi034tIbmAWKCSVplA4OemD7V5FY2+o/GDx1cvcXLwabAC4A58qLOFVR03Hrn60IDsNe+B2knSZX0WW6jvokLIJZN6yEDoeOM+1UvDF/rz/C7xHpeu2d7EbS0Y28t1EylkIPy5I5wR+tAGR8NvHmkeC/Cl2t75ktxPd5jghA3EBRyc8AV6b4R+JOjeL7p7O1Wa3u1XeIpgPmXuQRwfpQBb8W+PNG8HJGNQkd7mUbo7eEZcj1PoPc1zmk/Grw7qN9Ha3EF1ZeYwVZZQCmT0yQePrQAfFt/DH2LTG8Qw30imRjC9mwB6DIOeMEVp6z480XwZpOjLJaXTW93bg26xgEoqheuT7igZlaj8bfDtlftbw293dohw00QAX3xk813eha7YeI9Ih1PTpTJby5xkYKkcEEdiKQjSrzT4s6XOYrHW7eMutruiuAvURtghvoCP1rOrHmg0Etjh9L102jBJ2LRN9x/WuptdaRNlxBLtkXkEdq+cqqVOfMjehSVRWPStG1SLV9PjuoiOeHAP3W7irN3P5MOVGZGO1AfX/Dqfwr6SlLngpdzKa5W0cVZ6fJ4tvpJLkuNFhkIC5IN446s3+yDwB7VkfEDwbNDeW3iDRLYFrdQs1vEnUL0IH0/lWgh2gazDeeG7rUII4oW064WRduVVWI+cY/hB5yBxU8VzqvjR9mntNb2cnE+pMhQBO6QA889Cxqm9CYrW532l6Za6Rp0NjZRiOCJcKv8AU+9cl8X/APkmupf70X/oxajqUQfBj/km1p/13m/9DNdtqMtvFpl1JdyeVbrExlkzjauOTn6U3uI8P8PeI9A0y5uovB/ge/1VWwHmlfeQO3VWwD+FUfAEsjfG0O2n/wBmtK05ezB/1WYydv580wH6TpNnrHx3vre+hWaFbmaTy2GQSOmfatX47aPYWNvpF7a2sUEsjyROY0C7lABHT05/OkBn/Fm6nn0nwhbyOfLeyWVvTcVUZr1E+CfD0ngwaYbGBYTbf60IN4bbnfu65zzQB5d8GYmns/FcScvJZKq47kh6vfAW5iS/1m0cgTvGkig8EhSQfyJH50Ae3ySpFC8kjBURSzMegA71w2teLdE8TeCvEMekXq3LQWTGTapG0EHHUexoGcn8DtB0270rUdRubSKecTCFTKobauAeAfXNZMljBoX7Qtta6eghga4RhGvAG+PLAe2SaBG34+1TwfZ+OY5J9JvNY12PYPIjkPljH3VI5yec4ANcX8StYu9ZisZrvwjJoWwuElk4MvH3fujp1osBv/FxmfwX4SZiSzQAknufLWq3xeyNC8G4OP8AQ25/4DHQM9E1zwjolr8Mrq1i0+BRBYl0fYN+4Lndu65zWH8BXZvDWpoSdq3QIHplRmkI9aqOWNJUaORQ6MpDKwyCKBngHifw/JZePLvR9NtN1nIgmSEdEXZuYj2BB/lWNY2GtSvM+m2s95bxEBzGC23PSvNq0eaVgo1XSnc67wL4mudE8Qiz1COaC1ucLIkqFSj/AMLe3p/+qvV9VmAe0ORskLxqc8bih2/nyPxrpwmkeSR04vlck49R3h94jolskQC+Wvlso/hYdQfxq3c3Udsu5sl24RF6sa6mtTlucXbyN4i8Q/YrQR/YLabz9RnjHySyDhYV9cdz7V3iqqgBRgAYAFA7C4rkfiZpl7rHgW+sdPt2uLmRo9ka4ycOCevtSA8w0BPip4a0lNN07RWW2RmZQ8aMcscnnNdVosfjrxPaaxpHim1FpaXNkyRSeWoxIenQnNNiOZ8NWXxJ8FrdaTp+hxTJNJuErgMgbpuDZHH1q34P8H+KNO+K8eqavbSTRZlaa9BGx2aM9Oc4ycfhRcC94e8La5afGW+1mfTpU0+SSYrOSMHPTvnmtL4zeHdX8RaZpUWk2Ml28UztIEx8oK4HUigCv4+8LW+q+B9Fhub610/VbO2RYkupAivhAHQn+tYlnafEq88P/wBkXs9vZaMISs2oO6EiHHOGU88UAJ8AlP2/XmAPl+XCAfxerHiv4ba7o/iRvEXgxjuZzKYI2CvGx+9tB4ZTk8e9DAo6jP8AFfxRZtpFxprwQyjZKwQQhh/tNnp9K7HS/AD+Gvhtq+mW/wDpWqX0DeaU4DtjCquewyfzoGL8H9B1Xw/4evrfVrOS1lkud6q+MldoGeKyNW8La3P8c7XW4tPlbTUkhLXAI2gCPB7560CKPi7wl4p0j4ht4p8P2YvlkfzQqgEo2MEFcjj3FZXjHQfiH4wtbS91HSwNjMsVlARmPjl2ye/T/CgDf+I/hXXNY8KeGbWw06Wee1hCzIpHyHYo5yfUVD8TPCeu6zpPhiLTtNluJLS1KTqhH7s4Trk+x/KgD0zXrS4uvBl9ZwRF7iSyaNIx1LbcYrkfg7oGq+HtE1CHVbKS1kluFZFcjJG0DPBpAelVja/puqajBGumaxJpsitkssSuG+uaBnPzeF/EUGrHVLXXY7i58nY63Fqnz4BwoIHygk9qk8J+Gdb0FT519Y7Lmdp7iGO25BP8KtnoPpSsr3Cxq+IPCtj4geGaR5ILuDISeI4OD2b1H1p0OgH+xZNLu7kzxMPldRtZDnIIPYg4IrP2Xv8AOhHOXNl4o0u5aSPT/wC0GPH2qxuVgeQdvMjb5SfcUkejeKdeDRXiLo1nJxM3n+ddSr/d3DhB9K3uI7TS9LstGsIrGxgWGCIYUDv7k9zV6pKCkoAWkxQAY9qMD0oAMe1FAHPeLfCGm+MdKFlfhlaNt8M0Z+aNvb1HtXnv/ClNQ8r7J/wll0bDP+oIbbj/AHd2KAPRPCXhHTvB+kmxsAzF23yzP96RvU/4Vv49qACjFABj2ox7UAGB6UYHpQAY9qMUAGPajHtQAtFABRQAUUAJRSAWimAUUAFFABRQAUUAFFABRQAUUAFFABRQAUUAFFAH/9kA/+Ex6Gh0dHA6Ly9ucy5hZG9iZS5jb20veGFwLzEuMC8APD94cGFja2V0IGJlZ2luPSfvu78nIGlkPSdXNU0wTXBDZWhpSHpyZVN6TlRjemtjOWQnPz4NCjx4OnhtcG1ldGEgeG1sbnM6eD0iYWRvYmU6bnM6bWV0YS8iPjxyZGY6UkRGIHhtbG5zOnJkZj0iaHR0cDovL3d3dy53My5vcmcvMTk5OS8wMi8yMi1yZGYtc3ludGF4LW5zIyI+PHJkZjpEZXNjcmlwdGlvbiByZGY6YWJvdXQ9InV1aWQ6ZmFmNWJkZDUtYmEzZC0xMWRhLWFkMzEtZDMzZDc1MTgyZjFiIiB4bWxuczp4bXA9Imh0dHA6Ly9ucy5hZG9iZS5jb20veGFwLzEuMC8iPjx4bXA6Q3JlYXRvclRvb2w+V2luZG93cyBQaG90byBFZGl0b3IgMTAuMC4xMDAxMS4xNjM4NDwveG1wOkNyZWF0b3JUb29sPjx4bXA6Q3JlYXRlRGF0ZT4yMDI0LTA2LTEwVDA5OjQxOjUzLjIwNTwveG1wOkNyZWF0ZURhdGU+PC9yZGY6RGVzY3JpcHRpb24+PC9yZGY6UkRGPjwveDp4bXBtZXRhPg0KICAgICAgICAgICAgICAgICAgICAgICAgICAgICAgICAgICAgICAgICAgICAgICAgICAgICAgICAgICAgICAgICAgICAgICAgICAgICAgICAgICAgICAgICAgICAgICAgICAgIAogICAgICAgICAgICAgICAgICAgICAgICAgICAgICAgICAgICAgICAgICAgICAgICAgICAgICAgICAgICAgICAgICAgICAgICAgICAgICAgICAgICAgICAgICAgICAgICAgICAgCiAgICAgICAgICAgICAgICAgICAgICAgICAgICAgICAgICAgICAgICAgICAgICAgICAgICAgICAgICAgICAgICAgICAgICAgICAgICAgICAgICAgICAgICAgICAgICAgICAgICAKICAgICAgICAgICAgICAgICAgICAgICAgICAgICAgICAgICAgICAgICAgICAgICAgICAgICAgICAgICAgICAgICAgICAgICAgICAgICAgICAgICAgICAgICAgICAgICAgICAgIAogICAgICAgICAgICAgICAgICAgICAgICAgICAgICAgICAgICAgICAgICAgICAgICAgICAgICAgICAgICAgICAgICAgICAgICAgICAgICAgICAgICAgICAgICAgICAgICAgICAgCiAgICAgICAgICAgICAgICAgICAgICAgICAgICAgICAgICAgICAgICAgICAgICAgICAgICAgICAgICAgICAgICAgICAgICAgICAgICAgICAgICAgICAgICAgICAgICAgICAgICAKICAgICAgICAgICAgICAgICAgICAgICAgICAgICAgICAgICAgICAgICAgICAgICAgICAgICAgICAgICAgICAgICAgICAgICAgICAgICAgICAgICAgICAgICAgICAgICAgICAgIAogICAgICAgICAgICAgICAgICAgICAgICAgICAgICAgICAgICAgICAgICAgICAgICAgICAgICAgICAgICAgICAgICAgICAgICAgICAgICAgICAgICAgICAgICAgICAgICAgICAgCiAgICAgICAgICAgICAgICAgICAgICAgICAgICAgICAgICAgICAgICAgICAgICAgICAgICAgICAgICAgICAgICAgICAgICAgICAgICAgICAgICAgICAgICAgICAgICAgICAgICAKICAgICAgICAgICAgICAgICAgICAgICAgICAgICAgICAgICAgICAgICAgICAgICAgICAgICAgICAgICAgICAgICAgICAgICAgICAgICAgICAgICAgICAgICAgICAgICAgICAgIAogICAgICAgICAgICAgICAgICAgICAgICAgICAgICAgICAgICAgICAgICAgICAgICAgICAgICAgICAgICAgICAgICAgICAgICAgICAgICAgICAgICAgICAgICAgICAgICAgICAgCiAgICAgICAgICAgICAgICAgICAgICAgICAgICAgICAgICAgICAgICAgICAgICAgICAgICAgICAgICAgICAgICAgICAgICAgICAgICAgICAgICAgICAgICAgICAgICAgICAgICAKICAgICAgICAgICAgICAgICAgICAgICAgICAgICAgICAgICAgICAgICAgICAgICAgICAgICAgICAgICAgICAgICAgICAgICAgICAgICAgICAgICAgICAgICAgICAgICAgICAgIAogICAgICAgICAgICAgICAgICAgICAgICAgICAgICAgICAgICAgICAgICAgICAgICAgICAgICAgICAgICAgICAgICAgICAgICAgICAgICAgICAgICAgICAgICAgICAgICAgICAgCiAgICAgICAgICAgICAgICAgICAgICAgICAgICAgICAgICAgICAgICAgICAgICAgICAgICAgICAgICAgICAgICAgICAgICAgICAgICAgICAgICAgICAgICAgICAgICAgICAgICAKICAgICAgICAgICAgICAgICAgICAgICAgICAgICAgICAgICAgICAgICAgICAgICAgICAgICAgICAgICAgICAgICAgICAgICAgICAgICAgICAgICAgICAgICAgICAgICAgICAgIAogICAgICAgICAgICAgICAgICAgICAgICAgICAgICAgICAgICAgICAgICAgICAgICAgICAgICAgICAgICAgICAgICAgICAgICAgICAgICAgICAgICAgICAgICAgICAgICAgICAgCiAgICAgICAgICAgICAgICAgICAgICAgICAgICAgICAgICAgICAgICAgICAgICAgICAgICAgICAgICAgICAgICAgICAgICAgICAgICAgICAgICAgICAgICAgICAgICAgICAgICAKICAgICAgICAgICAgICAgICAgICAgICAgICAgICAgICAgICAgICAgICAgICAgICAgICAgICAgICAgICAgICAgICAgICAgICAgICAgICAgICAgICAgICAgICAgICAgICAgICAgIAogICAgICAgICAgICAgICAgICAgICAgICAgICAgICAgICAgICAgICAgICAgICAgICAgICAgICAgICAgICAgICAgICAgICAgICAgICAgICAgICAgICAgICAgICAgICAgICAgICAgCiAgICAgICAgICAgICAgICAgICAgICAgICAgICAgICAgICAgICAgICAgICAgICAgICAgICAgICAgICAgICAgICAgICAgICAgICAgICAgICAgICAgICAgICAgICAgICAgICAgICAKICAgICAgICAgICAgICAgICAgICAgICAgICAgICAgICAgICAgICAgICAgICAgICAgICAgICAgICAgICAgICAgICAgICAgICAgICAgICAgICAgICAgICAgICAgICAgICAgICAgIAogICAgICAgICAgICAgICAgICAgICAgICAgICAgICAgICAgICAgICAgICAgICAgICAgICAgICAgICAgICAgICAgICAgICAgICAgICAgICAgICAgICAgICAgICAgICAgICAgICAgCiAgICAgICAgICAgICAgICAgICAgICAgICAgICAgICAgICAgICAgICAgICAgICAgICAgICAgICAgICAgICAgICAgICAgICAgICAgICAgICAgICAgICAgICAgICAgICAgICAgICAKICAgICAgICAgICAgICAgICAgICAgICAgICAgICAgICAgICAgICAgICAgICAgICAgICAgICAgICAgICAgICAgICAgICAgICAgICAgICAgICAgICAgICAgICAgICAgICAgICAgIAogICAgICAgICAgICAgICAgICAgICAgICAgICAgICAgICAgICAgICAgICAgICAgICAgICAgICAgICAgICAgICAgICAgICAgICAgICAgICAgICAgICAgICAgICAgICAgICAgICAgCiAgICAgICAgICAgICAgICAgICAgICAgICAgICAgICAgICAgICAgICAgICAgICAgICAgICAgICAgICAgICAgICAgICAgICAgICAgICAgICAgICAgICAgICAgICAgICAgICAgICAKICAgICAgICAgICAgICAgICAgICAgICAgICAgICAgICAgICAgICAgICAgICAgICAgICAgICAgICAgICAgICAgICAgICAgICAgICAgICAgICAgICAgICAgICAgICAgICAgICAgIAogICAgICAgICAgICAgICAgICAgICAgICAgICAgICAgICAgICAgICAgICAgICAgICAgICAgICAgICAgICAgICAgICAgICAgICAgICAgICAgICAgICAgICAgICAgICAgICAgICAgCiAgICAgICAgICAgICAgICAgICAgICAgICAgICAgICAgICAgICAgICAgICAgICAgICAgICAgICAgICAgICAgICAgICAgICAgICAgICAgICAgICAgICAgICAgICAgICAgICAgICAKICAgICAgICAgICAgICAgICAgICAgICAgICAgICAgICAgICAgICAgICAgICAgICAgICAgICAgICAgICAgICAgICAgICAgICAgICAgICAgICAgICAgICAgICAgICAgICAgICAgIAogICAgICAgICAgICAgICAgICAgICAgICAgICAgICAgICAgICAgICAgICAgICAgICAgICAgICAgICAgICAgICAgICAgICAgICAgICAgICAgICAgICAgICAgICAgICAgICAgICAgCiAgICAgICAgICAgICAgICAgICAgICAgICAgICAgICAgICAgICAgICAgICAgICAgICAgICAgICAgICAgICAgICAgICAgICAgICAgICAgICAgICAgICAgICAgICAgICAgICAgICAKICAgICAgICAgICAgICAgICAgICAgICAgICAgICAgICAgICAgICAgICAgICAgICAgICAgICAgICAgICAgICAgICAgICAgICAgICAgICAgICAgICAgICAgICAgICAgICAgICAgIAogICAgICAgICAgICAgICAgICAgICAgICAgICAgICAgICAgICAgICAgICAgICAgICAgICAgICAgICAgICAgICAgICAgICAgICAgICAgICAgICAgICAgICAgICAgICAgICAgICAgCiAgICAgICAgICAgICAgICAgICAgICAgICAgICAgICAgICAgICAgICAgICAgICAgICAgICAgICAgICAgICAgICAgICAgICAgICAgICAgICAgICAgICAgICAgICAgICAgICAgICAKICAgICAgICAgICAgICAgICAgICAgICAgICAgICAgICAgICAgICAgICAgICAgICAgICAgICAgICAgICAgICAgICAgICAgICAgICAgICAgICAgICAgICAgICAgICAgICAgICAgIAogICAgICAgICAgICAgICAgICAgICAgICAgICAgICAgICAgICAgICAgICAgICAgICAgICAgICAgICAgICAgICAgICAgICAgICAgICAgICAgICAgICAgICAgICAgICAgICAgICAgCiAgICAgICAgICAgICAgICAgICAgICAgICAgICAgICAgICAgICAgICAgICAgICAgICAgICAgICAgICAgICAgICAgICAgICAgICAgICAgICAgICAgICAgICAgICAgICAgICAgICAKICAgICAgICAgICAgICAgICAgICAgICAgICAgICAgICAgICAgICAgICAgICAgICAgICAgICAgICAgICAgICAgICAgICAgICAgICAgICAgICAgICAgICAgICAgICAgICAgICAgIAogICAgICAgICAgICAgICAgICAgICAgICAgICAgICAgICAgICAgICAgICAgICAgICAgICAgICAgICAgICAgICAgICAgICAgICAgICAgICAgICAgICAgICAgICAgICAgICAgICAgCiAgICAgICAgICAgICAgICAgICAgICAgICAgICAgICAgICAgICAgICAgICAgICAgICAgICAgICAgICAgICAgICAgICAgICAgICAgICAgICAgICAgICAgICAgICAgICAgICAgICAKICAgICAgICAgICAgICAgICAgICAgICAgICAgICAgICAgICAgICAgICAgICAgICAgICAgICAgICAgICAgICAgICAgICAgICAgICAgICAgICAgICAgICAgICAgICAgICAgICAgIAogICAgICAgICAgICAgICAgICAgICAgICAgICAgICAgICAgICAgICAgICAgICAgICAgICAgICAgICAgICAgICAgICAgICAgICAgICAgICAgICAgICAgICAgICAgICAgICAgICAgCiAgICAgICAgICAgICAgICAgICAgICAgICAgICAgICAgICAgICAgICAgICAgICAgICAgICAgICAgICAgICAgICAgICAgICAgICAgICAgICAgICAgICAgICAgICAgICAgICAgICAKICAgICAgICAgICAgICAgICAgICAgICAgICAgICAgICAgICAgICAgICAgICAgICAgICAgICAgICAgICAgICAgICAgICAgICAgICAgICAgICAgICAgICAgICAgICAgICAgICAgIAogICAgICAgICAgICAgICAgICAgICAgICAgICAgICAgICAgICAgICAgICAgICAgICAgICAgICAgICAgICAgICAgICAgICAgICAgICAgICAgICAgICAgICAgICAgICAgICAgICAgCiAgICAgICAgICAgICAgICAgICAgICAgICAgICAgICAgICAgICAgICAgICAgICAgICAgICAgICAgICAgICAgICAgICAgICAgICAgICAgICAgICAgICAgICAgICAgICAgICAgICAKICAgICAgICAgICAgICAgICAgICAgICAgICAgICAgICAgICAgICAgICAgICAgICAgICAgICAgICAgICAgICAgICAgICAgICAgICAgICAgICAgICAgICAgICAgICAgICAgICAgIAogICAgICAgICAgICAgICAgICAgICAgICAgICAgICAgICAgICAgICAgICAgICAgICAgICAgICAgICAgICAgICAgICAgICAgICAgICAgICAgICAgICAgICAgICAgICAgICAgICAgCiAgICAgICAgICAgICAgICAgICAgICAgICAgICAgICAgICAgICAgICAgICAgICAgICAgICAgICAgICAgICAgICAgICAgICAgICAgICAgICAgICAgICAgICAgICAgICAgICAgICAKICAgICAgICAgICAgICAgICAgICAgICAgICAgICAgICAgICAgICAgICAgICAgICAgICAgICAgICAgICAgICAgICAgICAgICAgICAgICAgICAgICAgICAgICAgICAgICAgICAgIAogICAgICAgICAgICAgICAgICAgICAgICAgICAgICAgICAgICAgICAgICAgICAgICAgICAgICAgICAgICAgICAgICAgICAgICAgICAgICAgICAgICAgICAgICAgICAgICAgICAgCiAgICAgICAgICAgICAgICAgICAgICAgICAgICAgICAgICAgICAgICAgICAgICAgICAgICAgICAgICAgICAgICAgICAgICAgICAgICAgICAgICAgICAgICAgICAgICAgICAgICAKICAgICAgICAgICAgICAgICAgICAgICAgICAgICAgICAgICAgICAgICAgICAgICAgICAgICAgICAgICAgICAgICAgICAgICAgICAgICAgICAgICAgICAgICAgICAgICAgICAgIAogICAgICAgICAgICAgICAgICAgICAgICAgICAgICAgICAgICAgICAgICAgICAgICAgICAgICAgICAgICAgICAgICAgICAgICAgICAgICAgICAgICAgICAgICAgICAgICAgICAgCiAgICAgICAgICAgICAgICAgICAgICAgICAgICAgICAgICAgICAgICAgICAgICAgICAgICAgICAgICAgICAgICAgICAgICAgICAgICAgICAgICAgICAgICAgICAgICAgICAgICAKICAgICAgICAgICAgICAgICAgICAgICAgICAgICAgICAgICAgICAgICAgICAgICAgICAgICAgICAgICAgICAgICAgICAgICAgICAgICAgICAgICAgICAgICAgICAgICAgICAgIAogICAgICAgICAgICAgICAgICAgICAgICAgICAgICAgICAgICAgICAgICAgICAgICAgICAgICAgICAgICAgICAgICAgICAgICAgICAgICAgICAgICAgICAgICAgICAgICAgICAgCiAgICAgICAgICAgICAgICAgICAgICAgICAgICAgICAgICAgICAgICAgICAgICAgICAgICAgICAgICAgICAgICAgICAgICAgICAgICAgICAgICAgICAgICAgICAgICAgICAgICAKICAgICAgICAgICAgICAgICAgICAgICAgICAgICAgICAgICAgICAgICAgICAgICAgICAgICAgICAgICAgICAgICAgICAgICAgICAgICAgICAgICAgICAgICAgICAgICAgICAgIAogICAgICAgICAgICAgICAgICAgICAgICAgICAgICAgICAgICAgICAgICAgICAgICAgICAgICAgICAgICAgICAgICAgICAgICAgICAgICAgICAgICAgICAgICAgICAgICAgICAgCiAgICAgICAgICAgICAgICAgICAgICAgICAgICAgICAgICAgICAgICAgICAgICAgICAgICAgICAgICAgICAgICAgICAgICAgICAgICAgICAgICAgICAgICAgICAgICAgICAgICAKICAgICAgICAgICAgICAgICAgICAgICAgICAgICAgICAgICAgICAgICAgICAgICAgICAgICAgICAgICAgICAgICAgICAgICAgICAgICAgICAgICAgICAgICAgICAgICAgICAgIAogICAgICAgICAgICAgICAgICAgICAgICAgICAgICAgICAgICAgICAgICAgICAgICAgICAgICAgICAgICAgICAgICAgICAgICAgICAgICAgICAgICAgICAgICAgICAgICAgICAgCiAgICAgICAgICAgICAgICAgICAgICAgICAgICAgICAgICAgICAgICAgICAgICAgICAgICAgICAgICAgICAgICAgICAgICAgICAgICAgICAgICAgICAgICAgICAgICAgICAgICAKICAgICAgICAgICAgICAgICAgICAgICAgICAgICAgICAgICAgICAgICAgICAgICAgICAgICAgICAgICAgICAgICAgICAgICAgICAgICAgICAgICAgICAgICAgICAgICAgICAgIAogICAgICAgICAgICAgICAgICAgICAgICAgICAgICAgICAgICAgICAgICAgICAgICAgICAgICAgICAgICAgICAgICAgICAgICAgICAgICAgICAgICAgICAgICAgICAgICAgICAgCiAgICAgICAgICAgICAgICAgICAgICAgICAgICAgICAgICAgICAgICAgICAgICAgICAgICAgICAgICAgICAgICAgICAgICAgICAgICAgICAgICAgICAgICAgICAgICAgICAgICAKICAgICAgICAgICAgICAgICAgICAgICAgICAgICAgICAgICAgICAgICAgICAgICAgICAgICAgICAgICAgICAgICAgICAgICAgICAgICAgICAgICAgICAgICAgICAgICAgICAgIAogICAgICAgICAgICAgICAgICAgICAgICAgICAgICAgICAgICAgICAgICAgICAgICAgICAgICAgICAgICAgICAgICAgICAgICAgICAgICAgICAgICAgICAgICAgICAgICAgICAgCiAgICAgICAgICAgICAgICAgICAgICAgICAgICAgICAgICAgICAgICAgICAgICAgICAgICAgICAgICAgICAgICAgICAgICAgICAgICAgICAgICAgICAgICAgICAgICAgICAgICAKICAgICAgICAgICAgICAgICAgICAgICAgICAgICAgICAgICAgICAgICAgICAgICAgICAgICAgICAgICAgICAgICAgICAgICAgICAgICAgICAgICAgICAgICAgICAgICAgICAgIAogICAgICAgICAgICAgICAgICAgICAgICAgICAgICAgICAgICAgICAgICAgICAgICAgICAgICAgICAgICAgICAgICAgICAgICAgICAgICAgICAgICAgICAgICAgICAgICAgICAgCiAgICAgICAgICAgICAgICAgICAgICAgICAgICAgICAgICAgICAgICAgICAgICAgICAgICAgICAgICAgICAgICAgICAgICAgICAgICAgICAgICAgICAgICAgICAgICAgICAgICAKICAgICAgICAgICAgICAgICAgICAgICAgICAgICAgICAgICAgICAgICAgICAgICAgICAgICAgICAgICAgICAgICAgICAgICAgICAgICAgICAgICAgICAgICAgICAgICAgICAgIAogICAgICAgICAgICAgICAgICAgICAgICAgICAgICAgICAgICAgICAgICAgICAgICAgICAgICAgICAgICAgICAgICAgICAgICAgICAgICAgICAgICAgICAgICAgICAgICAgICAgCiAgICAgICAgICAgICAgICAgICAgICAgICAgICAgICAgICAgICAgICAgICAgICAgICAgICAgICAgICAgICAgICAgICAgICAgICAgICAgICAgICAgICAgICAgICAgICAgICAgICAKICAgICAgICAgICAgICAgICAgICAgICAgICAgICAgICAgICAgICAgICAgICAgICAgICAgICAgICAgICAgICAgICAgICAgICAgICAgICAgICAgICAgICAgICAgICAgICAgICAgIAogICAgICAgICAgICAgICAgICAgICAgICAgICAgICAgICAgICAgICAgICAgICAgICAgICAgICAgICAgICAgICAgICAgICAgICAgICAgICAgICAgICAgICAgICAgICAgICAgICAgCiAgICAgICAgICAgICAgICAgICAgICAgICAgICAgICAgICAgICAgICAgICAgICAgICAgICAgICAgICAgICAgICAgICAgICAgICAgICAgICAgICAgICAgICAgICAgICAgICAgICAKICAgICAgICAgICAgICAgICAgICAgICAgICAgICAgICAgICAgICAgICAgICAgICAgICAgICAgICAgICAgICAgICAgICAgICAgICAgICAgICAgICAgICAgICAgICAgICAgICAgIAogICAgICAgICAgICAgICAgICAgICAgICAgICAgICAgICAgICAgICAgICAgICAgICAgICAgICAgICAgICAgICAgICAgICAgICAgICAgICAgICAgICAgICAgICAgICAgICAgICAgCiAgICAgICAgICAgICAgICAgICAgICAgICAgICAgICAgICAgICAgICAgICAgICAgICAgICAgICAgICAgICAgICAgICAgICAgICAgICAgICAgICAgICAgICAgICAgICAgICAgICAKICAgICAgICAgICAgICAgICAgICAgICAgICAgICAgICAgICAgICAgICAgICAgICAgICAgICAgICAgICAgICAgICAgICAgICAgICAgICAgICAgICAgICAgICAgICAgICAgICAgIAogICAgICAgICAgICAgICAgICAgICAgICAgICAgICAgICAgICAgICAgICAgICAgICAgICAgICAgICAgICAgICAgICAgICAgICAgICAgICAgICAgICAgICAgICAgICAgICAgICAgCiAgICAgICAgICAgICAgICAgICAgICAgICAgICAgICAgICAgICAgICAgICAgICAgICAgICAgICAgICAgICAgICAgICAgICAgICAgICAgICAgICAgICAgICAgICAgICAgICAgICAKICAgICAgICAgICAgICAgICAgICAgICAgICAgICAgICAgICAgICAgICAgICAgICAgICAgICAgICAgICAgICAgICAgICAgICAgICAgICAgICAgICAgICAgICAgICAgICAgICAgIAogICAgICAgICAgICAgICAgICAgICAgICAgICAgICAgICAgICAgICAgICAgICAgICAgICAgICAgICAgICAgICAgICAgICAgICAgICAgICAgICAgICAgICAgICAgICAgICAgICAgCiAgICAgICAgICAgICAgICAgICAgICAgICAgICAgICAgICAgICAgICAgICAgICAgICAgICAgICAgICAgICAgICAgICAgICAgICAgICAgICAgICAgICAgICAgICAgICAgICAgICAKICAgICAgICAgICAgICAgICAgICAgICAgICAgICAgICAgICAgICAgICAgICAgICAgICAgICAgICAgICAgICAgICAgICAgICAgICAgICAgICAgICAgICAgICAgICAgICAgICAgIAogICAgICAgICAgICAgICAgICAgICAgICAgICAgICAgICAgICAgICAgICAgICAgICAgICAgICAgICAgICAgICAgICAgICAgICAgICAgICAgICAgICAgICAgICAgICAgICAgICAgCiAgICAgICAgICAgICAgICAgICAgICAgICAgICAgICAgICAgICAgICAgICAgICAgICAgICAgICAgICAgICAgICAgICAgICAgICAgICAgICAgICAgICAgICAgICAgICAgICAgICAKICAgICAgICAgICAgICAgICAgICAgICAgICAgICAgICAgICAgICAgICAgICAgICAgICAgICAgICAgICAgICAgICAgICAgICAgICAgICAgICAgICAgICAgICAgICAgICAgICAgIAogICAgICAgICAgICAgICAgICAgICAgICAgICAgICAgICAgICAgICAgICAgICAgICAgICAgICAgICAgICAgICAgICAgICAgICAgICAgICAgICAgICAgICAgICAgICAgICAgICAgCiAgICAgICAgICAgICAgICAgICAgICAgICAgICAgICAgICAgICAgICAgICAgICAgICAgICAgICAgICAgICAgICAgICAgICAgICAgICAgICAgICAgICAgICAgICAgICAgICAgICAKICAgICAgICAgICAgICAgICAgICAgICAgICAgICAgICAgICAgICAgICAgICAgICAgICAgICAgICAgICAgICAgICAgICAgICAgICAgICAgICAgICAgICAgICAgICAgICAgICAgIAogICAgICAgICAgICAgICAgICAgICAgICAgICAgICAgICAgICAgICAgICAgICAgICAgICAgICAgICAgICAgICAgICAgICAgICAgICAgICAgICAgICAgICAgICAgICAgICAgICAgCiAgICAgICAgICAgICAgICAgICAgICAgICAgICAgICAgICAgICAgICAgICAgICAgICAgICAgICAgICAgICAgICAgICAgICAgICAgICAgICAgICAgICAgICAgICAgICAgICAgICAKICAgICAgICAgICAgICAgICAgICAgICAgICAgICAgICAgICAgICAgICAgICAgICAgICAgICAgICAgICAgICAgICAgICAgICAgICAgICAgICAgICAgICAgICAgICAgICAgICAgIAogICAgICAgICAgICAgICAgICAgICAgICAgICAgICAgICAgICAgICAgICAgICAgICAgICAgICAgICAgICAgICAgICAgICAgICAgICAgICAgICAgICAgICAgICAgICAgICAgICAgCiAgICAgICAgICAgICAgICAgICAgICAgICAgICAgICAgICAgICAgICAgICAgICAgICAgICAgICAgICAgICAgICAgICAgICAgICAgICAgICAgICAgICAgICAgICAgICAgICAgICAKICAgICAgICAgICAgICAgICAgICAgICAgICAgICAgICAgICAgICAgICAgICAgICAgICAgICAgICAgICAgICAgICAgICAgICAgICAgICAgICAgICAgICAgICAgICAgICAgICAgIAogICAgICAgICAgICAgICAgICAgICAgICAgICAgICAgICAgICAgICAgICAgICAgICAgICAgICAgICAgICAgICAgICAgICAgICAgICAgICAgICAgICAgICAgICAgICAgICAgICAgCiAgICAgICAgICAgICAgICAgICAgICAgICAgICAgICAgICAgICAgICAgICAgICAgICAgICAgICAgICAgICAgICAgICAgICAgICAgICAgICAgICAgICAgICAgICAgICAgICAgICAKICAgICAgICAgICAgICAgICAgICAgICAgICAgICAgICAgICAgICAgICAgICAgICAgICAgICAgICAgICAgICAgICAgICAgICAgICAgICAgICAgICAgICAgICAgICAgICAgICAgIAogICAgICAgICAgICAgICAgICAgICAgICAgICAgICAgICAgICAgICAgICAgICAgICAgICAgICAgICAgICAgICAgICAgICAgICAgICAgICAgICAgICAgICAgICAgICAgICAgICAgCiAgICAgICAgICAgICAgICAgICAgICAgICAgICAgICAgICAgICAgICAgICAgICAgICAgICAgICAgICAgICAgICAgICAgICAgICAgICAgICAgICAgICAgICAgICAgICAgICAgICAKICAgICAgICAgICAgICAgICAgICAgICAgICAgICAgICAgICAgICAgICAgICAgICAgICAgICAgICAgICAgICAgICAgICAgICAgICAgICAgICAgICAgICAgICAgICAgICAgICAgIAogICAgICAgICAgICAgICAgICAgICAgICAgICAgICAgICAgICAgICAgICAgICAgICAgICAgICAgICAgICAgICAgICAgICAgICAgICAgICAgICAgICAgICAgICAgICAgICAgICAgCiAgICAgICAgICAgICAgICAgICAgICAgICAgICAgICAgICAgICAgICAgICAgICAgICAgICAgICAgICAgICAgICAgICAgICAgICAgICAgICAgICAgICAgICAgICAgICAgICAgICAKICAgICAgICAgICAgICAgICAgICAgICAgICAgICAgICAgICAgICAgICAgICAgICAgICAgICAgICAgICAgICAgICAgICAgICAgICAgICAgICAgICAgICAgICAgICAgICAgICAgIAogICAgICAgICAgICAgICAgICAgICAgICAgICAgICAgICAgICAgICAgICAgICAgICAgICAgICAgICAgICAgICAgICAgICAgICAgICAgICAgICAgICAgICAgICAgICAgICAgICAgCiAgICAgICAgICAgICAgICAgICAgICAgICAgICAgICAgICAgICAgICAgICAgICAgICAgICAgICAgICAgICAgICAgICAgICAgICAgICAgICAgICAgICAgICAgICAgICAgICAgICAKICAgICAgICAgICAgICAgICAgICAgICAgICAgICAgICAgICAgICAgICAgICAgICAgICAgICAgICAgICAgICAgICAgICAgICAgICAgICAgICAgICAgICAgICAgICAgICAgICAgIAogICAgICAgICAgICAgICAgICAgICAgICAgICAgICAgICAgICAgICAgICAgICAgICAgICAgICAgICAgICAgICAgICAgICAgICAgICAgICAgICAgICAgICAgICAgICAgICAgICAgCiAgICAgICAgICAgICAgICAgICAgICAgICAgICAgICAgICAgICAgICAgICAgICAgICAgICAgICAgICAgICAgICAgICAgICAgICAgICAgICAgICAgICAgICAgICAgICAgICAgICAKICAgICAgICAgICAgICAgICAgICAgICAgICAgICAgICAgICAgICAgICAgICAgICAgICAgICAgICAgICAgICAgICAgICAgICAgICAgICAgICAgICAgICAgICAgICAgICAgICAgIAogICAgICAgICAgICAgICAgICAgICAgICAgICAgICAgICAgICAgICAgICAgICAgICAgICAgICAgICAgICAgICAgICAgICAgICAgICAgICAgICAgICAgICAgICAgICAgICAgICAgCiAgICAgICAgICAgICAgICAgICAgICAgICAgICAgICAgICAgICAgICAgICAgICAgICAgICAgICAgICAgICAgICAgICAgICAgICAgICAgICAgICAgICAgICAgICAgICAgICAgICAKICAgICAgICAgICAgICAgICAgICAgICAgICAgICAgICAgICAgICAgICAgICAgICAgICAgICAgICAgICAgICAgICAgICAgICAgICAgICAgICAgICAgICAgICAgICAgICAgICAgIAogICAgICAgICAgICAgICAgICAgICAgICAgICAgICAgICAgICAgICAgICAgICAgICAgICAgICAgICAgICAgICAgICAgPD94cGFja2V0IGVuZD0ndyc/Pv/bAEMAAwICAwICAwMDAwQDAwQFCAUFBAQFCgcHBggMCgwMCwoLCw0OEhANDhEOCwsQFhARExQVFRUMDxcYFhQYEhQVFP/bAEMBAwQEBQQFCQUFCRQNCw0UFBQUFBQUFBQUFBQUFBQUFBQUFBQUFBQUFBQUFBQUFBQUFBQUFBQUFBQUFBQUFBQUFP/AABEIAD0BNgMBIgACEQEDEQH/xAAfAAABBQEBAQEBAQAAAAAAAAAAAQIDBAUGBwgJCgv/xAC1EAACAQMDAgQDBQUEBAAAAX0BAgMABBEFEiExQQYTUWEHInEUMoGRoQgjQrHBFVLR8CQzYnKCCQoWFxgZGiUmJygpKjQ1Njc4OTpDREVGR0hJSlNUVVZXWFlaY2RlZmdoaWpzdHV2d3h5eoOEhYaHiImKkpOUlZaXmJmaoqOkpaanqKmqsrO0tba3uLm6wsPExcbHyMnK0tPU1dbX2Nna4eLj5OXm5+jp6vHy8/T19vf4+fr/xAAfAQADAQEBAQEBAQEBAAAAAAAAAQIDBAUGBwgJCgv/xAC1EQACAQIEBAMEBwUEBAABAncAAQIDEQQFITEGEkFRB2FxEyIygQgUQpGhscEJIzNS8BVictEKFiQ04SXxFxgZGiYnKCkqNTY3ODk6Q0RFRkdISUpTVFVWV1hZWmNkZWZnaGlqc3R1dnd4eXqCg4SFhoeIiYqSk5SVlpeYmZqio6Slpqeoqaqys7S1tre4ubrCw8TFxsfIycrS09TV1tfY2dri4+Tl5ufo6ery8/T19vf4+fr/2gAMAwEAAhEDEQA/AP1QZuKYbgLyTgdOa80/aC+Nmm/Az4e3Ou3iNc3srfZdPs48bp7llJVcnooxuJ9Aa+ZvhTr3xl1rxZoOp3k+j6r4K1Oxa71DUtQvA1zbTHd+4CgjGDtA2g8ZycivGzLMFl9Pnav+B1UKCrdbH3Osm76frS559q8K0f4sReEfGGmaVf3ivpGpuYY5JXJ+zTE/Lyedh6cnv1r3ONi3JGPwrTLswhmVH21IwnHkk4j8ijIoyKMivVIDIo3UZFGRQAbqbI21SRyaUsACelcx4s8YHRPLs7WGO81e5VmhtS21UVfvSyN/BGvc9zwOadr7Ab1xqEVnbvPcSx28S9ZJGCgfXNUdP8XaPq1wYLLVrC8m7R29wsjfkD+lfHet/EXxF8bPFN1onw30i0+IF9ZtsvvF2ulhoVi4PKWkGdrspGN53E+p5rnfiB+z7+0B4P0ttes7zwr4w+zgzz6XYaekE2F5Jiwikn0AbPHFbKNPaT1MpOa6H335nI5FP3V8lfsb/tVp8WGbw3q3mW+r2yYWK6ctMhGflLHllPOM5KlSCTkGvrJWO0mspK2hqtVcfkUZFMaQhc9Pr2pQ/wAwHA9qkB2RRkUZFGRQAZFGRRkUZFABkUZFGRRkUAGRRkUZFGRQAZFGRRkUjNxweaAFyKMim7j6flzQrHOCMUAOyKMikLccdaN3zAf0oAXIoyKMijIoAMijIoyKRm445PpQAuRRkUzzD9fwpVfcT6UAOyKMijIoyKADIooyKKAPC/2pv2eZ/wBonw74d0iHWX0JbDUjdy3USBpBGYJE+Xkc7mXvnGcc4r5c8TfDbxt+ybJoNvfarZ+IPD1/I9vDeW0EkIgkADCORCxA3AMevJU96/RR1Bxjr0Htz1r58/bo8P8A9rfs76xfIMto11b6mD1ICSBXI/4C715uY4eGKoNTWyDmlBNxdmeNr4TvviTp8d3NIGV/lUs+D6AD0r6T+FPxBu10210bxPJGmqwoIo7zd+7ugOBk9n9R+NfHHwz+LS6bbR2c0gyyqy7jgEdGH1B9PWvYY/F0d9GSFEm/34x0/P361+SYbG4rJ67jFXgclOVScrvU+uRLnGMHNPDeteT/AAj+JsOsbNFvZT9tQfuJJP8AlqgHQe4r1VW+YDtX69gsZTx1FVqb+R1X7kmRSM21c9aGbCk5/Sub8UeLl0UC1hSO41GVGkjieTYkaL96aVj9yNe7evA5rvGa+patDpWm3V7csI4LeNpHY+gGT/nrXxj4+1vV/wBoD4qH4TeHNQksba5iTUPGutQPhxCMBbGIjoAPlKjqWJPeqPxZ+JHiP4rab4ltfAujyeMotMtpJNS8TXjtHZ2oRSzCygyEJwpw53M/bIOa+a/2d7nU9a8W3etw6RPr6K0lxqcFnetb6ksapHiSAA5dkDMxQZJBbrjFaKPS4r6Nn6t+A/BOi/DrwxY+H/D+nxabpdnGEjhgXaOg+ZuPvHvmt9hgZ7/pXknwv8cX1nqNjomqaidb0zVLUXvh/XJAA9zCQGMM2P8AlqqkEHAyM5weK6fxx4+GkLLplhJAdXaEzPJK4ENhAM7rmdjwqKAcA4JOAM8kJxcWQpKS0PgvxRo7eAv289NvdDiaGz1LXkh2xDCP5gVpQMf7e8kDpg1+lHoD0NfG3wR8Ox/H74/R/Ea0hlHw78GpLY6FdTJtOrXrZE93z1XLPg4HUV9lfdyRUM2b0SPzl/aA/bO+Knw//bDl+H+jazYweF01bTbQW0mnxvJ5cwiMnzkZz+8av0aRQnSvx2/a0b/jYdcf9h/RP/Qbev2LFW9kZrcC3HHNNWTcxGOlVNd1i20DRb/U7xxHaWUD3Mzn+GNFLMfwANflYP2ov2if2xPiLqWm/Cm8n8P6LbBp4rbTZY4BbW5JCSXFy4yzkKcgcAnGKgo/V8uR6Y6fjRux1Ir8lf8AhqT9oz9kH4m2ekfFC+ufEFkwW5uLDU3juVntSxV5Le4TBBGCRnuMFa+pf+CgXx08TeAfgJ4N8WeANfn0V9Y1KDF1bohMlvJbSSKp3KeOAf8ACnYVz7C80jrjPcY5/nTlkLHpge/H6V+T/wAPfjh+1Z+0l4Ig0XwDc30q6LvGp+IEkt7We8meRnRDK+FG1WRQseTgZJxTv2ev2zPi18I/jtp/gz4oarqGr6Vc6iul6haa0oa6spHbakqS9WXJUnJIKnjFPl8xH6wM2BmmNNt+vb3r5f8A27P2tbv9mnwVptn4fit5/GevPIll9pXclrCgHmTsufmILKqjux9Bivjj4Y+JP2zfiFpB8f8AhfVtf1nSlcyoLuS3W3vNpORHbOF3rn5fkAOVI6kYQz9aFk3dRiuF+NHxm8P/AAL+Hep+L/E07RWFoFRIoRuluJmOEjjGeWY/gBkngGvzBtf25vjB44/aA8MRrr194Y0281XTrG88Pxwx+TG4eKK5UB03qGcFip6b8ZOOe7/4K6eNrufxl4F8JK+NMsbCXV3iXgPLI5iQkd9qxSAf75ppCOd1T9vj9oP46eKptP8AhjpH9mwDLx6boenLf3KRk4V5pnUgEjHzKADnjIGahh/bl/aV+AHiS0T4laRNf2Uh3fYdf0pbR5VGd3lTRhBvxkj73TpX3j+xf8HtL+EP7P8A4WtLe3jXVdVs4tV1S6VcPcTzIH+Y9wqkIB2C4Fdb8f8A4I6R8evhTrXg/UykL3UWbO/eIO1ncLzHMo46EDIBGRkd6bsGpj/D39ojRvjZ8CdR8eeEZjE8NjdebazqGlsruKIsY3HQlTtI7MpBHFfMv/BPH9rT4l/tA/EzxJo/jbVbO/sLPRlvYI7WwjgIkMyrklRzwTXffAX9knU/2Vfh38UY5vGK+JLHWdJkcWy2JtxFNHDMC4/eNncrD34HpX50/sl/E7x58P8AxVqun/DHSv7U8a+JtPj0yy+UOYFEokkl2n5eFTG5jgZyelID90fMx1Ix60eaOxye3/66/H/x58XP2sf2ZvFGl3PjbxJrNu90xe3XUZIr2wuyvLxnYNoOGHAII68cV+k3wh+Puk/Ej9nux+KM8bWFounTXuo26fM1vJAG89FBPqjY56EetID1oyH05xxQzHO3Gfp296/J2x/aS/aV/bI8eanafC+9m8PaVZr532XTZo7aK0hYny2nuXG53YDoMZ2nAxUem/tX/tA/sj/FS20H4rX1zr2npsnvdP1J47gyWzfelt7hQDkc9cjKkY6imM+y/wBvbW/i54f+Ful3Hwjh1KS+OoKuqS6NbfaLyO22HHlphiQXxnAPB7DNd7+yjqPxA1T4F+GLr4mwzQ+MGSQXX2mNY53QSMInlUAbXKYJGB1rxr/goh8bPFXwx+DXg3X/AAH4hm0SbVNVjja5tkRzLC1tI4HzqeMgGuT/AOF8ePj/AME0V+In/CTXQ8amTH9s7I/N/wCQj5XTbt+58vSgZ92+dtxnGfb8OnrT9zenNfkj8Jv2lf2nfjhoN94H8D6hea3r4na9vNfkEEU1pbsoVIQ7ARwgsjnux4AI5zmaX+1b+0B+y78W4tL+JWsarqUELxyalo2sulx5lsx5kglHOcBiGU4ymCCDikI/YIMT2wKKp6fqFvq+m2moW8gktbqFJ4nxwysoZT+RopDLnGMZrD8ceFbPxr4O1vQL4E2ep2ctpLgAlVdCpIB7jOfrW7kUyX5oyAcH19Pek4qSsw30Pxw8TeDfEHwp8V3XgfxMpstb06QvY32T5V1GThZEJxuRxj3B4OK7bwj8aptPZdM1RRDdIcFScbvce1faH7dfgDTvFn7PPiPUZLKFtW0WNLuxvjHmW2xIgkKsOdpTdkdDj1AI/N3SfD+q6/4ETVNWtPLso7prK31FTnfMkayMgcdflIP447GvhM1yqFSV0ZUqrw072ufUcHxQtwY7uyl2XELo8bRPh4yOdw9cEZr7M+DPxKs/il4LtdXtpFM8ZMF1H0KTKPmyO2QQw9j7V+R2j6L4+0fR01H/AIRrWtQ0JwTb6hb2MskbKpILLIqkdQev9017N+yj+0V/wrP4pWy6ldyW/hrWHFjfiZCoglPMMrg9CpbnnlZGP8NcmT0auVV+WV+SR9a6eGzDDOeHdpxV2j9PtW1KPSdMvL2bmK3iaVgOpAGSB718y/EnR9f+KnxCtfhxZ3MlhDdQJqvi3VIzgiIN+6s4z6LxwOCSCc4OfdfiVqSxfD/VL6MiWCCJLp2Q5BiRldiPUbQTXOeCb62tfjB4ttX2C61C1tbu0kLZM1ugZSVPcAuPzHrx+lRXNHmjqfKN2l5Ha+F/B+keCfDdro2jWMdjpltHtWBRjIP3i3qT1JNfBnxp/Zf8V/AX4hXHjf4dadfap4Znl86ez0hnN3ZnJYbVX5srnCsM8YDDvX6FtKVVivPGeTx+J7VyHjLxhHptvd2Gn3ENveRQGW5u5uIdMgwS00pyAuBnapwT1AwDUalXurHzNZ+Mr5f2W/C/iq6/tGHW4L+ee1EFqqXp/fOGRYtuAzcjbjGSeOKj8LfCXx5+0VGtt4n0y++HPwvmlFzd6Zcz+ZrPiF+DuvJOqoem3gY4AHFdX8Fb6b49/FS38U6dFJb/AAt8GrLY6E0w51a8I2y3XI5Vfmwcclsjoa+pfLX1P51o5u1iYwUTO8O+H9M8K6TZ6VpVlFp9haRCKC2hUKsaAYAAHtitPjBFGBnP40M2F45rMs/HX9rRf+Nh1xjr/b+iYz9Lav2H8z0+gr8of2xvgH8XfEX7WHifxb4Q8Ca5qlmtzZXFjqVpbq8bPFBFyMns6/pV9fiV+3bwDo/iXA/vaLZ//EVctkQfpR8TPHmk/Df4d+IvFWvhv7H0mylu7lUAJdFH3Rk4JY8YJxzX5y+Df2rP2kP2jPFGqQ/Brwpofh6xtSHnFvZQHyVPMazTz4XeRztVR1Jxgc+ufAvw58dP2gfhV8W/Bfxvj1TSBqdhDbaPc6jYQ2+yQiQlwI15CssZOfevnD4U+Ff2pv2RfEmuab4V8CXuoR37LHOqaedQsbho92yZHRgVOCerdPvZIFK6Qzzv9szTfjTp3iLQT8adTtb7WJLGZ9O+wtCVjh38n90gXlvXnrzX1D+3x837DvwWPq2mf+m968P/AGhP2cf2kviPqeneLfFvhzUPFHiDWrWV3sdJiWSPSokYCOAkHaC24ttGSADkmvp79sr4ReNvHX7Ifwl8OeH/AAtqWr67px0/7ZYWsYaWDZYsj7gSOjkCncD0b/gmrZQQ/sj+GmjhWMzXd88hQYLMblxknucADPoAK+JP2/oRa/t0ExfI0p0d2IOMtlAGP0Cj8q++v2CfBfiD4e/sy+GtD8TaPdaHrEE1401ldriSMNcOy5A9Qc18i/ts/AP4k+PP2v18R+HfA2sa1oIXSx9vtYlaImNl3jJYYxz2pAYH/BW37Qvxu8KclLceGiYm56i4m3EH2BXOPUegr9J/guulJ8H/AAONHWJdJ/sSz+yeSRt8swpjBHH4+teEft9fs56b8evBulT2+u6ToXjTRzJJprapdJBFdxtjzIWJPGTtIPIB68Hj5V+Ffg/9tPwF4fj8C+FLS5tNBfMcNzcz2U9taxt1MNwSx8vkkFckdhmgDg/juNMT/goleDSVQWw8X6YJFgwFNxut/NXjgHzN/wCO7OSK9M/4K6eE7lfiX4K8Q+Xtsr7R5tNFxg4EsUrPj67ZSfopr59vvhvd/C39rvw14UutYHiXVrLxDpf27UIyWE11LLDLMAT1IdmGTzkdulfrr+0l8AtF/aP+Gl54W1aQ2lyri40/Uo0DPaXC5w4HcYJVh3BPeqeyAr/so/Euw+KXwB8EazYTI7x6dFY3kSkFoLmFFjkRsdDkbgD1Vgeldb8XPilovwb+Het+MPEEhj0vSoDM6KR5krfwxoCeWY4AHvX5Z6b8GP2qP2Q/FF8fBWm6pd2lwx8yfQIBqNjdqpO1ngIZkbBOMqCAepo17wH+1l+13qlhpvinSdYh0+CRWVtXtF0uwt2/56mPapdgOcYOSB06iQPt74X/ALXmg/tQeBfiVD4f8P61pCaLo8rT3GpJGqFpYpdqLsdsnCE8+nvXyB/wSNsYbj42eKppI1aS38ODynwMpuuIgcHtkD9TX238F/2ZLD9nb9njX/CWjltW17ULC5lvrxE2te3TQsqhB1CjhVBz7k5r5h/4JjfA34i/Cj4reKr/AMY+DdW8OWVxoK28M+oQhFklE8bbBgnJwCfwoKPUf+CrljBJ+zbpU7xK8sHiG1WNiOVDRTKwH1FZv7D/AMRNK+E/7Ad/4v12N7nTNIu9Snlt0wWm/fYWNc8ZZ2CjPHzDtXc/8FIPh54n+J37PtppHhHQrzxHqi67a3BtLBA8nlqku5sEjgFh+dcj+z1+zj4j8QfsD638MPE1hc+E9d1Oe9Mcd8nzQt54khdgO25Fz7ZoJPEPAf7UX7TP7ReuasPg74X0Pw3ploUFx9msoAkW7JjEs05wWKjPyqB3xzz4D+2VYfGTTPGGlD4139re+IZtKaSx+yNCypbCRsqTEqqPnJPT0r074RaN+1T+yTrutaJ4W+H1/qMGoSjz4Dp326zldRgSxyow2kj1YDpnpmsL9ob9mH9o3x34itPFPizw7qPizxHrVi0s8elxJJFpihmWO2yG2htuG2rnGep6VWgH0D/wUg+X9k34PEDn7VZj8PsD1iNx/wAEgU95Of8AwaGvSP27/hJ41+IP7NPwu0Tw34Y1HW9Y0+4tHu7KzjDPAFsnRi2SOjECsp/g345/4dhJ4GPhbUh4w35OieWDc/8AIRMnAz/c+b6ZqQLn/BI+ziT4P+NLhV2zya95byDqwW3j2/luP5mvH/8AgrxCkPxU8CyIoV20GcMQOu2clQfYbmwPevov/gmb8M/Fvwv+Eviiw8XeHb/w3f3OtmeK31CMI7R+RGNwAJ4yDXln/BTz4I/EH4rfEXwdd+D/AAfqviS0tdGuIZ5tPiDrE5lyFYlhzjmgD7l+DP8AyR/wKepOhWHX/r3joqb4U2N1pPwv8HWF7bvb3lro1nBPDIMNHIsCKyn3BBoqSjrciqOuf2g2k3I0k2w1Lb+4N4GMQbPG4Lzj6VfpOtAHyleab+094q8M+KtC16LwJb2V1azQRXsaTSTTo6sCkcYbaDg4Bc4GcnpXjfinwv8AFPSvgRafCi/+D+l+fd3KwaJPolw7+VMiAtcyFSyqxJZg8kkanL8YGK/Q/wAsHPJ/OkSFUxgZwMVMoqatJCseG/s72fxC8J6Dovg7xF4A0rw1o+l6dHH/AGjputi68ybkufK8tSuWOSc4yxxuFVP2gv2Xrf4t6pZ+ItCvoND8SQJ9nnkmthNbX8G7ISVf7yHO1xyNxByMY998ld2Tk/X/AD+tHlDO7nPTr+lZ1KUKkOSS0Gvd2PIfg74V8a+F9LfR/FcFjfafLuUvHdGUKCMEBWQfK393tmvIPHel6/8AA9rWy1TQ9e8SeBNOcyaF4p8LgzatoCnj7LcRdZIVGFDDOVADc819e+WrcHp3oMY680YenHDx5YPQhxufFT/tveEfsy27eP8AWtcnzgWeleFGhv5D025bKo3uFB9Ks6L8N/H/AO09JbQeJNJvPhp8Jkl+0yaLNMx1XW3znfdMfmw2BkEcivsVNOtUuPOS3iWY8mQINx/HFWQtdLncaRmeHfD+meFdIs9I0izi0/TrOJYYLWEYSJFGAAPpWpkUgQDn8adUFCZFIcEdadRQAxUVcY4x046U44IxS0UAM2gjkmk8tdoHapKKAIxGoYkfePU96BGn169vU5qSigBm0ZznmhlBBA9KfSMNykZI+lAHzt+2J+yRpn7VHhDT4lv10fxLpDO+m6jJH5ke1wBJDIvGUbC9CCCoPPIPyHof7M/7Z3wx0dvC/hfxQq+HocxQLZ63CIo0I/5ZGVRJGOT90KR2Oa/UTaOfc5pFjCqB7YoA+Cv2T/8Agnfq/gL4jWnxC+KerW2ra5ayteWmm20jzgXTdZ55mA8xx1AA68knFfeoUbcE5+tKIwpyOOc06ncBiqFbOTmlwPWnUUgGFQe//wBal49TTqKAI/LQHP4Djt6UeWnTt0/+tUlFAEYjX1zSeTGMYGCBgEVLRQAzatG0cHJ/x/z/AFp9FADNq9+ex4o2jnk+vWn0UAM2L355zzzRT6KAP//Z;" parent="rmpsdoVU6oN7jqYleleH-2" vertex="1">
          <mxGeometry x="30" y="280" width="304.92" height="60" as="geometry" />
        </mxCell>
        <mxCell id="qV9nBuxsTvqUA0ls7C7F-1" value="" style="shape=image;verticalLabelPosition=bottom;labelBackgroundColor=default;verticalAlign=top;aspect=fixed;imageAspect=0;image=data:image/png,iVBORw0KGgoAAAANSUhEUgAABAAAAAFxCAYAAADtW9pAAAAACXBIWXMAAAjbAAAI2wHNrPlDAAAAGXRFWHRTb2Z0d2FyZQB3d3cuaW5rc2NhcGUub3Jnm+48GgAAIABJREFUeJzs3XmclXXd//HX5zoDM4ALCuK+565o7u1ZeVe26F1StmgoOjCDmhTLYMs0dylzRgwLmTOSGlaaSZp2q6n93DK91VxySU1Nc09AwQWYgXOuz++PGU0MheH6nrnOOdf7+XgQEsPn+2Y4MOf6fDdzd0RERERERESktkVpBxARERERERGR8lMDQERERERERCQD1AAQERERERERyQA1AEREREREREQyQA0AERERERERkQxQA0BEREREREQkA9QAEBEREREREckANQBEREREREREMkANABEREREREZEMUANAREREREREJAPUABARERERERHJADUARERERERERDJADQARERERERGRDFADQERERERERCQD1AAQERERERERyQA1AEREREREREQyQA0AERERERERkQxQA0BEREREREQkA9QAEBEREREREckANQBEREREREREMkANABEREREREZEMUANAREREREREJAPUABARERERERHJADUARERERERERDJADQARERERERGRDFADQERERERERCQD1AAQERERERERyQA1AEREREREREQyQA0AERERERERkQxQA0BEREREREQkA9QAEBEREREREckANQBEREREREREMkANABEREREREZEMUANAREREREREJAPUABARERERERHJADUARERERERERDJADQARERERERGRDFADQERERERERCQD1AAQERERERERyQA1AEREREREREQyQA0AERERERERkQxQA0BEREREREQkA9QAEBEREREREckANQBEREREREREMkANABEREREREZEMUANAREREREREJAPUABARERERERHJADUARERERERERDJADQARERERERGRDFADQERERERERCQD1AAQERERERERyQA1AEREREREREQyQA0AERERERERkQxQA0BEREREREQkA9QAEBEREREREckANQBEREREREREMkANABEREREREZEMUANAREREREREJAPUABARERERERHJADUARERERERERDJADQARERERERGRDFADQERERERERCQD1AAQERERERERyQA1AEREREREREQyQA0AERERERERkQxQA0BEREREREQkA9QAEBEREREREckANQBEREREREREMkANABEREREREZEMUANAREREREREJAPUABARERERERHJADUARERERERERDJADQARERERERGRDFADQERERERERCQD1AAQERERERERyQA1AEREREREREQyQA0AERERERERkQxQA0BEREREREQkA9QAEBEREREREckANQBEREREREREMkANABEREREREZEMUANAREREREREJAPUABARERERERHJADUARERERERERDJADQARERERERGRDFADQERERERERCQD1AAQERERERERyQA1AEREREREREQyQA0AERERERERkQxQA0BEREREREQkA9QAEBEREREREckANQBEREREREREMkANABEREREREZEMUANAREREREREJAPUABARERERERHJADUARERERERERDJADQARERERERGRDFADQERERERERCQD1AAQERERERERyQA1AEREREREREQyQA0AERERERERkQxQA0BEREREREQkA9QAEBEREREREckANQBEREREREREMkANABEREREREZEMUANAREREREREJAPUABARERERERHJADUARERERERERDJADQARERERERGRDFADQERERERERCQD1AAQERERERERyYC6tAOIhGRzztyW3Mod8WhbjG1w3xZjY9xH4ozAbOO+D60Hhvb99xLAMVbg/jLYS+AvY7xIbE8R8U/cnob4797Usjid35mIiIiIiEgy5u5pZxBZJ3bOGTvhfjDuBwB7AXsCG5Z3VH8GeBDjPtzuII5v94nTXyrvmCIiIiIiIsmpASBVw87t2IoVfBKLPwn2fmBU2pnAHXgU5yai3LW8bjf65MlL004lIiIiIiLydmoASEWzOfk9yNmRuB8B7JF2njXzHrBbwC8j13O5N7YuSjuRiIiIiIgIqAEgFcjmnrU5pe6xwFFgu6WdJ4Ei5jeC/ZKG7st9bGt32oFERERERCS71ACQimBgFPKfwjke49PU2gGVxss4F4LN9aapf087joiIiIiIZI8aAJIqmz27nrplY4DJwO5p5yk/d4huAD+bpmlXO+gvoIiIiIiIDAg1ACQVNrdtKKXBEyD6NrBJ2nlScjfwP9407Q9pBxERERERkdqnBoAMKGtrG8yohvHgU8A2SztPZfDbMX7gE1puSDuJiIiISAh2fsf6rIhHEOeGE5WGU7INiWw47sPf/B42BFuv9xf4YJxhvf/Nv/8bwG0F5m/csrQcrBt8OcZLOItwFhL5Ijy3CC+9QN3GT3lj48oB/i2LVAU1AGTA2JzTP04U/bjKD/YrI7ueqPRtHz/9obSTZI0V8t998w2IvDuP7/Pmll+nHUNE5O3s3NM3ZWXdpERFcsWfeOOpLwSKVLPs7I4tqIt3JWYbYDuM7cC2xtgEZyQwAhicYsQi8BTwOOb/wKPHsPivDI7u9uOmvpZirrKzrvb/xqODEhXxuNubW34QJpFUmto6aE0qks2ZsTNR9FOi3MfSzlLZ/OPE0Z1WaD+bpXU/9MmTl67510gQzomYb5p2jKpgdjGgBoCIVJ4VuVMwn5aoRqkuAqaGCVT9bP78HIue2gOKB2O2P84ewO7kGI4b2Nt+QeXMK9YBOwI74gY4uEGPx1bIPwzcifEXYrvJm6c+nG7UwGL7JObjE9UwWwL8IEgeqThqAEjZWFtbHaPqJxFF3wMa0s5TJQaDfYthxS9aZ/tEb265Lu1AIiKydmxeWwNLh+4O4BOn3JN2niyx2W0bUNfQlLySj7ezzjrdTzllSfJa1c268k04HcB6YJX0cJ9EBOwB7IFzLOZYIf8kcDVwFd2Db/JJk5anG1GkvNQAkLKwc/J7M6rh58CeaWepTrYtxpXW2X4hdXaKN057Je1EIiLSy9ra6ths8M7EtgfOXpjtDoyGhh2I4hxYFxDgYVTWWl19E7BhgEobUN/TDJweoFZ1c7YAsrA9bntgIjCRhhXLrJC/HPPzmNByo25rklqkBoAEZWAU8ieCnw5Wn3aeqmf2NUr+YZuTP9YnTvtT2nFERLKk92ta+/a47YHZnhh74b47oxp2I+7b3/z2JdAy4GxeWwM0fDNYQedkm9f2Yx/b2h2splSLocBXcfsqhfwT5nY+MT/3E6c+n3YwkVDUAJBg7Cenb8rg3C+AQ/SOKCTbmsivtUJ+Bgu6f+StrXHaiUREapV1nrY1VtcKjAZ2A1uv90ua5gIr1vL6Y4DNg9UzNqW74VigEKymVKMdMP8ROb5nXe3nEZfavfk7z6QdSiSpKO0AUhus0L4fg3O3AoeknaU2WQ74Lps2XGNdbaPSTiMiUrNs0JbAOOAAsrH8uarZ/Pk5sMnBCzuTe2uLUI9bM1b3mBXyZ9vsjq3SDiSShBoAkph15k8AuxnYJu0sNc/5KF5/qxVmjk47ioiISOoW/uNIYKcyVN6Bl54YU4a6Ur3qgYnU+aNWaJ+mBpFUKzUAZJ0ZmHV1fA9jDune9Zoxti2UbrJC/jNpJxEREUmV2ZSy1XZaVnPRncgQsHYWPXGXndOxf9phRPpLDQBZJzZr1hAK7b/B/XtpZ8mo9YD5vasvREREssfO6TgU2K+MQ+xNV/6/ylhfqts+xP5/1tXxPTWKpJqoASD9ZjNnDqNhxe/Ajkg7S8bVYcyxQv60tIOIiIgMuNhbyj6GM63sY0g1q8P9f+jsuNIK7RulHUZkbagBIP1iZ7UNZ1jxD8DH0s4ib5qiJoCIiGSJdbYfwMC8FznE5sw4aADGkWpmfhjYHdZ1+p5pRxFZEzUAZK1ZoX0j6uuvAzs47SzyH6ZYIX9G2iFEREQGhNnAzcxbpFUAsjZ2wnN/7mtOiVQsNQBkrdjMmcPALgPbJ+0s8o6+aV3tP0g7hIiISDlZoWMX4L8HbkCOsHNm7D5g40k12xCz63Q4oFSyurQDSOWzWbOGMKz0e+ADaWeRNXA71QrtS72pRasBRESkNrlPwgZ0Esvw6BSgcQDHrEWvgL0K/hrwau83e+XfP+3LwbpX/SW+DKwHPAe2AcRDIGoA3wAYBGwIbARs3ffjSjCc2K+xwsyPedPk+9MOI/J2agDIu7K2tohR9ReAfSjtLLLWfmRdHf/yCVN/mXaQjLkbfH7aIcovejjtBCKSXTZnxgii6OgBH9j5us2e8R0/afrCAR+72hXjUeX+vNn8+TkWProFNng7zLfDfXuM7YH9cHYHcuUcfzVGQPH3dt6sfX3cpJcHeGyRd6UGgLy7TYZ0gOu0/6pihsddNuf0533iqdennSYzjAd8Qks+7RgiIjUtisYDQ1MYeQh10XjgRymMXd3qRywp9xA+ZkwJeKbv2y1v/TnrbFuPqH5/PDoM/HBg53Ln6Rt5W1b0/NzgCAcfmDFF1kxnAMg7skL7BMxPTjuHrAsbRJT7tZ1zxk5pJxEREQnB5rcNBiamGKHZZs+uT3F8WQfe3Pq6T2i5yZumTvWmabtgpb1wP5vebQhlZp+nq/1b5R9HZO2pASCrZYWOg8Fmpp1DEhlOHP/OZrdtkHYQERGRxBY1fAnYIsUEm1O3/KgUx5cAfMKpD3pzy0l495Y4U4DF5R3QZtjcGbuWdQyRflADQP6DdZ6xGR5fDAxOO4sktjN19ecbWNpBREREEjol7QDgFZBBQvDm1te9edpM8B2BHwPFMg01iFLUUabaIv2mBoCswtraIiz+JWZpdtglKPs8ne1pLpkUERFJxObkPwzsl7DMcwGi7GOdHYcEqCMVwptaFnvTtG9jfiDGPWUa5nM2p+PjZaot0i9qAMiqRtVPAT6SdgwJzJhhhZmj044hIiKyTiImJaxQJOIzwOuJs5gnzSIVyCe03MuL3Qdh3lmWASI/UysypRKoASBvskL7fsD3084h5WD1ULrA5rU1pJ1ERESkP2zuGTsCn0tUxLnMx0+7D7ggQKTP6JDd2uStrUWf0DIR5xQgDlx+bwrtWgUgqdM1gAKAtbUNZlTDecCgtLOUw7BBg9h1+Iiq67q+sOw1nl+6NNTVMXvQXf9d4LuB6omIiJRfsXQyZsnucff4xwBE0U+I4yaSTYJFxPE3gRMTZZKK5c3TfmKdHSsxnxO2ctQI/L+wNUX6Rw0A6bXpkOm47552jHL55l77Rz844IPJ3jwMsIseeyg+6c9/LAUt6vYt62q/1Ce03Bu0roiISBnY3PyGmB2bsMqtPnH6HQA+fspjVshfC3w6YbSxVmj/nje1lPcEeUmNN0/ttEJ+RyDgNX5+uJ17+qZ+/Kkvhqsp0j/aAiDYnPweuE9JO0e51OdyTNjjvVXzWl/S080x119ZGnvDVaXXVqwIXb4Op2BtbWr+iYhI5SsxDlg/UQ3nx6v+2H+aqF6vYbidEKCOVLIF3dOAuwNWHMzK6JiA9UT6rWoeiqSMcvyEGr7y7yvv2S3abOiwqlj+f8NzT/k+888vXvz4w6H3nb2F7cumDXrTIiIiFc3mz8+RfJn9k2yy/RWr/D/NLdcCDyesC8bJNnduTW6dlF7e2lrE7WigO1xVOyxcLZH+UwMg4+ycjiNxPpx2jnI6aa/9K/513l0s8t07/1Q67Kr5xYB7/t+Z8wOb2zay7OOIiIisq4VP/jewfcIqs3zMmFW20zk4xuyEdQG2JF78xQB1pIJ589SHMQoBS77fZs4cFrCeSL9U/IORlI/NmjWEOJ6Rdo5y+tQ2O9heIzap6Nn/hxYv8g9e/qtix713xLGX/9m/z0YU6783UIOJiIj0m3FKwgqL8e6fr/Znou4LgJcT1ofYTk5cQypfHHUAywJVG8zQ4ocC1RLpN+0DzrKG7iaItk07RjmdMnr/ij34z93p/Nu98bTbbyqtKIU962+tGI12zhln+/gpjw384CL9Z3PbhlIcsi3OFlg8ksiG4z4coo3A1wPrXYprPhinDmwZHndj0XI87gZbTORPE/Ms5J7x5in/Svm3VDVsbn5D3Hai5JtjvjkWbY4zBPfhmBn4ULBueq/NegXiIm4vYv485s+DPceInud9TGvwg02kNllX+3vBPpCwylxvbn19dT/jja3LrJA/H5icbAh/nxXa9/OmlpD7xKXCePOUf1ln+/mYBbr5IfoEcE2YWiL9owZARtnMmcMYFgU81bTy7DVipB2yxTYVOfv/7NLX/Lgbry7d9NzTAzbl/58sRxxPB45LL4PIqgyMzvYdIRqN+a6Y7Yn7bsC20LAR5mB9H+l93/PGXyNf5TtwMHvL94Bb36+PsUJ+OXAvxl9w7gS/3ZtanhiQ32gFs8629aD+g2AfwdgXY3ecrXo/j9D7ue/7JBv8x+f/jZ9482P7PveLGmIr5P+F21MYT2P8DeIHiXL388KyJ721tYxnn0jVie1Ekn0FX0mRs9/1I8zn4DYJSDZZ0PtQmPCmAql4kV+MB2oAmO8dpI7IOlADIKuGFU8GG5V2jHL69t4HRWaV9/x/2ZOPxk03X1ta3BPwPJl15l+xuTM6vHH6I2knkez598M++2HRfuD7AftiNvzfD/Nl7ZENAd6P8/43Elmh40E8vpQo/q1POPXBcg5eSezsji2o40jcx2ANB/PW9wfh/ggiYAvMtwDe92YDpxTDqIbXrbPjAfD7gbupi2+p7n+X4q2s0P6JtFO8qdhzp5/U+mraMdaWzT1zJMZXEpb5jZ809dl3+wCf0PJPK+SvAL6QaCTnKJt75hRv/PaiRHWksr244v8Y1fACsHmAajsHqCGyTtQAyCCb2zYUGmp6z9oWw4bZkTvsUlFnXLyyoptT/nx96cLHHqqgWS7LUWQamrmQAWLnnr4pK6PPgX0K+BhmG/X+TIqLYVbhe/auOsi1WiF/H3gnS+su9MmTl6adLDQDo+uMz0B8CjkOwVM9F2g9zN8HvA+AUkTvagG/nsh+z8rua6rpARbss8Bn007xplz9gcBf0o6x1uLi8fQ26BLUiGat3QdGP4U4WQMAGvoytyesIxXMW1tjK+SvIcx7pq1s1qwhPmnS8gC1RPqloh6QZIAU68cCI9KOUU4n7bV/NDhXOdv/b3ruad/nkp8XK+vhv4/xJev88dZpx5DaZvPn56yQ/z0rc8+C/Qz4IrBR2rnWYG+wcxhWetYKHR1WaK/0vGvF2toi6+o4mkL+b3j8vzgfpzLfD2yG2ddwfkNdw0LrzF9nZ89MeiK8VDhra6vDaUpY5kafOOWetflAb5pyM/DXhOOB09R3baHUNLs/UKGIhtJOgWqJ9EslfsGXMur74nRS2jnKaf3Bgxm36+iKeG33lHqv9/vUVZcUn1v6eqVMcb6NDSJaGehQG5HV67uGa9Wl5dVjOPgUsMeskJ9obW3V+HsAwDrz72dUw+24/wLYLe08/TAY41B85WoPdJMasmn94cA2yYrYWf36cLd3Pytg7WzDS//4fIA6UtHicFvDvFTTB3FL5aqIhyQZQC8/cRhmO6Ydo5yO23V0NLy+Ie0YPLz4Jf/QwF/vt26ccbqTVgZAtd84MQI4m1ENd9mcGVW1f9Nmz663rvxZGH8GDkg7zzp6wk+avjDtEFJmnnSSwp5h5PZX9euXLIsuBpJvMQl1QJxUrmIU7mwSY/1gtUT6QQ2ArIn9+LQjlFPOjIl77pvq69rdOe+R++P3XfbL4l8XLazwJ/83bcCw+Mi0Q0jNezztAIHsTRTdZV35L6UdZG3YnBk7U7fsdpxvQsJz1dN1Z9oBpLysMHM02EeSFeFnfSuO1lrvGR92UaJxex1ic/J7BKgjlaonWhyslhoAkhI1ADLEzu3YCvivtHOU0xd22Dnabv0NU3uD++LypX7ENZcVm26+trSsuDKtGOsoHpd2AqlxZrXSAABYH+c3Vsh/N+0g78YKZ3yEKPo/YJ+0syRnd6SdQMrMSkln0FcSFc9dp18Z288Sjg1gREwMUEcq1eTJy4B+NZjema8Xpo5I/6gBkCUr4mPBavqAmm+O3j+11/Tvnnw03ueSnxf/8PQT1TLr/zZ2sJ0zY/e0U0gt82rfArA6P7TOju+kHWJ1elcoxNcCG6edJQh3rQCoYXberI1xvpasCFd446kvrMsv7Ts08O5E4/c62ubmNwxQRyqQ915Z81qYapEaAJIKNQCyxKiK5arr6kObb20HjtpiwGf/X13Rw8Q/XVf68nVXlF7qrvLbXOLoy2lHkBpWWysA/s38R9bZPintGG9l58w4DOdXQH3aWQJZSc/ge9MOIWW0omccMDRRDfdzEv16I8QqgPUoMjZAHalcYd5rxnFNT8pJ5VIDICPsnPzeYLuknaOcJu19wIC/nu948Xk/6NILij97+L7Ku95v3agBIOVjNbkCoJfZGVbIfzrtGAA2Z8ZBxNF8YFDaWYIxHtB92bWr94Yia05Y5lGaWq5PVGFl96+BpQlzgNFs1X3ehry7MDP3FmolgUj/qAGQFTE1fcDbThsOt8O22WHAXs/FOOZHd99W+ugVFxX/8eorVbrkf7V2sK7296YdQmqTN057BajVU9xzwEVW6Ei10WpnnTWcyH5D0pnUSuNo/38tW/Tk54DtEtUwn9u3PHud+UmtrwIXJ8rRa2c62z8ZoI5UGJs1awi9/94HKGa61lRSoQZAZnhN3017yt4HRpENTLP970te8g9e/svi/9x1a1yq9Ov91kn02bQTSE2r3VUAMBz8F9bWlt7X1vqeAljt3S2t/f+1zT3p7H83JZ8XIgpxHGIbABhNQepIZakvhjvfwbUCQNJRl3YAKb/e0/9tt7RzlMvGDUP46nt2K/sbbnfn/L8/EE++7YbS0pXVdsJ/P7h/Cvhh2jGkZj0OvD9QreXAYqD7LT/upnf2ux7YEBhOqNmatXMgoxqagDkDOCYAdk7HocBRAzDUK8DfgL9jvAr++qpvZKONAHDfBPOReLQJ5psD27CuEw85NQBqlc2ZsTNR9ImEZS7xidNfCpHHJ06/wwrt94ONTlbJPmOzO7byk6Y+GyKXVIiouCMe6i2nVgBIOtQAyIIV/ula3ok2cc/3RsMGDS7rGAuWL/MJf7q2dOU/H6/FKf+328+62kb5hNYFaQeRmrS2KwCKwD+AB4GHcZ4mFz+H+9PUsZDl6y/xk07qWVMRm982mAWDt6OO9xBH7wM+ChxEeffHn2bnnv5bP/7UF8s4xiqsrS1iVEO+TOWXAtfi/r9Qut6bv/PMuhSx2bPrqevZBY93xvx9wAeA/Vjze5FX+deKR9ZlTKkCUTSepPvlo7grTJg+Fv0M99kJq+TIxccDPwiQSCpFnNsVC/RWMPaXwxQS6R81ALLA/NBaPYumPpejcfd9yjr7//t/Ph5PuPna0qLuZeUcppJE0PAxwuyDFFmV8fhqdunGwCPgfwH7C2Z/YeWQ+9bmAX9NfEzrCuDRvm9XA1jnGZuBj8MYD7510jFWY0NW1k0CWspQe/U2rf9vnNDnd/wDfCbd9ReEOICv78/z/r5vvwWwmTOHsZ4fgseHAZ9mdfvAjb94a2u1HbS6EHg67RBvynnyg+3KwGbNGkJD4hPz7/Px0/8vRJ43eXwhWAcwJFGdyMbZ/Pk/9DFjAt0bL6kzwp3zYtGjwWqJ9IMaANlwcNoByuXonfeINh0yrCzdjWXFlXz/zltKP33g7mp745mc837UAJByMHuc3rMzFmBcgfM7it239h2+NSC8ecq/gNNsftsZvNQwDue7wBaBR5lgs9tOH7DfV2zjw/V57RmM6YzY/uJyP7j45MlLgSv7vmGdHbsRxYeBfRVn394Pqsbl/3apN03VHvA1aVh5FLBxsiIedvYf8KaWxVbIzweOSVaIrVj05GeA3wcJJhXAPxyo0Ct9X4tEBpwaADXOOtvfg9lmaecoBwNOHr1/WWb//7LgBR97w5Wlx15ZkoUl///J+UDaEaRG2fKHYOiHGbndbWnPivWtDihYof1i4CdgRwcsvyGD6k8AzgxYc7Ws0L4DZh8PVG0+9Yzz46amcjiVN099GHgYONMKM0dD6dtgt6aRRQaCT0hY4DXqowuDRHk752dYwgZAb6FG1ACoCTZ7xibURQcEKvf3QHVE+k0NgFoXRe+jJk+qh8O23dF2HT4i6Ox/MY456/674ta/3FJaGWdv4v9Nxh42N79h37VtIsF4Y+sy4Ja0c7yVN7UsBo6xQv4vwFmEuiHH7WsMQAMAt89hQTL/nKap45JepRaKN02+H/hG2jmkPKzQvh/YgQmrXFiuZpU3T/uzFfIPA0kPUf6UzTlzW5/47adC5JIU5aJPE+wGNVcDQFKjawBrnu+XdoJyOWX0/kFP9n7qtVf80Ct/Uzz1jpuz/fDfK6IU75N2CJGB5E3TZuMcS7gH4Pfa3DN2DFTrnZknPUEdjHsY2T2hUh7+JQss+RaJiPMCBHln5iHq54iKxweoI2kzawxXLLonXC2R/lEDoNY5e6UdoRz23WSUfWSLbYLN/l/02EPxe+fPK976wrN68/sGt5p87Yi8G2+e9gvgtGAFS6Ujg9VaDWtri8CS70n16Ft9WyJEys7OOms48JWEVR708VPvChLoHdX9Egjx9+I4a2vTqtsqZoWOg8HDbY90rg1WS6Sf1ACofXumHaAcJu19UJDX7qLu5X7ktb8rjb3hqtLrK/Xed1VWk68dkTUaucMPgu07Nzs0SJ13MnK9rYENkhWxB71pys1B8oisjcE93wCGJqph8bwgWd6FT5i8APjfAKW2YNP6zwWoI2lxvhew2tN9552IpEINgBpm53dsAWyUdo7Qthy2nn1h+50Sv3b/+MyTvv9v5xV//8/HM7/ef7WMPdKOIJIGHzOmRGTHEmLmzznY5s4dlDzVO6gr7Rygyh8C1BBZK9Z7hm/Sw/+K1MW/CpFnLYTZZuB416/yAAAgAElEQVQ2PkgdGXDWlT8K88PCFdTsv6RLy5FqWbfvEO5aqMrxzdEHRIOidd/+v7y4ku/deUtp9gN3x1rv/662TztAVXE+Z4V8mZejDqAcX/DGaZVzj/kA8/FTHrNC/jwg6T7lYcRL3guU5yo79x0S1zAeCJBEZO10tR+C2a4Jq/zBjz/1xSB51mTkDtex6MlnwLdOWOlQO3vm9n7i5CeD5JIBYeeevime+2nYqq6mq6RKDYBaZmyXdoTQ1h88mGN33XOdZ//vXvgvH3vDlaW/L1msZ/81G2Wdbet5c+vraQepEiP6vtWGlXFD2hFSF9fliYrjSb5a7kDK1wDYgKSdXiu9FCaMyNoIcPif27zkOdZyqDFjStbZPg+zpEvAI3LFE4BTQ+SS8rO5bUMpNVwBbBKw7EusHHZ1wHoi/aYtALVtu7QDhHbCbntHGw7u/3NJyWNm/vXO+CNXXFTUw38/5AZvk3YEkbT0Xdv1x+SV4qTXiL0LWy9xiTinyQAZEHZ2xxY4hycss4hNll8ZJNDaiut+DgTYLmjHlnVLkARjbW11FBt+BRwUuPQv/aSTegLXFOkXfdGvZeab47WzB6Auijhxr/3WqWnVUypx5I672JE77jKgr/mSx3Tce0f880ceqM5zBkq2FfBQ2jFEUuM2H/NPJqxRzgbAkOQ398WbBYkisiY5Px5I9gDsftFA31jhJ05+0gr5G4CkV25uRnHJ4cBvA8SSMrHzO9ZnVMNvgE8HLl2kFHo7gUj/qQFQyzzokqXUjdlhl2irYeuvU0djaN0gtlt/wwHthjzz+qt+/E3Xlv70/DPVvOKgdpa0i6yLOv8jpcRVku53fhe+PHkNUwNAys7a2iJGNYxLXMhzFwSI03/GeXjiBgDgjagBULGs0L4D2KXAPmUof4nOgJBKoC0ANc1q6uHtpHWc/U/DZU8+Gu//2wuKVf7wD2oASMZ547SnMZ5NWGbTsi37dZYGqPLeADVE3t2mDYcCCbeV+f0+cco9QfL0V0P35cDLiesYH7ezZ+qQ3QpjbW2RdXWcDHY/5Xn4X475d8pQV6TfquaBStbJxmkHCOWjW25j+4/avOL3Myzp6eYb119ZOuq6K0qLe7rTjpOcWc28hkTWmfO3hBUiViwpz4qsiFcCVPmYzW1Ldie7yJq4BZj9Z17yIOs49NjWbtxDXD0YkSsdH6COBGBg1pn/HKMabsf9J8Cwsgzk3uETWv5Zltoi/aQGQC1zr5k3dKeMPqDiX6s3PPeU7zP//OKvH3+4Ovf7r1btvIZEEkjaAIC6eNMAOf6T2RMBqmxAPOS4AHVEVsvmnjkSPOnhfyuJ6i4MEmhdWd15gSqNtbY2bcNNkZ3fsb4VOo6lkL8H4/fAAeUbzZ+irqejfPVF+qfiH6okAWNw2hFC2GX4Rvaprbev2Ndqd7HId+/8U+mwq+YXn1+6tNqX/K/KrCZeQyKJmCdvAMRlOpPF48fC1PHTrat9uyC1RN6uVPo6JHxPYlztEyYvCBNo3XjT5Ptx7gpQagtGNnwmQB3pB+tsW8/m5A+3Qvs8evwF8PMpz3L/t3Iib/bG1mVlHkdkran7WNOsJq6ambT3gVFklbn6/+HFL/kx1/9v6b6XFtbWg/+bvD7tBCKpK0VPESX8K+42JEyYt3mx52lGNSwBhiestD7OPJs791BvbFwZIprIWwRY/m/zkscIwPw8sP0T14k4AbgieSB5JzZnxgjMDiCKDsD9o1jDB3snxwb0PeVpPn761QM5oMiaqAFQ26q+ATBqyDC+8p7dKm72393p/Nu9ccvtN5V6SsmPCK9YXhurSEQSsfjVxG8YzRvChFmVt7bGVsjfBByRvJp9hNLii23u3KPUBJBQbM6Mg4iiPROWWUhu+FVBAiWVs19T4kwg6Ra5T1nnaVt783eeCREra+z8jvVZyoZENooo3hRnE4xtgO0wtsPZgSjqPWzR05qjsWtYsLw1pcFF3pEaALWt6t/ANe+xTzSkrrL6GM8tfc2Pu/EPpRufe6pGZ/3fwhjQu5ZFKpL7KyRehWTlW03j9kfMAzQAAPgCpcUX26xZX/dJkwJcMSiZl4vGkfyr5cWV0pTyxmmvWCF/GfD1hKVyRIOOA9oCxKps8eLbrZBf11fBRn3fD6e3E7sBkAP6nmL6yr71n+jKeHf2GIMHfc1bp9bQuVBSK9QAqGm+coCXOQXVkKvj+N33qajZ/8uefDRu/tN1pZe7s/K+2HrSTiCSOqt7FRK+hzMv32qaUmk+ddGZQKhVBl+gYcUDdk5Hk4+f+sdANSWDbObMYQzjqMSF3H8ZIE5AfgFY0gYAOONs/vwf+ZgxNbyUEHD2TTvCgHIeIbaP+7hJya+NFCmDinq4ksC8umdvv7HLntGoIUMrooPx6ooejrvx6tJR112RoYd/wL2qX0MiQZSWJT+8yct3kImfNH0h+PzAZXck9uuskL9Qd5bLOhsWfwlYP1EN5xFvbvlLmECBLOi5AXg6eSHfmpcf/2TyOlI57EEGlz7qJ059Pu0kIu9EDYBaZla1J44acOJe+1bE6/P2F5/zAy+9oPirR/+WwWVc1fsaEskUizuAcswifpVc6e9WyJ+rRoCsg+SH/2G/Sl4jLG9tjbFAqxLi6IQgdaQS3EEud4gff+qLaQcReTfaAlDbFqUdYF19drv32C7DR6Q6+78yLpG/947SaXffFpdSO0AmdS+lHaBqGPN8wrRj046RNQbG7BkjyeVGgo/AbCQeD8H6Zh3dhmC+vO+DXyK2FzF/niE9z/vY1u40s4fkE0590Aod54E3lqH8IGAcudIx1tl+CRad7U1Tby/DOFJDbO6MXSH6QMIyThRfGCRQaJa7AI9PJfley8/a2R1baMa4qjnwE0Z2T/MxrVo5KRVPDYBa5rxcrUcATBq9fy7N8R9Z8pJ/4/orS/cuWpDZJ38A3Ku2iSS1xebOHUT88p7E0b6Y7wn+HrAdge2pixr+feqTs8qBffbm//R+yBs/Xt6AFfIvgz+LRX/D4/vA7sf8YSa0POWVcoxUfxRL3yUXHY6xaZlGGITZ18C/ZoX83WBz6B50sQ4LlNUq5Y5L/NfIuMUntPwzSJ7AfPyUx6zQcRt40iZHHTkfC5weIJYMvCVgx3rT1MvTDiKyttQAqGWRL8KrrwOw/6jN7IObb51KcHdnzt/uiU+9/U+l7lIxjQiVZnHaASSbbNasIQxd+UFiPg5+CLAP2GDsjQeKIP9EbAy2Me6jwb4CgBsU8q8bPIzzABF3Ujf0ocSHAA4AP2n6Qus643g8/j3lPwF2P/DzaVgxy7ryl0B8gU+YfmuZx5QqYXPnDsL9mMSvwpiKW/6/qngeWNIGAMDx1tbW7q2tlf8Pjfybcwl1TPHGqQHOgxAZOGoA1DK3F9KOsC6+tfeBqez9X7B8mTfefE3p6qf+UX0zf2UT6X5iGTA2a9YQ6ns+j/FVGuy/iIOdat9f6wEHYByAc1w1PPy/wSdMudIKHR3g0wZoyA1xToDoBCvkHwUuoGTztJw54+KXP4tZ0pUo3ayoD324ZVjFnkuoa/gJMDRhpe3ZbMjHAd26UR3uhmiSN0+5Je0gIuuiIg5ZkzIxezLtCP21zfrr2xHb7TTgr8vL//lYvPcl5xf18P82yyJ1taXsrLNjN+vKz6VhxYuYXQz2ecJdaZc9TVOng/0mhZF3Bk4j509ZIf87K+Q/bW1tep+RRW7JD/8zrvRTTlkSIE3Z+Emtr+L+uyDFYnQYYMXz+zE7hgXdB3qTHv6lemkFQC2L/alqOwPgm3sdENVFA/d+8bUVPbTcfnPpZw/fVz1TfAPFeNEnT16adgypXdaZfz/GqRiH4dX2r1XlcnDLDT+a0hLAv5xChDrgCOAIRtU/ZV0d51HkPK0KyAabe/rmkEt+tZ1bmFP2y82YB3wteSH/vM2ZMcInTtfhu5XFgWvAf+xNLf8v7TAiIagBUMvq6v9BqSftFGttg8H1HLPLHgP29H/ngud97A1XlR5/ZYlm/VfHvepWkEh1sLn5bSiRx/gy5d+rnkne2LjS5s//GoueWARMTC+JbYv7/5Dj+9aVv5xSPNMnTr8jvTxSdqXo6yR/f7mIkcuvCRGn7Bb03MCoIc+Ab52wUj1R9FVgdohYktijwCXk4gu9cfojaYcRCUlL82qYN57yAlV0jdv43feONhxc/lW/xTjmR3ffVvrI5RcV9fD/buzBtBNIbTEw62r/NiUeAY5CD/9l5WPGlLxp2omYjwPSvvKwDudIouh2K+RvsULHEdoeUKtsbPISfkm1XKfmra0xFv8iUDldJZuuh4DTidjHm6bt4k3TvqeHf6lFWgFQ+x4EPpJ2iDUZFEU077lv2d8MPrrkZR9741Wluxb8Sw/+a+KuBoAEY3NP35xi7gLMDk07S9b4hJbzrTDzLij9Atg77TzAB8E/yKiGx6zQ/mOG9Mzzsa1pNygkAJsz4yCiaPfEhTyqjuX/b7DcBXh8Ksmbmu+1zjP28eYpfw0RS96VAw9jfhPYzcTRn7x5yr/SDiUyENQAqHXGA3jlNwC+/J7doi2HrV/W2cCLHnsonnjLdaWlK1eWc5jaYf5A2hGkNljnGftguT9gbJZ2lqzypsn32/y2A1lYfypm06iMQxZ3AiuwvOH71tl+BnU953hj67K0Q0kCUW5s73NVIo/RNLWqton4+CmPWaHjNvAAVwKWjgW+mbyOvMUrwN9wHsB4AKIHGVz3gI+b9HLawUTSoAZArXPuSTvC2vjm6P3LNvu/sHuZj7/52tKV/3xcs/5rLyYX3Z92CKl+VjjjQ1j8v8CGaWfJur4l1T+wQvsvMPsxzuFpZ+qzOWY/Jm74lnW2T6W55WIP8BQpA8vmtTVAw1EBSv2qKv/83S/ASN4AMPuazZ491U86qXoOcUrPEmAxxmJgMc5C4HnMnqLkT0H0DHHxGT9p+sKUc4pUFDUAap7fVunbbD+x1Xa294hRZQl53TNPeuPN1xSfX/p6OcrXLucBb5z2StoxpLr1nfJ/LTAk7Szyb97U8gRwhBU6Dgb/IfCJtDMB4GyF2UV05SeY+7F9OaVadDccAQwPUOnrVsh/PkCdgWXB/p0bQW7554DfBqqXvjg+mMiK614geh3i3uWbg+KlrIxW0NSypCobRSIVQA2AGudNLU9YV/4FnM3TzvJOThm9fy50zeXFlXzvzltKP33gbl3vty4ibk07glQ3O3vm9uT4HXr4r1jeNPV24NDeLRreBP41YFjauXA+DHafFdoneVPLuWnHkbXkjA1UaadAdarZsdRSA2DQiHu8sVH7L0UqhE7gzYKY29OO8E523WhjO3Sr7YLO/t+14AU/4NILinr4T+S2tANI9bLOtvXIla4ERqWdRdbMm6f81ZumjifHlsDJwMNpZwLWA/uZdea7bO7cQWmHkXdnszu2olJWktQC80/a2R1bpB1DRGqTVgBkgfkfwf477Rir8+29D4rMwjz/F+OYs+6/K279yy2llbGe/ROIofumtENINaufASQ/CXztLKD3tpMnged6f2zP4b4I8+XE1k3kywHI5YxS6Y0lyhsR+WA82hr3bcG2BbYDdgFGDFD2itK37We2wdl0dnyUyJv7zglI7wHcGE9p8U7W2Xa4N7dqL1elqvNjgOCr+TIs1/c5bU87iIjUHjUAssDq/4BX3nW6o4YM48s77hpkFcrTr7/qY2+4qvTnF57VfrDE/C6f0Log7RRSnWxO/sNE1lzGIVYA1+J2BXF0g584+cnQA9jc0zfH6/bEfT+cI4ADqfTDVAJycJqn3gjcaGd3bEEdJ+B+ArBlSpE+BkOus7POOsxPOWVJShnkHVjv341vpJ2j5jjHGuS1z11EQlMDIAN8wqTnrJB/iIGbkVsrJ+61b66hLvlL8KLHHopPvOWPpddXVl6Toyo516YdQaqTtbVFjGroohzby4xncf8pcK43tSwOXv8tvPHUF4AXgD8C7TYnvwcRD5ZzzErlJ059HmiztrbT2LT+cNxOBD464EHM30d9z+9s7tz/0l7iCtM14/0Q7Zx2jBq0M10z3s+E6TqTR0SCUgMgO66gghoAQ+sGccJueyd6SFjUvdybbr4mvuKfj2u9f1C5/007gVSpUUM+D75b4KqLcH7EyO5C3zV2Ay/ufoaoIZWhK4W3thaBS4FLrev0PfG6ieBHM7CHBn6U0pKfAk0DOKasiefGapK6TDw6FnQor4iEpUMAsyJXWafJjt1lz2hEw7ofDn79s//0/X87r6iH/+Ae9eYpf007hFQrnxK2nl3DoNKe3jztJ6k9/Mt/8AmnPuhNU5vIsSXu3wJ7ZiBHt0JH9V0RV6NsbttQ8C+lnaOGfclmzkz/Zg4RqSlqAGSEN057ALwSTnYmMuPk0fuv02uvu1hk8m03lA67an7x+aU6D6oMLkk7gFQnK8wcDbw/WEH3n7Jg+Wf8+FNfDFZTgvLGaa94c8sscsN3xP1YnEcGaOROm922wcCMJe8qHvJFQH8W5bM+w+Ij0w4hIrVFDYBMsflpJwA4fLv3RDtsMLzfB2r97eVF/oHLf1n86QN3x1psWCZeGa8RqUalcLOybmd6c8s3vbVVK3yqgDc2rvTmlnks7N4Dty+C31/mIbckVz+5zGPI2nAfm3aE2hcfm3YCEaktagBkiQ3+OXgp7RiT9j6gX6+72J05D94TH3TZL4oPvLRIz/7lYvyfN0+tiFUiUpU+G6jO5SxcPjVQLRlA3toae/PUy1jQ817cjy3r1gCzk+2ss4av+QPXQVwK8XWm5s9YsjlnbksaB0Jmjn3YCu07pJ1CRGqHGgAZ4hMmPYdZqie8HzBqczt40y3Xevb/mddf9U9eeUlx0q3Xl1aUUu9d1LaY89KOINXJCu0bAQckLuS8SK7uBM38V7feRkDLPLoH7YIxHVhehmE2ZHDP8WWoC9Qlv2XABvRwxHRY6evofeRAMCw6Ou0QIlI79A935kTnpjn6lPcetNavucuefDTe/7cXFG9+/mnN+pffKyzLXZp2CKlWuT0J8fXE/Pve+O1FyfNIJfBJk5b7hGntRNHeGH8KPoB5eR6KPA5wzaAPTV6jwpkfk3aEzHA/2qDfWydFRFZHDYCseXHZ1cDjaQy9/QYb2Oe23XGNr7lXVnQz9oarSkddd0VpcU/3QEQT41yfPHlp2jGkSlkc4orRV1lad2GAOlJhfPyUx3ix+5DeGwMohqtso63r9D3D1esTWfKMXtsrAOycGe8Ddk47R4bsSOGMD6YdQkRqQ83vUZNVeWtrbIX2n4L9dKDHPmX0gVHO3v35/8bnnvLjbry69NzS1zXrP2B8JXXRnLRTSBVz9khexK5VE6p29W3rmGVd+YdwLgcawlSu+xjwYJhab4hXJp5sdavpBgBx7hgI8mX6KrBlIQpVJHPD+SJBZu/9GOCW5HVEJOvUAMiiXM8vKDV8Hxg5UENuVN/A0Tvv8Y5P/93FIj+657bSzL/eGceuZ/+BZb/x46c+m3YKqWa2WeKHAfc7w2SRSuYTpl1rc/JHEfE7QjwUxf4BIHBDO/c6JDyGwmp3C4DNnl1PnX85QKknaZr2OQ/USahUVsjfSpArUn2MzZp1sk+aVI4zNUQkQ7QFIIO8sXUZ+E8GcswJe+wTrTdo8Gp/7uHFL/mHr/hVsePeO/TwP+C8BJZPO4VUvfUTVzB0A0VG+MRpVwCzghQzDgxS562GLlsSoEryvxOVqm7p54GNEtcxv6jWH/4BMPt1oEobUt9zRKBaIpJhagBk1dK6szFeHIihBudyNO2x73+81rzver8DL72g+NdFC2v/TUBFsgu9aerf004hVS9AAyAO8dAl1aLefoAH+Rq0lc2dOyhAnTf52NZuIOkBNFvU8KFtYQ7/M78oSJ1KV1ecD4S5xsgiHbwoIompAZBRPnnyUjw+cyDG+up7dos2GzpslTdCzy19zT911fzipFuvL/Xoer+U+EoG5U5LO4XUAk++39mi1wMEkSrhx019DeOcAKXqWPHqVgHqvF3ShlQD554+KkiSCmJdM0eBfSpAqXt9/PSHAtSpeH78qS8C1weqdqjNPX3zMLVEJKvUAMiyISu6cH+y3MOctNf+q7zOLnvy0Xi/315QvPG5pzTrnyazc/z4yWX/85dMWJG4glt9gBxSTaL4N0Hq1K3cIkidVVjy6yhLtkOAIJXF468S4vwo84zd+GEXByqUo5j7WqBaIpJRagBkmI9t7caiaeUc45PbbG97jdjEAF5d0cPEP11XOuq6K0ovd+sMm1QZL1OKNfsvoQQ4vT9eL3kNqSZ9M8ALEheKy3LifvKDUT3aJ0COCuPfCFAkphiF2hdfHXJ+Gcm3lfQyC/FnICIZpgZAxnnT1MuB/1eu+qfstX8O4I4Xn/cDL72g+LOH70t4tLIE4f59nzj9pbRjSK3w5A0Aj7YOEESqjfFI8hpR+BP3zZ8JUOW9AWpUDCvMHA0kb2oYN/qJU59Pnqh6eOO0V3D+EKjanjbnjH3D1BKRLFIDQMDt2+A9ocvuNWKkfXiLre1Hd99W+ugVFxWfePUVLfmvBO53MXLH89KOITXEoteS14h3CpBEqo2TfKm9x+G3j3iIFQB8JECSyuFxmAPo3DK2/L+PebhVD7lAfxYikklqAAjePPVhnI7QdQ/bZkf70OW/Kv7PXbfGJV3vVymKkGv2MWN08qKE4/E/k9ew9yUPIlXHKSauEeUCbEH5D08EqLGznT1z+wB1UmdtbXWYh9h73t23HD57uuuvBJI3SwGcr4S+/UJEskMNAOm1sCcP/C1kyZl/vTO+Z+ECPflXEvOZ3jzlr2nHkBpjPB6gysE2c2Y59nJLZUt+n7wHeqh6K/MwXw+j0pggddK22eD/AjZLXMe40hunvZI8UPXxSZOWg18eqNwoSks+HaiWiGSMGgACgLe2rsD8OEKc5t1Hs/4V5yGW189IO4TUoJKFaAAMZWjpiwHqSDUxdklcwwn/QNnQ8zAh7m43xhnYmj+wwsU5Lf8PwgIefujaBiAi60QNAHmTT2i5F/fWtHNIWXST4+jeGQiRwBoGPwgkP+Az4pvW1qavSxlhne3vAbZJWMZp8H+EyLNK0bGt3UCIujtT6Dg8QJ3U2FlnDQcP8XtYzMjlVweoU71yG/0/CHDuRa/P2nmzNg5US0QyRG+0ZFULe2YBN6QdQ0Lzqd447YG0U0ht8nGTXgbuT16Ifdl0iO64zoqIsQGqPO/HTQ2/BaDXrYHq/NDa2uoC1Rp49d1fAhqSF7L5PqY12CrDauSNjSuB+YHK1dOz8qhAtUQkQ9QAkFV4a2uMdR8D/lzaWSQQ90u8qaUr7RhS44wbg9Rxn22F9h2C1JKKZV2nbYnbiYkLOQ8FiPMOtf3aQIX2ZJP674aplYYozFLz2DO+/L9PzMXBapm2AYhI/6kBIP/BJ7QuwKIvl+NqQBlwD7KsbnzaISQDnD8GqrQh2DXWedrWgerVPJs9u94K+auts32szc1vmHaeNbF5bQ1QdxGQPGtUxhVr9fV/JMQ5AABm37HOji8EqdXfodva6vq2W/T/13a2vwf8/QFiPM2i7j8HqFP9FnX/GeyZQNUOskJH8nM0RCRT1ACQ1fIJU+8EJqWdQxIwXiYXjfHJk8txRZbIqhZ0/xF4PlC1nbBBt1rhjA8Fqlfbotf3AT6N2c8p8S/rys+3rvb/ttmz69OO9nZ21lnDWd5wOc6Hw1QMNUu/msrjJr2MBdsGUIf5xdbVflygemtk55yxk3XmZzCq4WnMfr5uRexoghxiaL/21tbk54TUgL7PQ7hVADoMUET6SQ0AeUfe1HIuxqy0c8g6WQH+VW+cEvxwLJHV8dbWIjAvYMWtIb7RuvJzreu0LcPVrUFRdOBbftSAcyRul1G37F9WyJ9rXe0fq4TDFa0z/znqe+4FPhmmoj/FhJbyXmvqdn7AaoNwO8+6Oi6y2R1bBaz7Jps1a4h1dRxthfabiOO/Y7QAmwMH9Lch1Hd7wdFBgpW0/H8VUcjPhx1dCX+/RaR6VO+hNDIwJkxrodC+OZgOmqka7lg03idM02GOMsD8PLCphPvaksM5Aeq+YV0dl4JfQEP3zX0ntMu/HfgO//9wYBxu4xjV8LwV8pcSxdfw2qCbB2plkM2cOYz1Sl/H7USMPcNWj85xKO99s7nl8yk1/IQQ2xXe4P4V6jjcCvlf48xjkx3+z8eMWeetBtY1cxRe+gTuh9Fgn8EZvppJ+3pyyw4A1n4ZfuGMDwPbr2uuf/P7/cQWHUL7Fj5+2n1WaL8fbHSAalszcsghwPXJa4lIFqgBIO/Kwa27fjwNKzYHPpJ2HlkbPt0nTNVsiww4b2p5wgod54M3Bi49GPevAF9hecNSK7Rfj9nVxH4PdfaoN04Leg+8tbVFbDxkCwb5HsTsTd2Qfcv9nJnQQWvxMVsAJxFHJzGs1GOF/G1gd+HxQ+SiB7HlD3lj67KkQazQvhGx7UXERzE+zDDehzO0DJ+/Hiw6L3TRt/PG1mXW2X4BZicHLj0UGIcxjkVPLLZC/nac+3r3hseLiexlsMV4XCL2OiJbH2wQ2CjMNwc2w9kV2IveP1uwNazUj/gg/WkAeHxMiMX/uOnr0eq4/RLjjCC1Ij8GNQBEZC2pASBr5JMmLbe5bYdTargS+GDaeeRdmP3QJ0z/cdoxJMNKtJHj6/Q+4JTDMLDP43weMyiBFfIvAI+ALQBeAX8d8+U4b7kezjYAy735Q/fhWN8Tk7kRMxJjU4xtGNWwKfggnL6J1Mp9+O+7B7y/B7zVA4eAH4IZxA40YIX8S8CL4AvBngN7Hec1jGLvobDe1yCw9XofRn0DjDrcN8dsW5xtwTZ4c3NhWT9tdpZPmLygnCO8qS5up5Q7nvK9pjcCPo3xad540Tm8+d/RW5/CE6x5cP/A2n7o/2/v3mP9rus7jr8+v0Npi8wFrUxRJ+JcnEAMiZcAAAz4SURBVGKiThPHVLYYweG8spoZNTNe6jkHamCjPQWSnVSn4wCLJJXCTvyDZU7/cHPihXndnGxzRuNQcWZzzqIBFNuuyqWn5ZzfZ3+ciqgtvX17vqe/z+ORnNCkh8/n3dPT9vye5/v5fsvs5pNSVv3BEe70YMNk/gMdrDN6huX9GatXJBk76Pse3Pll6+YL6uT0PR2sBYw4AYBDUtdN31eu2fyqrFz1ySTP7Hse9qPk3XV84zv6HoO21Qs33lGum3lnkncu4baPWXx70Cujur9vXT7o5x/8wv6BF/pZzq/19+/+vc9JJzdpS5I8cvHtQR+Mn1n5516IPvCfstQftzuzcuk+v+q6y+4s1125JalTS7XnsVHOKkk5pIQwXP3KpD786PesN9fJy7u64/1IqRduvKNsnfnHlLyog+UelrL6/CR/1cFawIhz0xAOWb1oelf2zJ2bki/0PQu/4Ko6PnWcf3HKyFhzxkwO51JjjkI50Pn/UVWTMlnfuPHug79rl4YzSe5c2j0794hcO/PUQ3rP2tGd5V3+/9AG5a+7W8zTAIBDIwBwWOpF07tyz9h5ST7T9yw84O11YuryvoeAn6hr1y6k1Ncn2dX3LCOv1kM5/z9CytV1YuOHl3rXOrHp/5K8Zan37dzYwY/x7Xvqxgs72G1PSv3bDtYZXcPdf5+kqxty/k6ZnfnVjtYCRpgAwGGrl1xyb1bPvSrVP+z9qven1nV1YurP+p4Efl4d37QtGbwsye6+Zxlxz+l7gCVTy025a/dlvW0/MfXxpLy3r/07cSj3Aahjr0sX59JrbtoXTjiAxTP79UMdLTfIfOnmsY3ASBMAOCL1DdNzmdz02pTizHkfSu5Ozfl1ctMNfY8CB1InNtycMnh1kvm+ZxlF5borzkhyat9zLI3yiZy0+/w6Pd3v59Lq3euTenOvMxyVcgg38h28rpOtOn3W/QireV9na5X6R6W7e4IAI0oA4IjVpNbxje9IresW7xDNkqj121nIC+rkpk/0PQocTB3f8LEMhi9PssRnthtQm/nu//syv/oV9Q3Tc30PUt8wPZcTV74iyX/2PcsReuK+S/z3q/zllc9O6pkd7LMrq/Z8vIN1Rt+jnvTZJHd0tNqTc92VjR0LAg6XAMBRq5Obbkgde36SbX3PMvJKbkrJWfWCqW/0PQocqvrWS2/KQn47/o7o1qCM+hf6e1PK+jox9fq6fv2yicz1TRfvTJk/J8ktfc9yRIZjB74KYNjVzf/yoeUQbI4Hde3ahSTv73BFNwMEHpIAQCfq5IZbMjZ3VpJP9T3LiJpPzZ9mfOqVzlRyPKoXTn09Y3lGkuuSDPueZyTUkX4CwJdS6nPr+Mb39D3I/tTxy29PnXt+Uj/W9yyHrZT93gegfHDziUle08keLv8/TGMdPg0gf1i2bFnZ4XrAiBEA6ExdN709E1MvTepkkvv6nmd01NtShi+qk1NXHNLzm2GZquumflQnpiZT8/wkX+x7nuNf/XFGL6ZsT3Jh7pp7bh3f9B99D/NQ6uT0PVnzpFek5NIkx8t3uxcO+DPbV5+XZE0He9yeH+z5XAfrNKNOXPK1JF/taLlTMrb7pR2tBYwgAYBO1aTWiU3vTVl4Xmpn/5g1qtaU3JC7B8+q45f+a9/TQFfq5NS/1Ymp56bkxUnxuX2E6sTUeanzpyd1U1K/1vc8R+n7KfWS3Dt2ep2YurZOTx8XYaOuXbtQx6euSMozUvL5vud5CLen1ndkLGfUiam37fc9ameXjn/gePn9W1ZK7e4qgOIYAHBgJ/Q9AKOpjl92a9m8+bdy6qqJJG9P8rC+Zzqu1Pqd1MGF9YKNn+57FDhW6vjUJ5N8smy96hkpwzcmeW2SR/Q8Vhe+m1puTcnXF1+Yj92aEx7+zWOxUZ28/HtJZpLMLD4VoLwkye8nOTvJcr8MeCEpn04d3pCT9tx4PJ8ZrxMb/yvJ2eX6mXOTXJaaF/Q9U5L/SfLh1NyYR53xhX1nzferzP7FmpS8pJNd68Dl/0difvCBjNWZdPEIxuTF5fqrT63jl9zVwVrAiBEAOGb2Pa5pS5m96qYsLFyTlHP7nmn5q3uSck32rHxXvfhiz09fKqV8NMkvH9Uaw3ypm2HaUyc33JLkbWXLlg0Zu/fslPJ7Sc5L8us9j3Ygd6dkW2q2JfveatmWMrwte1Z9u1500a4+hqoTm/43yZYkW8rWzScnq89J6ktS8rtJntjHTPtxT0o+m1o/kbLw0Tp++e19D9Sln0atmbNSsjbJy5KcsUTbzyfli0m9KcPceFg3i10Y/kZSbjzqCWrdue/PM4epXrjxjnLdzExSntzNivNPTXJ0AaDkG6nlg0c9yimnuCJkKZX6lWRwdL9vpd7b0TQsQ6VWR4pZGuXad70wg7Grkzyt71mWqY9nxdgf1zdf8p2+B4HloLznytMylmcn9TlJfjOLQeAJOTbx+t4sfrH8g6RuT8oPU/ODpN6VwWB7hsMfZqzcmRNO/F5908U7j8H+x1TZ+s7Hp5xwdpKzkjwlix/LAz4OriN7k3wrqV9JGXw5w/rlPGruy3Xt9N5jvO+yUq6deVpKOTslz0ypz0rNmUlO7GDpO5LcmpJbksHNGd73uTo5fU8H6wIwwgQAllSZnV2RhZ1vSs2mlHJa3/MsE/+SDKfrxKU39z0ILHdldnZF6o9Oz0J9XAb1V5KyJsPhmpTBqpThL6UOfi4O1PuS8pNHyP0ope5KsiMLZUdK2ZEThjuTue113XRzNy4tWzefnMHKJ6cOHp/kkclwTVJOXfxxOTmpJ+Wnxwgenp+9NHnf00jqXJIdqYPtKdmR5Pspw9uysOLb2X7P95wF/0VldnZF7r/7tIztfVwyeGxqOS2ppyRlZepwdcpg1QPvXIdzKYPdKdmdOrwztdyZUu/IsG6rF1y6o8dfBgDHKQGAXpQbNq/K7lVvSeqGpDy673n6Uf89ydvrxKbP9D0JAAAw+gQAelU2bz4xp656dZI/SRtHA4ZJ/iHDhffUCy77bN/DAAAA7RAAWBZKUnL9zDkZ5s0p9bykrOh7po5tT/I3GQxm61s3fKvvYQAAgPYIACw7ZetVj05ZeH1SXpPkzL7nOXL1/iSfSfK+zD/sI3X9+j0H+z8AAACOFQGAZa3M/vlTMl/WpuTlSZ6elNL3TAcxl9R/Ts3fZc+ej9SLp4+7u4UDAACjSQDguFFmr3lMFvaek9RzUvK81Dym75myeKb/myn5pwzrp3LCns+3eDdxAABg+RMAOG6V9179xMwPz9r3jPAzU/P0JKcc213rbUm5NaV+NbV8MXvmvlAvmt51bPcEAAA4egIAI6Vc/+7Hps79WurgCRmUJ2Q4PD2lPCKpj8zis61PyeKzrFckOTmpNSmLL+BL5lKzMyU7UuvOpHw/Nd/NWNmWZFv27v7vun76x7394gAAAI6CAAAAAAANGPQ9AAAAAHDsCQAAAADQAAEAAAAAGiAAAAAAQAMEAAAAAGiAAAAAAAANEAAAAACgAQIAAAAANEAAAAAAgAYIAAAAANAAAQAAAAAaIAAAAABAAwQAAAAAaIAAAAAAAA0QAAAAAKABAgAAAAA0QAAAAACABggAAAAA0AABAAAAABogAAAAAEADBAAAAABogAAAAAAADRAAAAAAoAECAAAAADRAAAAAAIAGCAAAAADQAAEAAAAAGiAAAAAAQAMEAAAAAGiAAAAAAAANEAAAAACgAQIAAAAANEAAAAAAgAYIAAAAANAAAQAAAAAaIAAAAABAAwQAAAAAaIAAAAAAAA0QAAAAAKABAgAAAAA0QAAAAACABggAAAAA0AABAAAAABogAAAAAEADBAAAAABogAAAAAAADRAAAAAAoAECAAAAADRAAAAAAIAGCAAAAADQAAEAAAAAGiAAAAAAQAMEAAAAAGiAAAAAAAANEAAAAACgAQIAAAAANEAAAAAAgAYIAAAAANAAAQAAAAAaIAAAAABAAwQAAAAAaIAAAAAAAA0QAAAAAKABAgAAAAA0QAAAAACABggAAAAA0AABAAAAABogAAAAAEADBAAAAABogAAAAAAADRAAAAAAoAECAAAAADRAAAAAAIAGCAAAAADQAAEAAAAAGiAAAAAAQAMEAAAAAGiAAAAAAAANEAAAAACgAQIAAAAANEAAAAAAgAYIAAAAANAAAQAAAAAaIAAAAABAAwQAAAAAaIAAAAAAAA0QAAAAAKABAgAAAAA0QAAAAACABggAAAAA0AABAAAAABogAAAAAEADBAAAAABogAAAAAAADRAAAAAAoAECAAAAADRAAAAAAIAGCAAAAADQAAEAAAAAGiAAAAAAQAMEAAAAAGiAAAAAAAANEAAAAACgAQIAAAAANEAAAAAAgAYIAAAAANAAAQAAAAAaIAAAAABAAwQAAAAAaIAAAAAAAA0QAAAAAKAB/w/iRyfuW9D9FwAAAABJRU5ErkJggg==;" parent="rmpsdoVU6oN7jqYleleH-2" vertex="1">
          <mxGeometry y="160" width="277.51" height="100" as="geometry" />
        </mxCell>
        <mxCell id="rmpsdoVU6oN7jqYleleH-9" value="" style="shape=image;imageAspect=0;aspect=fixed;verticalLabelPosition=bottom;verticalAlign=top;image=data:image/jpeg,/9j/4AAQSkZJRgABAQEASABIAAD/4SAuRXhpZgAATU0AKgAAAAgABgALAAIAAAAmAAAIYgESAAMAAAABAAEAAAExAAIAAAAmAAAIiAEyAAIAAAAUAAAIrodpAAQAAAABAAAIwuocAAcAAAgMAAAAVgAAEV4c6gAAAAgAAAAAAAAAAAAAAAAAAAAAAAAAAAAAAAAAAAAAAAAAAAAAAAAAAAAAAAAAAAAAAAAAAAAAAAAAAAAAAAAAAAAAAAAAAAAAAAAAAAAAAAAAAAAAAAAAAAAAAAAAAAAAAAAAAAAAAAAAAAAAAAAAAAAAAAAAAAAAAAAAAAAAAAAAAAAAAAAAAAAAAAAAAAAAAAAAAAAAAAAAAAAAAAAAAAAAAAAAAAAAAAAAAAAAAAAAAAAAAAAAAAAAAAAAAAAAAAAAAAAAAAAAAAAAAAAAAAAAAAAAAAAAAAAAAAAAAAAAAAAAAAAAAAAAAAAAAAAAAAAAAAAAAAAAAAAAAAAAAAAAAAAAAAAAAAAAAAAAAAAAAAAAAAAAAAAAAAAAAAAAAAAAAAAAAAAAAAAAAAAAAAAAAAAAAAAAAAAAAAAAAAAAAAAAAAAAAAAAAAAAAAAAAAAAAAAAAAAAAAAAAAAAAAAAAAAAAAAAAAAAAAAAAAAAAAAAAAAAAAAAAAAAAAAAAAAAAAAAAAAAAAAAAAAAAAAAAAAAAAAAAAAAAAAAAAAAAAAAAAAAAAAAAAAAAAAAAAAAAAAAAAAAAAAAAAAAAAAAAAAAAAAAAAAAAAAAAAAAAAAAAAAAAAAAAAAAAAAAAAAAAAAAAAAAAAAAAAAAAAAAAAAAAAAAAAAAAAAAAAAAAAAAAAAAAAAAAAAAAAAAAAAAAAAAAAAAAAAAAAAAAAAAAAAAAAAAAAAAAAAAAAAAAAAAAAAAAAAAAAAAAAAAAAAAAAAAAAAAAAAAAAAAAAAAAAAAAAAAAAAAAAAAAAAAAAAAAAAAAAAAAAAAAAAAAAAAAAAAAAAAAAAAAAAAAAAAAAAAAAAAAAAAAAAAAAAAAAAAAAAAAAAAAAAAAAAAAAAAAAAAAAAAAAAAAAAAAAAAAAAAAAAAAAAAAAAAAAAAAAAAAAAAAAAAAAAAAAAAAAAAAAAAAAAAAAAAAAAAAAAAAAAAAAAAAAAAAAAAAAAAAAAAAAAAAAAAAAAAAAAAAAAAAAAAAAAAAAAAAAAAAAAAAAAAAAAAAAAAAAAAAAAAAAAAAAAAAAAAAAAAAAAAAAAAAAAAAAAAAAAAAAAAAAAAAAAAAAAAAAAAAAAAAAAAAAAAAAAAAAAAAAAAAAAAAAAAAAAAAAAAAAAAAAAAAAAAAAAAAAAAAAAAAAAAAAAAAAAAAAAAAAAAAAAAAAAAAAAAAAAAAAAAAAAAAAAAAAAAAAAAAAAAAAAAAAAAAAAAAAAAAAAAAAAAAAAAAAAAAAAAAAAAAAAAAAAAAAAAAAAAAAAAAAAAAAAAAAAAAAAAAAAAAAAAAAAAAAAAAAAAAAAAAAAAAAAAAAAAAAAAAAAAAAAAAAAAAAAAAAAAAAAAAAAAAAAAAAAAAAAAAAAAAAAAAAAAAAAAAAAAAAAAAAAAAAAAAAAAAAAAAAAAAAAAAAAAAAAAAAAAAAAAAAAAAAAAAAAAAAAAAAAAAAAAAAAAAAAAAAAAAAAAAAAAAAAAAAAAAAAAAAAAAAAAAAAAAAAAAAAAAAAAAAAAAAAAAAAAAAAAAAAAAAAAAAAAAAAAAAAAAAAAAAAAAAAAAAAAAAAAAAAAAAAAAAAAAAAAAAAAAAAAAAAAAAAAAAAAAAAAAAAAAAAAAAAAAAAAAAAAAAAAAAAAAAAAAAAAAAAAAAAAAAAAAAAAAAAAAAAAAAAAAAAAAAAAAAAAAAAAAAAAAAAAAAAAAAAAAAAAAAAAAAAAAAAAAAAAAAAAAAAAAAAAAAAAAAAAAAAAAAAAAAAAAAAAAAAAAAAAAAAAAAAAAAAAAAAAAAAAAAAAAAAAAAAAAAAAAAAAAAAAAAAAAAAAAAAAAAAAAAAAAAAAAAAAAAAAAAAAAAAAAAAAAAAAAAAAAAAAAAAAAAAAAAAAAAAAAAAAAAAAAAAAAAAAAAAAAAAAAAAAAAAAAAAAAAAAAAAAAAAAAAAAAAAAAAAAAAAAAAAAAAAAAAAAAAAAAAAAAAAAAAAAAAAAAAAAAAAAAAAAAAAAAAAAAAAAAAAAAAAAAAAAAAAAAAAAAAAAAAAAAAAAAAAAAAAAAAAAAAAAAAAAAAAAAAAAAAAAAAAAAAAAAAAAAAAAAAAAAAAAAAAAAAAAAAAAAAAAAAAAAAAAAAAAAAAAAAAAAAAAAAAAAAAAAAAAAAAAAAAAAAAAAAAAAAAAAAAAAAAAAAAAAAAAAAAAAAAAAAAAAAAAAAAAAAAAAAAAAAAAAAAAAAAAAAAAAAAAAAAAAAAAAAAAAAAAAAAAAAAAAAAAAAAAAAAAAAAAAAAAAAAAAAAAAAAAAAAAAAAAAAAAAAAAAAAAAAAAAAAAAAAAAAAAAAAAAAAAAAAAAAAAAAAAAAAAAAAAAAAAAAAAAAAAAAAAAAAAAAAAAAAAAAAAAAAAAAAAAAAAAAAAAAAAAAAAAAAAAAAAAAAAAAAAAAAAAAAAAAAAAAAAAAAAAAAAAAAAAAAAAAAAAAAAAAAAAAAAAAAAAAAAAAAAAAAAAAAAAAAAAAAAAAAAAAAAAAAAAAAAAAAAAAAAAAAAAAAAAAAAAAAAAAAAAAAAAAAAAAAAAAAAAAAAAAAAAAAAAAAAAAAAAAAAAAAAAAAAAAAAAAAAAAAAAAAAAAAAAAAAAAAAAAAAAAAAAAAAAAAAAAAAAAAAAAAAAAAAAAAAAAAAAAAAAAAAAAAAAAAAAAAAAAAAAAAAAAAAAAAAAAAAAAAAAAAAAFdpbmRvd3MgUGhvdG8gRWRpdG9yIDEwLjAuMTAwMTEuMTYzODQAV2luZG93cyBQaG90byBFZGl0b3IgMTAuMC4xMDAxMS4xNjM4NAAyMDI0OjA2OjEwIDA5OjQ0OjEzAAAIQAAAAwAAAAEAAAAAQAEAAQAAAAEAAAAAkAMAAgAAABQAABE0kAQAAgAAABQAABFIkpEAAgAAAAM1NQAAkpIAAgAAAAM1NQAAoAEAAwAAAAEAAQAA6hwABwAACAwAAAkoAAAAABzqAAAACAAAAAAAAAAAAAAAAAAAAAAAAAAAAAAAAAAAAAAAAAAAAAAAAAAAAAAAAAAAAAAAAAAAAAAAAAAAAAAAAAAAAAAAAAAAAAAAAAAAAAAAAAAAAAAAAAAAAAAAAAAAAAAAAAAAAAAAAAAAAAAAAAAAAAAAAAAAAAAAAAAAAAAAAAAAAAAAAAAAAAAAAAAAAAAAAAAAAAAAAAAAAAAAAAAAAAAAAAAAAAAAAAAAAAAAAAAAAAAAAAAAAAAAAAAAAAAAAAAAAAAAAAAAAAAAAAAAAAAAAAAAAAAAAAAAAAAAAAAAAAAAAAAAAAAAAAAAAAAAAAAAAAAAAAAAAAAAAAAAAAAAAAAAAAAAAAAAAAAAAAAAAAAAAAAAAAAAAAAAAAAAAAAAAAAAAAAAAAAAAAAAAAAAAAAAAAAAAAAAAAAAAAAAAAAAAAAAAAAAAAAAAAAAAAAAAAAAAAAAAAAAAAAAAAAAAAAAAAAAAAAAAAAAAAAAAAAAAAAAAAAAAAAAAAAAAAAAAAAAAAAAAAAAAAAAAAAAAAAAAAAAAAAAAAAAAAAAAAAAAAAAAAAAAAAAAAAAAAAAAAAAAAAAAAAAAAAAAAAAAAAAAAAAAAAAAAAAAAAAAAAAAAAAAAAAAAAAAAAAAAAAAAAAAAAAAAAAAAAAAAAAAAAAAAAAAAAAAAAAAAAAAAAAAAAAAAAAAAAAAAAAAAAAAAAAAAAAAAAAAAAAAAAAAAAAAAAAAAAAAAAAAAAAAAAAAAAAAAAAAAAAAAAAAAAAAAAAAAAAAAAAAAAAAAAAAAAAAAAAAAAAAAAAAAAAAAAAAAAAAAAAAAAAAAAAAAAAAAAAAAAAAAAAAAAAAAAAAAAAAAAAAAAAAAAAAAAAAAAAAAAAAAAAAAAAAAAAAAAAAAAAAAAAAAAAAAAAAAAAAAAAAAAAAAAAAAAAAAAAAAAAAAAAAAAAAAAAAAAAAAAAAAAAAAAAAAAAAAAAAAAAAAAAAAAAAAAAAAAAAAAAAAAAAAAAAAAAAAAAAAAAAAAAAAAAAAAAAAAAAAAAAAAAAAAAAAAAAAAAAAAAAAAAAAAAAAAAAAAAAAAAAAAAAAAAAAAAAAAAAAAAAAAAAAAAAAAAAAAAAAAAAAAAAAAAAAAAAAAAAAAAAAAAAAAAAAAAAAAAAAAAAAAAAAAAAAAAAAAAAAAAAAAAAAAAAAAAAAAAAAAAAAAAAAAAAAAAAAAAAAAAAAAAAAAAAAAAAAAAAAAAAAAAAAAAAAAAAAAAAAAAAAAAAAAAAAAAAAAAAAAAAAAAAAAAAAAAAAAAAAAAAAAAAAAAAAAAAAAAAAAAAAAAAAAAAAAAAAAAAAAAAAAAAAAAAAAAAAAAAAAAAAAAAAAAAAAAAAAAAAAAAAAAAAAAAAAAAAAAAAAAAAAAAAAAAAAAAAAAAAAAAAAAAAAAAAAAAAAAAAAAAAAAAAAAAAAAAAAAAAAAAAAAAAAAAAAAAAAAAAAAAAAAAAAAAAAAAAAAAAAAAAAAAAAAAAAAAAAAAAAAAAAAAAAAAAAAAAAAAAAAAAAAAAAAAAAAAAAAAAAAAAAAAAAAAAAAAAAAAAAAAAAAAAAAAAAAAAAAAAAAAAAAAAAAAAAAAAAAAAAAAAAAAAAAAAAAAAAAAAAAAAAAAAAAAAAAAAAAAAAAAAAAAAAAAAAAAAAAAAAAAAAAAAAAAAAAAAAAAAAAAAAAAAAAAAAAAAAAAAAAAAAAAAAAAAAAAAAAAAAAAAAAAAAAAAAAAAAAAAAAAAAAAAAAAAAAAAAAAAAAAAAAAAAAAAAAAAAAAAAAAAAAAAAAAAAAAAAAAAAAAAAAAAAAAAAAAAAAAAAAAAAAAAAAAAAAAAAAAAAAAAAAAAAAAAAAAAAAAAAAAAAAAAAAAAAAAAAAAAAAAAAAAAAAAAAAAAAAAAAAAAAAAAAAAAAAAAAAAAAAAAAAAAAAAAAAAAAAAAAAAAAAAAAAAAAAAAAAAAAAAAAAAAAAAAAAAAAAAAAAAAAAAAAAAAAAAAAAAAAAAAAAAAAAAAAAAAAAAAAAAAAAAAAAAAAAAAAAAAAAAAAAAAAAAAAAAAAAAAAAAAAAAAAAAAAAAAAAAAAAAAAAAAAAAAAAAAAAAAAAAAAAAAAAAAAAAAAAAAAAAAAAAAAAAAAAAAAAAAAAAAAAAAAAAAAAAAAAAAAAAAAAAAAAAAAAAAAAAAAAAAAAAAAAAAAAAAAAAAAAAAAAAAAAAAAAAAAAAAAAAAAAAAAAAAAAAAAAAAAAAAAAAAAAAAAAAAAAAAAAAAAAAAAAAAAAAAAAAAAAAAAAAAAAAAAAAAAAAAAAAAAAAAAAAAAAAAAAAAAAAAAAAAAAAAAAAAAAAAAAAAAAAAAAAAAAAAAAAAAAAAAAAAAAAAAAAAAAAAAAAAAAAAAAAAAAAAAAAAAAAAAAAAAAAAAAAAAAAAAAAAAAAAAAAAAAAAAAAAAAAAAAAAAAAAAAAAAAAAAAAAAAAAAAAAAAAAAAAAAAAAAAAAAAAAAAAAAAAAAAAAAAAAAAAAAAAAAAAAAAAAAAAAAAAAAAAAAAAAAAAAAAAAAAAAAAAAAAAAAAAAAAAAAAAAAAAAAAAAAAAAAAAAAAAAAAAAAAAAAAAAAAAAAAAAAAAAAAAAAAAAAAAAAAAAAAAAAAAAAAAAAAAAAAAAAAAAAAAAAAAAAAAAAAAAAAAAAAAAAAAAAAAAAAAAAAAAAAAAAAAAAAAAAAAAAAAAAAMjAyNDowNjoxMCAwOTo0Mzo1MAAyMDI0OjA2OjEwIDA5OjQzOjUwAAAAAAYBAwADAAAAAQAGAAABGgAFAAAAAQAAEawBGwAFAAAAAQAAEbQBKAADAAAAAQACAAACAQAEAAAAAQAAEbwCAgAEAAAAAQAADmoAAAAAAAAAYAAAAAEAAABgAAAAAf/Y/9sAQwAIBgYHBgUIBwcHCQkICgwUDQwLCwwZEhMPFB0aHx4dGhwcICQuJyAiLCMcHCg3KSwwMTQ0NB8nOT04MjwuMzQy/9sAQwEJCQkMCwwYDQ0YMiEcITIyMjIyMjIyMjIyMjIyMjIyMjIyMjIyMjIyMjIyMjIyMjIyMjIyMjIyMjIyMjIyMjIy/8AAEQgAUwEAAwEhAAIRAQMRAf/EAB8AAAEFAQEBAQEBAAAAAAAAAAABAgMEBQYHCAkKC//EALUQAAIBAwMCBAMFBQQEAAABfQECAwAEEQUSITFBBhNRYQcicRQygZGhCCNCscEVUtHwJDNicoIJChYXGBkaJSYnKCkqNDU2Nzg5OkNERUZHSElKU1RVVldYWVpjZGVmZ2hpanN0dXZ3eHl6g4SFhoeIiYqSk5SVlpeYmZqio6Slpqeoqaqys7S1tre4ubrCw8TFxsfIycrS09TV1tfY2drh4uPk5ebn6Onq8fLz9PX29/j5+v/EAB8BAAMBAQEBAQEBAQEAAAAAAAABAgMEBQYHCAkKC//EALURAAIBAgQEAwQHBQQEAAECdwABAgMRBAUhMQYSQVEHYXETIjKBCBRCkaGxwQkjM1LwFWJy0QoWJDThJfEXGBkaJicoKSo1Njc4OTpDREVGR0hJSlNUVVZXWFlaY2RlZmdoaWpzdHV2d3h5eoKDhIWGh4iJipKTlJWWl5iZmqKjpKWmp6ipqrKztLW2t7i5usLDxMXGx8jJytLT1NXW19jZ2uLj5OXm5+jp6vLz9PX29/j5+v/aAAwDAQACEQMRAD8A9/ooAKSgBaSgBaKACigAooAKKACigAooAKTNAC0UAFFABRQAUUAFFABRQAlFAGVruvWug2izXIZmc7Y416sf6D3rjLz4jalCwC6XHBuGV84scj17V1UMMqivJnJXxLpu0UUh8T9UU/NZ2bD0AYf1rofDfxBtdZvFsruD7JcyHEZDbkc+mccGtKuDUY80WZ0sY5StJHaUVwneFFABRQAUUAFFABRQAV57458S6rpfiKx0+yuRDBKiO+EBY5cgjJ7YFAHoVFABRQAUUAFFABRQA3eucZH507igBaSgDz/4lTGGfSJAA2xpG2nocFOtc34t8VR+Io7VIrMw+TkszHJJPYe1elQheMJ9rnmV52lOHexyTt1pLWVo7+3dGIZZVKkHociut7HKtz6SorwT3RaKYBRQAUUAFFACZrzf4o6xqOntY29neTQRzI7SCJtpbBGORz3oA9CsyTZW5JyTGufyry34k/8AI66Z/wBcYv8A0Y1AHrNFABSZoAKWgAooAKKAOd1Hw+Llr/yLeKJpzBtlQKrDD5c59e/virOh2d9BcXtzfhRNclHO1sgEAjH4DA98UAaN7eRWFnLdTnbFEpZjjt/jXlmpePtYupybWVbSEH5URVY49yQf6V14Wiql3LY48VWcLKO5mv408Qnrqb/9+o//AImoG8a+Iv8AoJt/35j/APia7fq9Pojj9vUe7MK/v7jULqS6upTLPJjc5AGcDA4HHQVWgbN5B/10X+YrS1lZGd7u59DT3MyTuqyEKDwMCp7O7M25GxuHOfWvh8PjqjxPs5PRux9LOkuTmRcqK7uY7Ozmupc+XChkbAycAZNe4cx51b+IvE/jO6nj0JodOs4CN0jYLYPTJweeD0H41PeeF/GVtbNcWviaa5nUbvJyy7vYZJBP1FAFzwN4zm1tpNN1IKL+JchsbfMA65HZh3o+I+vajotlZDTrjyDOzh2CgnAAxjPTrQB1WiyPNoWnyyMXke2jZmJ5JKjJqPxBcS2nh3UbiBzHNFbSOjgD5SFJBoA5z4caxqGs6ZeS6jdPcOkwVSwAwNvsBXDeP7PWLS+g/te/S7VxI0G0Y2JkcdB6igDv/Del+Kba8gn1PWIrmx8r/UqvPI4/hHT61yXxOlEPi+wlYEhLdGOPaRjQBuC78ceJF86xSHR7MnKeb99x+IJ/QVj3PiLxZ4O1eKPWZhe20oz0G1177WwCGHofUUAeoW95DdWUV5FIpgljEiuem0jOa87u/FWueKtZfTPDBFvbR8tckcsPUnnAPbHJoAku/D3jfTrc3Vp4hku5EG5oiSSfZQ2Qf0rZ8F+Mx4iR7S7RYdQiGSq8CRfUDsR3FAD/ABh4zXwyYraG28+9mTegbhFGcZPr9B+YrPj0Lxrqima+8QrYb+Vgt0zt9sjH8zQBz+paj4v8E6lCbu/N9ayE7TISyvjqOeVP4/nXqGl6hHqumW19CpEc8YcA9Rnt+FAFyigDkfiJdNB4aEan/XzKh+gy3/soryR2r1cGv3R5WMf70hZiSAOSelSNpWqMMrpl6QeQRbuf6V0SkluYRjKWyIW0fVif+QVf/wDgK/8AhW54W8HahfapBcX1pNa2MEgeRpkKF8c7VB5OcfhXPiMRTpU5Tk9jalQnKaVj1WWQvIzHuc06ykK3sfvwa/NaVS+JjLz/AFPqZR/dtG7Wd4g/5FzVP+vSX/0E19qeYcN8Iv8AU6v/AL0X8nr0ugDxi6b+w/izmD5VN6mR7Sgbh/4+a3fi5/x6aV/vS/yWgDudB/5F3TP+vSL/ANAFQ+KP+RU1b/r0l/8AQTQByfwm/wCQPqH/AF8D/wBBrN+L3/H3pf8A1yl/mtAHp1n/AMeNv/1zX+VeW/En/kddM/64xf8AoxqAPWa8++LSj+w7B8fMLrAPsUb/AAFADZ7x7L4MxSIcO9usWfZn2n9Cal+FNpHH4furoKPNmuSpb2VRgfqfzoA72vG70/2J8Wg1qNiteR5UdCJANw/8eNAFr4q/8jFYf9ew/wDQzXrS/dH0oA4f4qBT4XtyRyLtMH0+V62PA3/Il6X/ANcz/wChGgDoaKAOP+I9u03hgSqOIJ1dsehyv82FeQO1epg3+7PLxi/enofgHRreLTBrMsavdSuywlhkRqpwSPcnPNdl50mf9Y/518jneMqPFOClZI9jA0Yqin3GNcSf89G/76qGSVnOWYn6mvBqYipJWctDvjTitUiJmqWwy9/GB2OTWeGXNXgl3RpNWg2dFWd4g/5FzVP+vSX/ANBNfeHkHDfCL/U6v/vRfyevSqAPF5M+IfiqGt+U+2qd3+zFjJ/JP1roPi5/x6aWf9uT+S0Adt4clSXwzpbxsGU2sYyPZRUfij/kVNW/69Jf/QTQByfwm/5A+of9fA/9BrN+L3/H3pf/AFyl/mtAHp1mf9Bt/wDrmv8AIV5b8Sf+R10z/rjF/wCjGoA9ZrgPiz/yL9j/ANfY/wDQGoActg+pfB+O3jBMgtRIoA6lW3Y/HGKg+E+oJJpV5p5P7yKbzR7qwA/mv60Aeh14+Yx4h+LTG3O6KO5Dsw/uxAZP4lcfiKAJvip/yMVh/wBew/8AQzXrS/dH0oA4f4qf8irD/wBfif8AoL1seBv+RL0v/rmf/QjQB0NFAFTUbGHUtPuLKfPlTIUbHUe9eP3/AMPvENvcMkFqLqPJ2yRyKMjtwSCK68LWULqRx4qi52aO68N2F1pfhWxtL2Ew3CNKWQkHGXJHT2q+zV8Vm819bm/62PYwkWqUUxVt5pVDIhIPQ5FBsrr/AJ5H8xXJ9SryjzKO5v7aCeow6feH/lifzFaWm2LW26SXHmNwB6CuzLssrwxCqVVZIzr14yp8sTRFZ3iD/kXNU/69Jf8A0E19ScB5L4J07XLuO+utC1AW1xAyBon+5KDnr1GRj079q6W+f4jahAbL7Fb2ysNrzQOqkj6lzj8BQBseC/BaeHI3url1l1CVdpZR8sa9wPXPc1q+JvDtv4k0o2kzmORTvilAzsbp07jHBFAHE6Vpfj3w3m1sYre6tAThHkUoPcZKsKm1fTPGeq6Zdzate21lZRQvK1vb9X2gnBx2OO7fhQBY+EwP9i37Hobgf+gj/Gtnxr4T/wCEnsYjDIsd5bkmJn+6wPVT6dBz7UAR+GD4rtXgsNXsoDaRRlRcrIC3A+UYB5/IVneMvCmqa34ksr6ySIwwxorF5NpyHJP6GgDvq5Px9oF94h0m1trBUMkdx5jb328bWH8yKANbw1YT6Z4csbG5CiaGPa4U5GcmuT1TwTqema2dY8LTpG7El7dzgc9QM8FT6HGO3bAA+5m+IWp27WosLOwDjDTpKMge3zNj8q2vCXhG38M2rMX8+9mA82bGMf7K+386AMXx34T1TX9YtLmxSIxxw7GLybedxP8AWu+HCge1AHM+OtEvdf0OO0sVRpVuFkO9towFYf1FaHhjT59K8N2NjdBRNChDhWyOpPX8aANeigAooAzNVOPL/H+lZbNXx2au2Kn8vyR6WGXuIavzyKgONxAzU93Z/ZJoQsm/eemOa5qFBzoyrKXwtKxpKfLJRtudCBgUYr7o8kWs3xB/yLmqf9ekv/oJoA4b4Rf6nV/96L+TV6XQAUUAJ0rkPHniSz07QbqxSdHvbmMxLEpyVB4JPpxmgB/w60qbTPCyNOpSS6kM21hyAQAM/gM/jXW0AFFABRQAUUAFFABRQAUUAFFABRQBDPAlwmxx9D6Vly6RLu/dyKR/tcV4+ZZY8S+eD1OmhiPZ6Mi/sa5PVkH41fttOWJxJLI0sg6E9q5MDk9SnNSqvRdO5pWxUZK0UX6WvoziCoLu2jvLOe1l3eXNG0b7Tg4IwaAMXwx4Ut/DDXgtriWWK4KELIBldue469fSuhoAKKAOf8S+G5fEBgVNVubKOMMJI4ScSg4xkZHTB/Oqej/DzQ9JlWdonu5lO5WuCCFPqFHH55oA6scUtABRQAUUAFFABRQAUUAFFABRQAUUANYkcjmojI4P3aAE81/7tPVieooAkpaACigAooAKKACigAooAKKACigAooAKKACigAooAKKACigBKKACloAKKACigAooAKKACigAooAKKACigAooAKKACigAooAKKAP/2f/hMehodHRwOi8vbnMuYWRvYmUuY29tL3hhcC8xLjAvADw/eHBhY2tldCBiZWdpbj0n77u/JyBpZD0nVzVNME1wQ2VoaUh6cmVTek5UY3prYzlkJz8+DQo8eDp4bXBtZXRhIHhtbG5zOng9ImFkb2JlOm5zOm1ldGEvIj48cmRmOlJERiB4bWxuczpyZGY9Imh0dHA6Ly93d3cudzMub3JnLzE5OTkvMDIvMjItcmRmLXN5bnRheC1ucyMiPjxyZGY6RGVzY3JpcHRpb24gcmRmOmFib3V0PSJ1dWlkOmZhZjViZGQ1LWJhM2QtMTFkYS1hZDMxLWQzM2Q3NTE4MmYxYiIgeG1sbnM6eG1wPSJodHRwOi8vbnMuYWRvYmUuY29tL3hhcC8xLjAvIj48eG1wOkNyZWF0b3JUb29sPldpbmRvd3MgUGhvdG8gRWRpdG9yIDEwLjAuMTAwMTEuMTYzODQ8L3htcDpDcmVhdG9yVG9vbD48eG1wOkNyZWF0ZURhdGU+MjAyNC0wNi0xMFQwOTo0Mzo1MC41NDg8L3htcDpDcmVhdGVEYXRlPjwvcmRmOkRlc2NyaXB0aW9uPjwvcmRmOlJERj48L3g6eG1wbWV0YT4NCiAgICAgICAgICAgICAgICAgICAgICAgICAgICAgICAgICAgICAgICAgICAgICAgICAgICAgICAgICAgICAgICAgICAgICAgICAgICAgICAgICAgICAgICAgICAgICAgICAgICAKICAgICAgICAgICAgICAgICAgICAgICAgICAgICAgICAgICAgICAgICAgICAgICAgICAgICAgICAgICAgICAgICAgICAgICAgICAgICAgICAgICAgICAgICAgICAgICAgICAgIAogICAgICAgICAgICAgICAgICAgICAgICAgICAgICAgICAgICAgICAgICAgICAgICAgICAgICAgICAgICAgICAgICAgICAgICAgICAgICAgICAgICAgICAgICAgICAgICAgICAgCiAgICAgICAgICAgICAgICAgICAgICAgICAgICAgICAgICAgICAgICAgICAgICAgICAgICAgICAgICAgICAgICAgICAgICAgICAgICAgICAgICAgICAgICAgICAgICAgICAgICAKICAgICAgICAgICAgICAgICAgICAgICAgICAgICAgICAgICAgICAgICAgICAgICAgICAgICAgICAgICAgICAgICAgICAgICAgICAgICAgICAgICAgICAgICAgICAgICAgICAgIAogICAgICAgICAgICAgICAgICAgICAgICAgICAgICAgICAgICAgICAgICAgICAgICAgICAgICAgICAgICAgICAgICAgICAgICAgICAgICAgICAgICAgICAgICAgICAgICAgICAgCiAgICAgICAgICAgICAgICAgICAgICAgICAgICAgICAgICAgICAgICAgICAgICAgICAgICAgICAgICAgICAgICAgICAgICAgICAgICAgICAgICAgICAgICAgICAgICAgICAgICAKICAgICAgICAgICAgICAgICAgICAgICAgICAgICAgICAgICAgICAgICAgICAgICAgICAgICAgICAgICAgICAgICAgICAgICAgICAgICAgICAgICAgICAgICAgICAgICAgICAgIAogICAgICAgICAgICAgICAgICAgICAgICAgICAgICAgICAgICAgICAgICAgICAgICAgICAgICAgICAgICAgICAgICAgICAgICAgICAgICAgICAgICAgICAgICAgICAgICAgICAgCiAgICAgICAgICAgICAgICAgICAgICAgICAgICAgICAgICAgICAgICAgICAgICAgICAgICAgICAgICAgICAgICAgICAgICAgICAgICAgICAgICAgICAgICAgICAgICAgICAgICAKICAgICAgICAgICAgICAgICAgICAgICAgICAgICAgICAgICAgICAgICAgICAgICAgICAgICAgICAgICAgICAgICAgICAgICAgICAgICAgICAgICAgICAgICAgICAgICAgICAgIAogICAgICAgICAgICAgICAgICAgICAgICAgICAgICAgICAgICAgICAgICAgICAgICAgICAgICAgICAgICAgICAgICAgICAgICAgICAgICAgICAgICAgICAgICAgICAgICAgICAgCiAgICAgICAgICAgICAgICAgICAgICAgICAgICAgICAgICAgICAgICAgICAgICAgICAgICAgICAgICAgICAgICAgICAgICAgICAgICAgICAgICAgICAgICAgICAgICAgICAgICAKICAgICAgICAgICAgICAgICAgICAgICAgICAgICAgICAgICAgICAgICAgICAgICAgICAgICAgICAgICAgICAgICAgICAgICAgICAgICAgICAgICAgICAgICAgICAgICAgICAgIAogICAgICAgICAgICAgICAgICAgICAgICAgICAgICAgICAgICAgICAgICAgICAgICAgICAgICAgICAgICAgICAgICAgICAgICAgICAgICAgICAgICAgICAgICAgICAgICAgICAgCiAgICAgICAgICAgICAgICAgICAgICAgICAgICAgICAgICAgICAgICAgICAgICAgICAgICAgICAgICAgICAgICAgICAgICAgICAgICAgICAgICAgICAgICAgICAgICAgICAgICAKICAgICAgICAgICAgICAgICAgICAgICAgICAgICAgICAgICAgICAgICAgICAgICAgICAgICAgICAgICAgICAgICAgICAgICAgICAgICAgICAgICAgICAgICAgICAgICAgICAgIAogICAgICAgICAgICAgICAgICAgICAgICAgICAgICAgICAgICAgICAgICAgICAgICAgICAgICAgICAgICAgICAgICAgICAgICAgICAgICAgICAgICAgICAgICAgICAgICAgICAgCiAgICAgICAgICAgICAgICAgICAgICAgICAgICAgICAgICAgICAgICAgICAgICAgICAgICAgICAgICAgICAgICAgICAgICAgICAgICAgICAgICAgICAgICAgICAgICAgICAgICAKICAgICAgICAgICAgICAgICAgICAgICAgICAgICAgICAgICAgICAgICAgICAgICAgICAgICAgICAgICAgICAgICAgICAgICAgICAgICAgICAgICAgICAgICAgICAgICAgICAgIAogICAgICAgICAgICAgICAgICAgICAgICAgICAgICAgICAgICAgICAgICAgICAgICAgICAgICAgICAgICAgICAgICAgICAgICAgICAgICAgICAgICAgICAgICAgICAgICAgICAgCiAgICAgICAgICAgICAgICAgICAgICAgICAgICAgICAgICAgICAgICAgICAgICAgICAgICAgICAgICAgICAgICAgICAgICAgICAgICAgICAgICAgICAgICAgICAgICAgICAgICAKICAgICAgICAgICAgICAgICAgICAgICAgICAgICAgICAgICAgICAgICAgICAgICAgICAgICAgICAgICAgICAgICAgICAgICAgICAgICAgICAgICAgICAgICAgICAgICAgICAgIAogICAgICAgICAgICAgICAgICAgICAgICAgICAgICAgICAgICAgICAgICAgICAgICAgICAgICAgICAgICAgICAgICAgICAgICAgICAgICAgICAgICAgICAgICAgICAgICAgICAgCiAgICAgICAgICAgICAgICAgICAgICAgICAgICAgICAgICAgICAgICAgICAgICAgICAgICAgICAgICAgICAgICAgICAgICAgICAgICAgICAgICAgICAgICAgICAgICAgICAgICAKICAgICAgICAgICAgICAgICAgICAgICAgICAgICAgICAgICAgICAgICAgICAgICAgICAgICAgICAgICAgICAgICAgICAgICAgICAgICAgICAgICAgICAgICAgICAgICAgICAgIAogICAgICAgICAgICAgICAgICAgICAgICAgICAgICAgICAgICAgICAgICAgICAgICAgICAgICAgICAgICAgICAgICAgICAgICAgICAgICAgICAgICAgICAgICAgICAgICAgICAgCiAgICAgICAgICAgICAgICAgICAgICAgICAgICAgICAgICAgICAgICAgICAgICAgICAgICAgICAgICAgICAgICAgICAgICAgICAgICAgICAgICAgICAgICAgICAgICAgICAgICAKICAgICAgICAgICAgICAgICAgICAgICAgICAgICAgICAgICAgICAgICAgICAgICAgICAgICAgICAgICAgICAgICAgICAgICAgICAgICAgICAgICAgICAgICAgICAgICAgICAgIAogICAgICAgICAgICAgICAgICAgICAgICAgICAgICAgICAgICAgICAgICAgICAgICAgICAgICAgICAgICAgICAgICAgICAgICAgICAgICAgICAgICAgICAgICAgICAgICAgICAgCiAgICAgICAgICAgICAgICAgICAgICAgICAgICAgICAgICAgICAgICAgICAgICAgICAgICAgICAgICAgICAgICAgICAgICAgICAgICAgICAgICAgICAgICAgICAgICAgICAgICAKICAgICAgICAgICAgICAgICAgICAgICAgICAgICAgICAgICAgICAgICAgICAgICAgICAgICAgICAgICAgICAgICAgICAgICAgICAgICAgICAgICAgICAgICAgICAgICAgICAgIAogICAgICAgICAgICAgICAgICAgICAgICAgICAgICAgICAgICAgICAgICAgICAgICAgICAgICAgICAgICAgICAgICAgICAgICAgICAgICAgICAgICAgICAgICAgICAgICAgICAgCiAgICAgICAgICAgICAgICAgICAgICAgICAgICAgICAgICAgICAgICAgICAgICAgICAgICAgICAgICAgICAgICAgICAgICAgICAgICAgICAgICAgICAgICAgICAgICAgICAgICAKICAgICAgICAgICAgICAgICAgICAgICAgICAgICAgICAgICAgICAgICAgICAgICAgICAgICAgICAgICAgICAgICAgICAgICAgICAgICAgICAgICAgICAgICAgICAgICAgICAgIAogICAgICAgICAgICAgICAgICAgICAgICAgICAgICAgICAgICAgICAgICAgICAgICAgICAgICAgICAgICAgICAgICAgICAgICAgICAgICAgICAgICAgICAgICAgICAgICAgICAgCiAgICAgICAgICAgICAgICAgICAgICAgICAgICAgICAgICAgICAgICAgICAgICAgICAgICAgICAgICAgICAgICAgICAgICAgICAgICAgICAgICAgICAgICAgICAgICAgICAgICAKICAgICAgICAgICAgICAgICAgICAgICAgICAgICAgICAgICAgICAgICAgICAgICAgICAgICAgICAgICAgICAgICAgICAgICAgICAgICAgICAgICAgICAgICAgICAgICAgICAgIAogICAgICAgICAgICAgICAgICAgICAgICAgICAgICAgICAgICAgICAgICAgICAgICAgICAgICAgICAgICAgICAgICAgICAgICAgICAgICAgICAgICAgICAgICAgICAgICAgICAgCiAgICAgICAgICAgICAgICAgICAgICAgICAgICAgICAgICAgICAgICAgICAgICAgICAgICAgICAgICAgICAgICAgICAgICAgICAgICAgICAgICAgICAgICAgICAgICAgICAgICAKICAgICAgICAgICAgICAgICAgICAgICAgICAgICAgICAgICAgICAgICAgICAgICAgICAgICAgICAgICAgICAgICAgICAgICAgICAgICAgICAgICAgICAgICAgICAgICAgICAgIAogICAgICAgICAgICAgICAgICAgICAgICAgICAgICAgICAgICAgICAgICAgICAgICAgICAgICAgICAgICAgICAgICAgICAgICAgICAgICAgICAgICAgICAgICAgICAgICAgICAgCiAgICAgICAgICAgICAgICAgICAgICAgICAgICAgICAgICAgICAgICAgICAgICAgICAgICAgICAgICAgICAgICAgICAgICAgICAgICAgICAgICAgICAgICAgICAgICAgICAgICAKICAgICAgICAgICAgICAgICAgICAgICAgICAgICAgICAgICAgICAgICAgICAgICAgICAgICAgICAgICAgICAgICAgICAgICAgICAgICAgICAgICAgICAgICAgICAgICAgICAgIAogICAgICAgICAgICAgICAgICAgICAgICAgICAgICAgICAgICAgICAgICAgICAgICAgICAgICAgICAgICAgICAgICAgICAgICAgICAgICAgICAgICAgICAgICAgICAgICAgICAgCiAgICAgICAgICAgICAgICAgICAgICAgICAgICAgICAgICAgICAgICAgICAgICAgICAgICAgICAgICAgICAgICAgICAgICAgICAgICAgICAgICAgICAgICAgICAgICAgICAgICAKICAgICAgICAgICAgICAgICAgICAgICAgICAgICAgICAgICAgICAgICAgICAgICAgICAgICAgICAgICAgICAgICAgICAgICAgICAgICAgICAgICAgICAgICAgICAgICAgICAgIAogICAgICAgICAgICAgICAgICAgICAgICAgICAgICAgICAgICAgICAgICAgICAgICAgICAgICAgICAgICAgICAgICAgICAgICAgICAgICAgICAgICAgICAgICAgICAgICAgICAgCiAgICAgICAgICAgICAgICAgICAgICAgICAgICAgICAgICAgICAgICAgICAgICAgICAgICAgICAgICAgICAgICAgICAgICAgICAgICAgICAgICAgICAgICAgICAgICAgICAgICAKICAgICAgICAgICAgICAgICAgICAgICAgICAgICAgICAgICAgICAgICAgICAgICAgICAgICAgICAgICAgICAgICAgICAgICAgICAgICAgICAgICAgICAgICAgICAgICAgICAgIAogICAgICAgICAgICAgICAgICAgICAgICAgICAgICAgICAgICAgICAgICAgICAgICAgICAgICAgICAgICAgICAgICAgICAgICAgICAgICAgICAgICAgICAgICAgICAgICAgICAgCiAgICAgICAgICAgICAgICAgICAgICAgICAgICAgICAgICAgICAgICAgICAgICAgICAgICAgICAgICAgICAgICAgICAgICAgICAgICAgICAgICAgICAgICAgICAgICAgICAgICAKICAgICAgICAgICAgICAgICAgICAgICAgICAgICAgICAgICAgICAgICAgICAgICAgICAgICAgICAgICAgICAgICAgICAgICAgICAgICAgICAgICAgICAgICAgICAgICAgICAgIAogICAgICAgICAgICAgICAgICAgICAgICAgICAgICAgICAgICAgICAgICAgICAgICAgICAgICAgICAgICAgICAgICAgICAgICAgICAgICAgICAgICAgICAgICAgICAgICAgICAgCiAgICAgICAgICAgICAgICAgICAgICAgICAgICAgICAgICAgICAgICAgICAgICAgICAgICAgICAgICAgICAgICAgICAgICAgICAgICAgICAgICAgICAgICAgICAgICAgICAgICAKICAgICAgICAgICAgICAgICAgICAgICAgICAgICAgICAgICAgICAgICAgICAgICAgICAgICAgICAgICAgICAgICAgICAgICAgICAgICAgICAgICAgICAgICAgICAgICAgICAgIAogICAgICAgICAgICAgICAgICAgICAgICAgICAgICAgICAgICAgICAgICAgICAgICAgICAgICAgICAgICAgICAgICAgICAgICAgICAgICAgICAgICAgICAgICAgICAgICAgICAgCiAgICAgICAgICAgICAgICAgICAgICAgICAgICAgICAgICAgICAgICAgICAgICAgICAgICAgICAgICAgICAgICAgICAgICAgICAgICAgICAgICAgICAgICAgICAgICAgICAgICAKICAgICAgICAgICAgICAgICAgICAgICAgICAgICAgICAgICAgICAgICAgICAgICAgICAgICAgICAgICAgICAgICAgICAgICAgICAgICAgICAgICAgICAgICAgICAgICAgICAgIAogICAgICAgICAgICAgICAgICAgICAgICAgICAgICAgICAgICAgICAgICAgICAgICAgICAgICAgICAgICAgICAgICAgICAgICAgICAgICAgICAgICAgICAgICAgICAgICAgICAgCiAgICAgICAgICAgICAgICAgICAgICAgICAgICAgICAgICAgICAgICAgICAgICAgICAgICAgICAgICAgICAgICAgICAgICAgICAgICAgICAgICAgICAgICAgICAgICAgICAgICAKICAgICAgICAgICAgICAgICAgICAgICAgICAgICAgICAgICAgICAgICAgICAgICAgICAgICAgICAgICAgICAgICAgICAgICAgICAgICAgICAgICAgICAgICAgICAgICAgICAgIAogICAgICAgICAgICAgICAgICAgICAgICAgICAgICAgICAgICAgICAgICAgICAgICAgICAgICAgICAgICAgICAgICAgICAgICAgICAgICAgICAgICAgICAgICAgICAgICAgICAgCiAgICAgICAgICAgICAgICAgICAgICAgICAgICAgICAgICAgICAgICAgICAgICAgICAgICAgICAgICAgICAgICAgICAgICAgICAgICAgICAgICAgICAgICAgICAgICAgICAgICAKICAgICAgICAgICAgICAgICAgICAgICAgICAgICAgICAgICAgICAgICAgICAgICAgICAgICAgICAgICAgICAgICAgICAgICAgICAgICAgICAgICAgICAgICAgICAgICAgICAgIAogICAgICAgICAgICAgICAgICAgICAgICAgICAgICAgICAgICAgICAgICAgICAgICAgICAgICAgICAgICAgICAgICAgICAgICAgICAgICAgICAgICAgICAgICAgICAgICAgICAgCiAgICAgICAgICAgICAgICAgICAgICAgICAgICAgICAgICAgICAgICAgICAgICAgICAgICAgICAgICAgICAgICAgICAgICAgICAgICAgICAgICAgICAgICAgICAgICAgICAgICAKICAgICAgICAgICAgICAgICAgICAgICAgICAgICAgICAgICAgICAgICAgICAgICAgICAgICAgICAgICAgICAgICAgICAgICAgICAgICAgICAgICAgICAgICAgICAgICAgICAgIAogICAgICAgICAgICAgICAgICAgICAgICAgICAgICAgICAgICAgICAgICAgICAgICAgICAgICAgICAgICAgICAgICAgICAgICAgICAgICAgICAgICAgICAgICAgICAgICAgICAgCiAgICAgICAgICAgICAgICAgICAgICAgICAgICAgICAgICAgICAgICAgICAgICAgICAgICAgICAgICAgICAgICAgICAgICAgICAgICAgICAgICAgICAgICAgICAgICAgICAgICAKICAgICAgICAgICAgICAgICAgICAgICAgICAgICAgICAgICAgICAgICAgICAgICAgICAgICAgICAgICAgICAgICAgICAgICAgICAgICAgICAgICAgICAgICAgICAgICAgICAgIAogICAgICAgICAgICAgICAgICAgICAgICAgICAgICAgICAgICAgICAgICAgICAgICAgICAgICAgICAgICAgICAgICAgICAgICAgICAgICAgICAgICAgICAgICAgICAgICAgICAgCiAgICAgICAgICAgICAgICAgICAgICAgICAgICAgICAgICAgICAgICAgICAgICAgICAgICAgICAgICAgICAgICAgICAgICAgICAgICAgICAgICAgICAgICAgICAgICAgICAgICAKICAgICAgICAgICAgICAgICAgICAgICAgICAgICAgICAgICAgICAgICAgICAgICAgICAgICAgICAgICAgICAgICAgICAgICAgICAgICAgICAgICAgICAgICAgICAgICAgICAgIAogICAgICAgICAgICAgICAgICAgICAgICAgICAgICAgICAgICAgICAgICAgICAgICAgICAgICAgICAgICAgICAgICAgICAgICAgICAgICAgICAgICAgICAgICAgICAgICAgICAgCiAgICAgICAgICAgICAgICAgICAgICAgICAgICAgICAgICAgICAgICAgICAgICAgICAgICAgICAgICAgICAgICAgICAgICAgICAgICAgICAgICAgICAgICAgICAgICAgICAgICAKICAgICAgICAgICAgICAgICAgICAgICAgICAgICAgICAgICAgICAgICAgICAgICAgICAgICAgICAgICAgICAgICAgICAgICAgICAgICAgICAgICAgICAgICAgICAgICAgICAgIAogICAgICAgICAgICAgICAgICAgICAgICAgICAgICAgICAgICAgICAgICAgICAgICAgICAgICAgICAgICAgICAgICAgICAgICAgICAgICAgICAgICAgICAgICAgICAgICAgICAgCiAgICAgICAgICAgICAgICAgICAgICAgICAgICAgICAgICAgICAgICAgICAgICAgICAgICAgICAgICAgICAgICAgICAgICAgICAgICAgICAgICAgICAgICAgICAgICAgICAgICAKICAgICAgICAgICAgICAgICAgICAgICAgICAgICAgICAgICAgICAgICAgICAgICAgICAgICAgICAgICAgICAgICAgICAgICAgICAgICAgICAgICAgICAgICAgICAgICAgICAgIAogICAgICAgICAgICAgICAgICAgICAgICAgICAgICAgICAgICAgICAgICAgICAgICAgICAgICAgICAgICAgICAgICAgICAgICAgICAgICAgICAgICAgICAgICAgICAgICAgICAgCiAgICAgICAgICAgICAgICAgICAgICAgICAgICAgICAgICAgICAgICAgICAgICAgICAgICAgICAgICAgICAgICAgICAgICAgICAgICAgICAgICAgICAgICAgICAgICAgICAgICAKICAgICAgICAgICAgICAgICAgICAgICAgICAgICAgICAgICAgICAgICAgICAgICAgICAgICAgICAgICAgICAgICAgICAgICAgICAgICAgICAgICAgICAgICAgICAgICAgICAgIAogICAgICAgICAgICAgICAgICAgICAgICAgICAgICAgICAgICAgICAgICAgICAgICAgICAgICAgICAgICAgICAgICAgICAgICAgICAgICAgICAgICAgICAgICAgICAgICAgICAgCiAgICAgICAgICAgICAgICAgICAgICAgICAgICAgICAgICAgICAgICAgICAgICAgICAgICAgICAgICAgICAgICAgICAgICAgICAgICAgICAgICAgICAgICAgICAgICAgICAgICAKICAgICAgICAgICAgICAgICAgICAgICAgICAgICAgICAgICAgICAgICAgICAgICAgICAgICAgICAgICAgICAgICAgICAgICAgICAgICAgICAgICAgICAgICAgICAgICAgICAgIAogICAgICAgICAgICAgICAgICAgICAgICAgICAgICAgICAgICAgICAgICAgICAgICAgICAgICAgICAgICAgICAgICAgICAgICAgICAgICAgICAgICAgICAgICAgICAgICAgICAgCiAgICAgICAgICAgICAgICAgICAgICAgICAgICAgICAgICAgICAgICAgICAgICAgICAgICAgICAgICAgICAgICAgICAgICAgICAgICAgICAgICAgICAgICAgICAgICAgICAgICAKICAgICAgICAgICAgICAgICAgICAgICAgICAgICAgICAgICAgICAgICAgICAgICAgICAgICAgICAgICAgICAgICAgICAgICAgICAgICAgICAgICAgICAgICAgICAgICAgICAgIAogICAgICAgICAgICAgICAgICAgICAgICAgICAgICAgICAgICAgICAgICAgICAgICAgICAgICAgICAgICAgICAgICAgICAgICAgICAgICAgICAgICAgICAgICAgICAgICAgICAgCiAgICAgICAgICAgICAgICAgICAgICAgICAgICAgICAgICAgICAgICAgICAgICAgICAgICAgICAgICAgICAgICAgICAgICAgICAgICAgICAgICAgICAgICAgICAgICAgICAgICAKICAgICAgICAgICAgICAgICAgICAgICAgICAgICAgICAgICAgICAgICAgICAgICAgICAgICAgICAgICAgICAgICAgICAgICAgICAgICAgICAgICAgICAgICAgICAgICAgICAgIAogICAgICAgICAgICAgICAgICAgICAgICAgICAgICAgICAgICAgICAgICAgICAgICAgICAgICAgICAgICAgICAgICAgICAgICAgICAgICAgICAgICAgICAgICAgICAgICAgICAgCiAgICAgICAgICAgICAgICAgICAgICAgICAgICAgICAgICAgICAgICAgICAgICAgICAgICAgICAgICAgICAgICAgICAgICAgICAgICAgICAgICAgICAgICAgICAgICAgICAgICAKICAgICAgICAgICAgICAgICAgICAgICAgICAgICAgICAgICAgICAgICAgICAgICAgICAgICAgICAgICAgICAgICAgICAgICAgICAgICAgICAgICAgICAgICAgICAgICAgICAgIAogICAgICAgICAgICAgICAgICAgICAgICAgICAgICAgICAgICAgICAgICAgICAgICAgICAgICAgICAgICAgICAgICAgICAgICAgICAgICAgICAgICAgICAgICAgICAgICAgICAgCiAgICAgICAgICAgICAgICAgICAgICAgICAgICAgICAgICAgICAgICAgICAgICAgICAgICAgICAgICAgICAgICAgICAgICAgICAgICAgICAgICAgICAgICAgICAgICAgICAgICAKICAgICAgICAgICAgICAgICAgICAgICAgICAgICAgICAgICAgICAgICAgICAgICAgICAgICAgICAgICAgICAgICAgICAgICAgICAgICAgICAgICAgICAgICAgICAgICAgICAgIAogICAgICAgICAgICAgICAgICAgICAgICAgICAgICAgICAgICAgICAgICAgICAgICAgICAgICAgICAgICAgICAgICAgICAgICAgICAgICAgICAgICAgICAgICAgICAgICAgICAgCiAgICAgICAgICAgICAgICAgICAgICAgICAgICAgICAgICAgICAgICAgICAgICAgICAgICAgICAgICAgICAgICAgICAgICAgICAgICAgICAgICAgICAgICAgICAgICAgICAgICAKICAgICAgICAgICAgICAgICAgICAgICAgICAgICAgICAgICAgICAgICAgICAgICAgICAgICAgICAgICAgICAgICAgICAgICAgICAgICAgICAgICAgICAgICAgICAgICAgICAgIAogICAgICAgICAgICAgICAgICAgICAgICAgICAgICAgICAgICAgICAgICAgICAgICAgICAgICAgICAgICAgICAgICAgICAgICAgICAgICAgICAgICAgICAgICAgICAgICAgICAgCiAgICAgICAgICAgICAgICAgICAgICAgICAgICAgICAgICAgICAgICAgICAgICAgICAgICAgICAgICAgICAgICAgICAgICAgICAgICAgICAgICAgICAgICAgICAgICAgICAgICAKICAgICAgICAgICAgICAgICAgICAgICAgICAgICAgICAgICAgICAgICAgICAgICAgICAgICAgICAgICAgICAgICAgICAgICAgICAgICAgICAgICAgICAgICAgICAgICAgICAgIAogICAgICAgICAgICAgICAgICAgICAgICAgICAgICAgICAgICAgICAgICAgICAgICAgICAgICAgICAgICAgICAgICAgICAgICAgICAgICAgICAgICAgICAgICAgICAgICAgICAgCiAgICAgICAgICAgICAgICAgICAgICAgICAgICAgICAgICAgICAgICAgICAgICAgICAgICAgICAgICAgICAgICAgICAgICAgICAgICAgICAgICAgICAgICAgICAgICAgICAgICAKICAgICAgICAgICAgICAgICAgICAgICAgICAgICAgICAgICAgICAgICAgICAgICAgICAgICAgICAgICAgICAgICAgICAgICAgICAgICAgICAgICAgICAgICAgICAgICAgICAgIAogICAgICAgICAgICAgICAgICAgICAgICAgICAgICAgICAgICAgICAgICAgICAgICAgICAgICAgICAgICAgICAgICAgICAgICAgICAgICAgICAgICAgICAgICAgICAgICAgICAgCiAgICAgICAgICAgICAgICAgICAgICAgICAgICAgICAgICAgICAgICAgICAgICAgICAgICAgICAgICAgICAgICAgICAgICAgICAgICAgICAgICAgICAgICAgICAgICAgICAgICAKICAgICAgICAgICAgICAgICAgICAgICAgICAgICAgICAgICAgICAgICAgICAgICAgICAgICAgICAgICAgICAgICAgICAgICAgICAgICAgICAgICAgICAgICAgICAgICAgICAgIAogICAgICAgICAgICAgICAgICAgICAgICAgICAgICAgICAgICAgICAgICAgICAgICAgICAgICAgICAgICAgICAgICAgICAgICAgICAgICAgICAgICAgICAgICAgICAgICAgICAgCiAgICAgICAgICAgICAgICAgICAgICAgICAgICAgICAgICAgICAgICAgICAgICAgICAgICAgICAgICAgICAgICAgICAgICAgICAgICAgICAgICAgICAgICAgICAgICAgICAgICAKICAgICAgICAgICAgICAgICAgICAgICAgICAgICAgICAgICAgICAgICAgICAgICAgICAgICAgICAgICAgICAgICAgICAgICAgICAgICAgICAgICAgICAgICAgICAgICAgICAgIAogICAgICAgICAgICAgICAgICAgICAgICAgICAgICAgICAgICAgICAgICAgICAgICAgICAgICAgICAgICAgICAgICAgICAgICAgICAgICAgICAgICAgICAgICAgICAgICAgICAgCiAgICAgICAgICAgICAgICAgICAgICAgICAgICAgICAgICAgICAgICAgICAgICAgICAgICAgICAgICAgICAgICAgICAgICAgICAgICAgICAgICAgICAgICAgICAgICAgICAgICAKICAgICAgICAgICAgICAgICAgICAgICAgICAgICAgICAgICAgICAgICAgICAgICAgICAgICAgICAgICAgICAgICAgICAgICAgICAgICAgICAgICAgICAgICAgICAgICAgICAgIAogICAgICAgICAgICAgICAgICAgICAgICAgICAgICAgICAgICAgICAgICAgICAgICAgICAgICAgICAgICAgICAgICAgICAgICAgICAgICAgICAgICAgICAgICAgICAgICAgICAgCiAgICAgICAgICAgICAgICAgICAgICAgICAgICAgICAgICAgICAgICAgICAgICAgICAgICAgICAgICAgICAgICAgICAgICAgICAgICAgICAgICAgICAgICAgICAgICAgICAgICAKICAgICAgICAgICAgICAgICAgICAgICAgICAgICAgICAgICAgICAgICAgICAgICAgICAgICAgICAgICAgICAgICAgICAgICAgICAgICAgICAgICAgICAgICAgICAgICAgICAgIAogICAgICAgICAgICAgICAgICAgICAgICAgICAgICAgICAgICAgICAgICAgICAgICAgICAgICAgICAgICAgICAgICAgICAgICAgICAgICAgICAgICAgICAgICAgICAgICAgICAgCiAgICAgICAgICAgICAgICAgICAgICAgICAgICAgICAgICAgICAgICAgICAgICAgICAgICAgICAgICAgICAgICAgICAgICAgICAgICAgICAgICAgICAgICAgICAgICAgICAgICAKICAgICAgICAgICAgICAgICAgICAgICAgICAgICAgICAgICAgICAgICAgICAgICAgICAgICAgICAgICAgICAgICAgIDw/eHBhY2tldCBlbmQ9J3cnPz7/2wBDAAMCAgMCAgMDAwMEAwMEBQgFBQQEBQoHBwYIDAoMDAsKCwsNDhIQDQ4RDgsLEBYQERMUFRUVDA8XGBYUGBIUFRT/2wBDAQMEBAUEBQkFBQkUDQsNFBQUFBQUFBQUFBQUFBQUFBQUFBQUFBQUFBQUFBQUFBQUFBQUFBQUFBQUFBQUFBQUFBT/wAARCACDAZQDASIAAhEBAxEB/8QAHwAAAQUBAQEBAQEAAAAAAAAAAAECAwQFBgcICQoL/8QAtRAAAgEDAwIEAwUFBAQAAAF9AQIDAAQRBRIhMUEGE1FhByJxFDKBkaEII0KxwRVS0fAkM2JyggkKFhcYGRolJicoKSo0NTY3ODk6Q0RFRkdISUpTVFVWV1hZWmNkZWZnaGlqc3R1dnd4eXqDhIWGh4iJipKTlJWWl5iZmqKjpKWmp6ipqrKztLW2t7i5usLDxMXGx8jJytLT1NXW19jZ2uHi4+Tl5ufo6erx8vP09fb3+Pn6/8QAHwEAAwEBAQEBAQEBAQAAAAAAAAECAwQFBgcICQoL/8QAtREAAgECBAQDBAcFBAQAAQJ3AAECAxEEBSExBhJBUQdhcRMiMoEIFEKRobHBCSMzUvAVYnLRChYkNOEl8RcYGRomJygpKjU2Nzg5OkNERUZHSElKU1RVVldYWVpjZGVmZ2hpanN0dXZ3eHl6goOEhYaHiImKkpOUlZaXmJmaoqOkpaanqKmqsrO0tba3uLm6wsPExcbHyMnK0tPU1dbX2Nna4uPk5ebn6Onq8vP09fb3+Pn6/9oADAMBAAIRAxEAPwD9UsijIoyKMigAyKMijIpC3pQAuRRkU3f2pFc7sGldAPyKMimtJhsY/l/jQXwOnPpQA7IoyKbupd1MBcijIoyKMigAyKMijIoyKADIoyKMijIoAMijIoyKMigAyKMijIoyKADIoyKMijIoAMijIoyKMigAyKMijIoyKADIoyKMijIoAMijIoyKM+lABkUZFIze4GOuaZHOkjFN6+YoBZAckZoAkyKMijIoyKADIoyKMijIoAMijIoyKMigAyKMijIoyKADIoyKMijIoAMijIoyKMigAyKMijIoyKADIoyKMijIoAMijIoyKMigAyKKMiigAyKMijIpCwFAC5FMlfauR6+mafurnfiJqUmkeA/EN9AxSW20+4mRh1VljYgj8qcY80lEicuWLkeOfE39rvSPB+oXOmaHYHxBf27GOaYS7LWJxjI3gHcR7DHB5rxbWP2zfH943+iDSdOQ8hYrVnP5uxz27VB+yf4O8P8Ajb4hXCa/BFfGzs/tNvZ3ABWRiwBYjo2M9P8Aayc446X9tD4f+GPCNv4f1PRrO10rUbyd4p7W1URrLGEz5m1cDKnAzj+KvsaVHB0cTHDSp8za3PjKlbF1sPLERqWSexwE37W/xRUkrr9uB6f2dD/8TUtn+2l8TNPZTLdaZfgdVnscZ/74Zf0rxCeQY6nr61Skk9z+de68DhP+fSPGjjcVf+Iz7W+Fv7dGna5qVvpnjTS4tCknbYupWspa2DEgDzA3MYPqSQO/rX1XbzCaNXVldGUMGXvnv9K/HOaQ9B8xJxjt7ZHQ8461+in7E/iy78UfA+0W9laeTSruXTY5HJJMSBWjBJPOFcD8K+XzXLqWHj7Wjoj6jK8wq4iXsqurPfcijIpN1G4V8vc+nFyKMijIoyKYBkUZFGRRkUAGRRkUZFGRQAZFGRRkUZFABkUZFGRRkUAGRRkUZFGRQAZFGRRkUZFABkUUZ968m+P37Qlh8BdI025u9JudXudSaRLaGB1jQFACd7nO0fMOgPXpQB6zu/zijNeIfsu/HLWPjppviXUtVsbTTks7xILa3tCzAIYw3zMx+Y5PUBR7V7fQB8sft3eOvEXgvQPC0ega3e6Mt9cXCXJspPLaRVRSAWHI+8ehrN/4J4zSXHh3xzPPLJPNJqMDPJM5dmPlHkk8mqv/AAUU/wCQL4H/AOvu7/8ARcdT/wDBOv8A5Fbxr/2EIP8A0UaAPrzIoyKMijIoAMijIoyKMigAyKMijIoyKADIoyKMijIoAMijIoyKMigAyKMijIoyKADIoyKMijIoAN1NLnjt657U7Irzb48Sarovw71zxBouv3+jXmlWE08cdqkDRSOBkFxJGx4x2I6mgD0bzORx1p27n2rw/wAeeIfEfw58SeBRD4gvdU0me4uLnWBqEUJdrbdbxfKY41wIzN5nTOFbJNa/grx3rHiH45eJ9Oa4H/CMQWGLG38oAmaK4aGeXdjJBkEiDnH7ugD1rIooyKKADIpG/OkZtuTkAepry/43fHTTvhDpMO6EahrV2rG2sd4RcDq8jc7UBOM4OTx9NadKdaahBasxq1YUYOpPZHqG7HXiuY+KFtcaj8N/FFrZxPc3U2mXMUUUQyzM0TAAD3JFfD/iD9qD4ja1dNMmv/2ZGTlIbG2jRQPTLBmIHqTz6VhyftF/ElenjC+HOeEi/wDiK+gp5HiE1JtHztTO6DvBJlWw+FPxM0m+gvbDwl4is72H5ori2t5EdDjswpPEnw3+LHii+N9rPhrxPql3tCia8gkkYADGBnoPpSyftIfEyMfL4z1Ac/3Yv/iKqTftKfE5uP8AhNdQ/wC+Iv8A4ivpJRxbtLljdep89F4VJrmlZ+hy/ib4e+KPCNjHea34e1LSbR3ESzXlu0aFyCQoJ74Un8DXJTPtxzXXeMfi54x8eabHp/iHxDdatZRyidIZ1jAEgBUN8qg5wzD8a4eeTiuul7S373c5KnIn+72GTScHBwfUV+gP/BP1t3wT1E/9R24H/kKGvzzmlPavvX9he6ltv2ftVkibY/8Ab043D3jhr53iTERwuXzrSWkWj3Mjg54yMV1TPq/ilVhu7V5+uvX3BN3IAD6Dn9K2ND8UPNcpb3WMvwsgGB9DX4tg+K8FiqqpNOLbsj9JngasIuR1WRRkUwM3f0pyt619tc84XIpC2KXNcz8QviNoPwu8M3Gu+Ir1bOyi+VVUFpZpD0jjQcux9B6EngE0wOmz04pPMHHvXwJ4x/bI+I3xQ1r+x/h/pMujRTFlihtLc3d/JjgktgqnOPujjIG41FH+zj+0J48jF3rGt3Ns7gHZqmvS7gMd0j3AfQ4oA/QBmKjt/KgNzg8V+ZvjXwN8af2efJ1O51PVbCz3hF1DTNSkuLZWJ4Dg8AnHRlwfyr6O/ZZ/a0l+JN9H4V8W+RF4hZWazv4VCR34UZKsv8MuPm9GGQACpyAfUufSmtJtxSbiV5P4jiviL9sP4/eO/CXxLvPCmh60+j6RHZQTbrNAk7s4bOZPvAcfw4oA+3lfcx5GP8//AF6dkV5N+yre3OpfAHwheXtzNeXc0ErSXFxIzyOfPk5Zick+5r1nIoARnCjOcCk3H/IqLUJDHY3DIxVljYhh2IBr8zvhx8fviRqnxB8LWF3411a4s7jVbWGWGSUFXRpkUqeOmKAP01zuA3YAPT8q+OP+Cix/4lvgFvun7ReEEjkfJF/9avrDxpBqFz4P12LSGdNVexnWzaNwrCYxsEIJ4B3Eda/NP43aH8WtJtdE/wCFo3N3ceY0osRd3kE+HAUyACMnHVefagD6M/4J28eDfGTDnOpxgdRn9yvWvrnJzivzD+Buh/GHVtJ1Vvhnc3sFjHOq3v2W8hhHm7OMiQg/dAr7K/Zd0n4o6TYeI1+J015PcvPEbFrq5im/d7W3YMZIHOKAPL/+Cin/ACBfA/8A193f/ouOp/8AgnaceFvGv/YQg/8ARRqv/wAFF226L4G6f8fd2Of+uaV5V+zf+0Zo3wF8C+KxdWc2q6xqF5G9nYx4RSqxkFnc5woOOgJ56YyQAfoxk+nFBbFfAC/GX9ob43MZ/C1jeWGlMSE/sa1SGEf9vEv3sexH0Fcd4s8Z/Hv4S31vL4i1vxPpbu2IZbu5E9vK2eFyd0eT6fWgD9MN3QH0pcivmP8AZc/awk+KV6PDHimOC28SlGktbuEeXDfqv3ht/hkXBJHcdhivprceQME4z/n60AKzY6c0nme3bNeU/H79oLR/gb4fjluYzqOvXgIsdLifDSdi7nqqD16k8Cvi2P4gfG39pTWri30i91KeAY8y20eX7FY2wJONzgjOf9pie/0AP0pZtp7e1CuGr86b79l/46+E7X+0rOe6mkUeYU0vX389fpllyf8AdJ9Pernwm/bK8afDvXP7M8btc+IdKhkMN1HeR7dRs8dcEgGQjB+Rsk/3hQB+heRRkVmeGvE2m+L9Ds9Y0i7jvtMvI1lguIvuupH8x0IPIOQeQRUHjHxpovgHw/da3r+o2+l6XbAeZcXLbVGTgD1JJ6AAk0AbW4U3f+VfEfj79uDxR421b+wvhfoE0TTsUguZ7cz3s/UbkhGQg7gtuPHIWss/AH9oz4iQC513xNNZK43C3v8AWHjxx3jgBRf50AfeO70oDAjOa/Mbx58KfjD8DEXV7y91S0sEYf8AEy0nVJpIoyem4ggrn1Ix2716r+zh+2TrMXiKw8N+PLsalp94629vrLhVlgkYgKJSvyupOBu6rkZJBoA+5cisfxh4Xs/G/hbVNA1B5kstRt3tpmgYLIFYYJUkEA/UGtWOXezDGMf5/nn8qfkUAcx4o+H2leLpoZL5rgeVY3WnqkTgAx3AQOTkHkeWuD2561V8H/C3RvBN9ZXeny3bzWulrpINxIH8yMSGQyP8ozIzsxJ6HJ4rscijIoAMiijIooAjk+6e4x0x1r83vjd4vk8ZfFLxFqLSl4kumtLfuBFEdgAz6kM3/Aq/RXXL46fo19drjMEDy8+yk/0r8q5Lkzr5rNuZ/nJPXJyTX1fD9NOpOo10PkeIKjUIQQyeTnJJJ/z+f41Tklp08n86pTS/KSOTX2PmfIppIJpM1SmfHetPRPD+seLL42WiaVeaxdjrFZQtKw/3toIX8TXVP+zr8UJOngXVypGfuID+rVjUrU6b5ZSR0xw9WWsYtnms02KozTFq9Mm/Zv8Aio3TwHq5H+6n/wAVVY/s1fFbd/yIOsY/3E/+KrJ4ijb4196NVha/8j+481bOCcbvavv39i6ym079nOeSVCiXmt3EsLHo6DYhI9sxsPwNeB/Df9ivx94n1SGTxPaL4P0OM7p7i6mja4ZQRkIik4OD1bjivtW3s9N8P6Dpfh/RLcWmiaXAtvbxL6AYyfX1z6k561+WcfZ9hMNls8Iqic57I+y4cy2t9ZVeUbJIV5OSAe9V5LgxYYHBU7vxFNZvmPNV5G3fhzX8kyrNO97Pc/Xo001Znrmm3AurOCbOd6A/pVsVz3geYy6DCCc7GZR+BNdArV/UeV4h4rBUa73cUfB1o8lRx8xWwwx1FfJf/BRAD/hCfCHf/iaSdf8Ari3bv1r60avkv/goh/yJPhD/ALCkn/olq9UxMj/gnNGn2Xx7IVXzBJZKHx8wGyXgHsOBx0r7KCheBwPQV8b/APBOX/jx8ff9drH/ANBmr7KyKAM3xD4f0/xTod/o+qWy3mn30LW9xA/R0YYP/wCvqOtfkz4l0rUfhb8StTsbW4aHU9A1Nlt7kcNvikzG+fcAH6H3Nfrufm4zivzH/bCsksP2ivFaxqAsi2szD628ef5UAfol8N/GEHxD8C6D4kt+I9UsorkqP4WZfmX8G3CvgT9uP/k4LUef+Yba/wDoLV9T/sQ6i+ofs/aRG7bvsd1dWy+yiUsB/wCPV8sftyf8nBaj/wBg21/9BagD7D/ZH/5N08F/9e8v/o+SvX8ivIP2R/8Ak3TwX/17y/8Ao+SvX8igCtqX/IPuv+uT/wDoJr8kvhT/AMlS8Hf9hqz/APShK/W3Uv8AkH3X/XJ//QTX5JfCn/kqXg7/ALDVn/6UJQB+u3r9a+Nv+CjCj+zfAPf/AEi84/4BFX2SO9fG/wDwUZ/5BfgL/r4vf/QIqAND/gnfz4L8ZjOMapFj/vwtfW/Havkn/gnb/wAib4z/AOwpF/6JWvregD48/wCCivOjeBv+vu6/9FpXG/sQ/Bfwr8RW17XvEdi2qTaVdRRW1rM2bblN29o8fMQfXj2rsv8Agop/yBfA3/X3d/8AotKn/wCCdf8AyK/jb/sIQf8Aoo0AfW8VvFBCsUahI1AVUUYUAdAAOg+lc98RvAmmfErwXqvh3VYUntb2EoC45jf+B1PZlOCD7V02RRQB+P8A4V1S88C+PNIvo38rUdJ1SNiw7vHKEbj0IG0+xNfrtd3KWNnNcTyiOKNGdpH6KAOSfwGfzr8jPFCg/EfWc/8AQam/9KWr9Ov2hNSk0j4G+ObqE7XTR7lQf96Mrn9aAPzc+JXjbU/jl8VLnVFdpJ9WvFtNNhbpDCz7IVAHTggn1JNfpv8AC/4caX8LfBmneHtLhEcVtGPNlH3p5SPnkdv4mJzz2GB0r81P2dbOO6+OngSA8qNVjcA4xlAWB/NRX6sj1z9KAG+WuDj5fUjivj39vT4Q2r6LafEHTrdYry3mW01IxjBljY4jkJHdWwue+/BzX2LketeW/tRWSah+z745iYZ26c0q/wC8jB1P4FRQB82fsC/FS5sfEWqeArybdZXcb3+nq3SOZSPNUegYENj1Rj1Jz6l+3wQ3wOtWB5GtWxVh1Hyy9P8APevkD9mbUJNN+PvgaSJyrTah5LMOpV0dSP1r7A/b3/5IdbZ6/wBs23/oElAHkX/BPONX8feLyVXK6bDg4HH705/kK+7QqqcjNfCn/BO//kffGP8A2DYP/RrV925FAFPVNLtNa025sb2Fbm0uI2ilicZV1YYII/GvyM+I/hxfBfjjxToUMhZNLv7i1ifqRGkjBB9QO/vn0r9fia/J39oNj/wun4hD01e6P/j9AH6meEbiS88K6NczOXmlsoXdj3YxqSfzrXyKxPA//Il6B/2D7f8A9FLW3kUAGRRkUZFGRQAZFFGRRQBn63aDUdHvrTP+vheL/vpSP61+T8itbExPw8Z2MPRhwR+dfrY2GUg8CvzG+PfhOTwP8XPFGnPGY4Hu2u7dgPlaKUmRceuNxX/gNfU5DUUZzg+x8pntNyjCa2OAuJflPeun+Enw1vPi78QNO8OWjtBFIWmu7lesFuv329ifuj3YVx0shzX09+wXDG2tePLzH+kw6dbxpJ3ClnJH5op/CvoczxUsHg6leO8U2fP4ChDEYiFKWzZ9L+GtF0f4c6LDoXhSxh03ToVA82JR5kxH8bN1Ynnk1eGq3mSTdy/niqisPQDvx/n/ADmo2cZ61/FePznGYyvKrOpLV99D93o4SlTgoRjsX21i7Xpcy/8AfVQNrV72u5l/4FVJpu2arSSbuhrxp5jiU7e1a+bOyOGpveJZu7+4um/eTyPjpuYkD86ptJ1pjS9eartJ83WvGr4qpVfNUk5eup2wpqKslYkaTk1A0vzD61G8w5qD57iRY4+XdgoHfnivNlJ1GoR3Z2KKSuz1b4fqR4didhjezMPoSa6VaoaPYjTdNt7cHPlxhfxq8rdK/rnKqDw2Bo0ZbqKPzSvLnqyktritXyX/AMFEP+RJ8If9hST/ANEtX1o1fJf/AAUQ/wCRJ8H/APYUk/8ARLV6piZX/BOX/jx8ff8AXax/9Bmr7KyK+CP2F/it4W+H994m0nxBq0OkXGrPbNaS3R2wsU8xSrSHCqfmGAcdDzX3jDci4jSSJkljddyujZVh2II7e9AErNhcg4+tfmB+1rqkWrftDeL5I33rG8NqSP7yQIGH4Hj8DX6D/Fz4u6F8H/Cd1rOs3MYlVD9lsQ4Et1Lg7UQdeSOWxgAEmvzA03Tdc+LnxAW1t1N5r/iDUJHLYJXe7s0kh9EUMSc9AAOtAH6AfsS6TJpn7PujSuMC9ubq6T/dMzKp/Jf1r5W/bjx/w0Ff84/4ltr/ACav0F8F+GbXwT4T0nQLIH7LptrHaoSANwRQC31J5PuTXwt+3t4Uu9P+LVjrxRmsNW09IYpMZBmhZgyfkyHr03HtigD6m/ZHP/GOvgv0+zS/+j5K9fyK+Sf2IPjlpE3hCHwDq17FZatYyyHT/PbaLqF3LbVJ/jVmYFeuCDX1m0mAT1HT0oAh1L/kH3X/AFyf/wBBNfkl8Kf+SpeDv+w1Z/8ApQlfp18VPjB4U+F+g3M/iLWbexkaMiO1DB7iQkEALEPmP16e9fmN8K+Pij4O4IP9tWec9v8ASE4+vWgD9dR3r43/AOCjP/IL8Bf9fF7/AOgRV9j+tfIX/BRPTbifwx4Lv0jZ7a3vp4JHUZ2tJGCn5+WaAJ/+Cdv/ACJvjP8A7CkX/ola+t6+Nv8Agnbr1r/ZfjTRzMq35uIb5Yj1aMpsLKO4BAz6bhX2PuJ+ntQB8ff8FFP+QL4H/wCvu7/9Fx1P/wAE6/8AkVvGv/YQg/8ARRqD/gop/wAgXwP/ANfd3/6Ljqf/AIJ1/wDIreNf+whB/wCijQB9eZFFGRRQB+Qfij/ko+sf9hqf/wBKTX6mfGHQJPFXwo8W6TCpknu9LuI4kA5Z/LO0ficCvyz8Uf8AJR9Y/wCw1P8A+lJr9em/1fpxQB+S3wR12Hw78XfBGqzv5dvDqtv5jMMbUdgjN+AYn8K/WlW65PNfmB+078Hrn4R/E6+WCFotD1SV73S5o/ujJ3NFnsUJx/unPY19w/s1/HCw+MHgG0LXKf8ACR6fCkOp2jHDhgNomHPKPjIP1B5oA9gz6c15H+1lq0ek/s9+M2dgrT2gtlycZaR1TA9+TXrLSbcHqMZ4NfD/AO3V8arLXfsfgLSLpLlLOUXuqTRnMauoPlxZ/ixlmbHQqvfigDyH9k/w/J4g/aA8JLGGKWU0t9I2OFWONiPw3Mg/Gvq/9vZt3wNtcHP/ABObU/8AjklYP7Cfwdn8M6Jf+ONWt2gvNYjEGnxSLho7QEMXI7GRtpx6Kp71v/t8Y/4Ufbf9hm2/9BloA8j/AOCd/wDyPvjH/sGwf+jWr7tyK+Ev+Cd//I++Mf8AsGwf+jWr7tyKAEPb61+Tn7Qf/JaviF/2F7n/ANCNfrGe31r8nP2g/wDktXxC/wCwvc/+hGgD9SfA/wDyJegf9g+3/wDRS1t5FYngf/kS9A/7B9v/AOilrbyKADIoyKMijIoAMiijIooAY2G4Bx714v8AtHfs7Wvxq0u3ubK4j07xJZArbXcqFo3jJyY3A5xnkEcg+te1cUjKGxz0rSlVnQmqkHqY1qMa8HTnsfmjqn7JvxXsZ3hXwt9rCk4ktr2BlYdARlwfwIB9q93/AGP/AIR+L/hlP44l8UaJJpMd3ZwJbs80bhypl3fdY9itfW+1frVLWQBpd2c/8smP/jtdWZZpWxGCq05dYv8AI8/C5XRw9eNSPRnnbSY/Kq7yZNNkk5qB2G7rX8eVKrvdep+rU4aIsW9rPfTGO3i81wNxUEDj15PvVg+G9VbpZsf+Br/jWXHdSW8haKV4mxjchwad/bGpSOscV3dM7HAVJGya1w9bL3TUMTGcpt/Zt/w5E6de94yVvMut4W1br9if/vpf8ahfwjrLHiwbH++n+NQahfa5pzBbu4vrct93dKwz79a7v4e3lxfaVNJcTyTMJmXc7EnoK+kyvLcrzfH/AFJqpCVm7O3Tuc+IxGIw1JVU4teVzhm8Gaz2sHz2+df8a6bwh4HksL4Xl/t3pzHECDj3J9a73ik2j1r9Iy/gfLMvrKunKUk76s8Otm2IrQcHpcQY49KcuKAB60vFfoe2x4wjV8l/8FEufBHhAdv7Uk/9ENX1o1fJf/BRD/kSfCH/AGFJP/RLUwPD/wBmr9nfS/j74d8Xi61G50rVdNltxZ3UQEiASLIWV0PUZVehB966Kb9l747/AA1klg8Latc3NgT8raHrDW6n3MTsgU+w3D3ruf8AgnN/x4+Pv+u1j/6DNX2TxQB+cFv+yP8AGTxtqq3WuWZgkY4a91zVFlZATz91nbHfA9K+uP2ff2adD+B9rJeeadY8S3MYjuNUliCBV/55xL/Cucnk5OfTAHs/FIqqrEjrQAbRzz17VynxM+Gfh/4reE7nQPENr9ps5vmSRSBLDIBhZI2PRh+XYgg11uRSHB70Afnn46/YT8e6LqEn/COz2Piaw35jZrgWtwvpuV8Ln3Dc56ek2k/s/wD7R62i2MWo6nptpjb5cviUhQvoAkjED2AxX6CLGqtnvTjj60AfFHg7/gn7qd/qAvfG/i3O47pIdLVpJn9QZ5B/7Ka+bPhnZk/GjwvbQcoviK2iVc5+VbhcfjgGv1X8Ta1b+G/D2p6rdOsdvZWslw7M2MBVJr8xv2Y9Hm8TfH7wYqoT5d8dQk/2VjVpSfzXH40Afqb+nNc38QvAej/ErwjqHh3XLf7Tp94mxguA6MOVdT2ZSAR9O9dJnv2o4oA+Bta/Yq+JvgHxEup+B9Yg1ExMxt7uG7+xXUY7Bs/KeAM4IHA4r6U/Zt0/4qadpesx/FCZprgSxjT90kEjCPad+Wi+8c45bJ969k4o49aAPn79rT4G+I/jdp/huDw7Lp8UmnTzyS/bpmjBDooGMK3p+tTfsl/BDxH8EdH8R2niGWwlfULqOeH7DK0gCqhU5JVea97AAAAPAo460ALkUjNgZ/nS5FHFAHwLrX7D3xF1DxdqOpRXWgiCfUZLtA13IG2NKXAx5fXHvX3v95QCcfSncdepoGB3oA5T4lfDTw/8VfC8+heILT7TbSHdFKrbJoJB92SNuqsPyPQ5HFfGfiT9iT4i+A9dTUfAetQ6gIWJtpork2V5EPTI+XsOjAcdO9ffBwe9IcN15oA+A5/hb+1F4ktjp1/f6uLV/kkWbWoIlYf7Rjfcw/Ou/wDgz+wfbaJqVvq3j6+t9VeJhNHpFirC3MmQcyuwBf6AAHA6jg/XowOM8UDAzQA2KKOFQsYCIoCqqjAUDoAK8i/ak+FetfGL4awaDoMlpHerqMN0zXsjRp5aBw3IU8/MO1ewZFIcNxQB8yfsm/s5+Kvgp4n8Qaj4hm0ySC/s44IhY3DyMGVyxyCi8YNfTmRScUuRQAjMAK+Ffip+xZ8QfG3xE8V67YXGhpZapfzXMAnu5FcKzZGQIyM496+68j1pu1doHUD1oAzvDNjLpPh3S7G4KefbWsUL+WcruVADj24rTyKQYBzk9KXIoAMijIoyKMigAyKKMiigAyKMijIoyKADIqrqcP2qxnhBw0iMo/EGrWRSNzWdSCqQlB7NWGnyu543MHhkaOQbHU4ZTwQarPL81eoa14UtNZO9i0U//PRMZPsa46++H+pQyHyJIrkdhnYf1r+c824SzLBzaoQc6fS2rPtMLmNCpFKbszmWl61qeEdXtdL1xJrshYipUORwpOOT+WPxofwXrQbH2Jj7h1x/Oprf4e6rKw3iO3Hq75/Qda8DAZbm+HxlOvSw8m4tPVaHfWxGFqUpQdRamv4/16wvtNjtYJUuJd+4mM7tgwe9b3w/sJdP0FBMNryuZcexAx+gqpoXw7s9NkWa5c3Uo5ClQEB9cV1yqFPHT0r9vyfK8bVx8s4zGKhUasorXTz8z5PFV6MaKwtB3ine7H5FGRRkUZFfoB44ZFGRRkUZFACM3HHrXyV/wUQbHgfwgT/0FJP/AES1fW3FcZ8UPhL4X+Luixab4nsTeQQyGWCRJWjeF9pXcpB9CeuRz0oA+aP+Ccp/0Hx9zz51l/6DNX2VkV5N8Cf2f9N+BFz4jGlapeahZavJDIsV6ql4PLDjbvGN2d/XA6V6zkUAGRRkUZFGRQAZFGRRkUZFAFTVtWstD0+a+1C8gsLOEAyXNzII44wSACzEgAZI7968r8TftZfCzwzDIZPFtpqMy9INLVrtmPoCgK547kV3vxE8G2vxE8D634avH8q21S1ktmlC7jHuHDgeoOCPcCvm/Rf+Cefhe1kB1fxTq2op0MdvFFbhh1Izhj+vagDyH9oL9rTVPjHanwt4Z0640zQriQLIrZe6v+eEKrnap/uckkDmvbf2Of2cb74bxXHi3xPb/ZdevoBDbWLY32cBIJ3+jvgZA6AY65A9i+HPwF8CfCs+Z4f8P21te4wb6bM1y3/A2yR9BgV3yxojFgMGgB/HrRkUZFGRQAZFGRRkUZFABkUZFGRRkUAGRRkUZFGRQAZFGRRkUZFABkUZFGRRkUAGRRkUZFGRQAZFGRRkUZFABkUZFGRRkUAGRRkUZFGRQAZFGRRkUZFABkUZFGRRkUAGRRRkUUAGRRkUZFGRQAZFIzenNLkUjfMMA0AMYjrnFMM8a/xj8Kglt3Zj3qnJazM3A/Kl1uL5Gl9oj/vUv2iM/wAf51k/Y5/RqVbOdT0/OgenY11KnowI9BT1bn2qhHbSADsauwqyr8xoQvkSZFGRRkUZFMYZFGRRkUZFABkUjYZcZxS5FGRQAgwKXIoyKMigAyKMijIoyKADIoyKMijIoADg0nFLkUZFABkUZFGRRkUAGRRkUZFGRQAZFGRRkUZFABkUZFGRRkUAGRRkUZFGRQAZFGRRkUZFABkUZFGRRkUAGRRkUZFGRQAZFGRRkUZFABkUZFGRRkUAGRRkUZFGRQAZFGRRkUZFABkUZFGRRkUAGRRRkUUALRRRQAU1ulFFAAtKaKKAEyaBRRQA6koooAWiiigAooooAKKKKACiiigAooooAKKKKACiiigAooooAKKKKACiiigAooooAKKKKACiiigAooooAKKKKACiiigAooooAKKKKACiiigAooooAKKKKAP/2Q==;" parent="rmpsdoVU6oN7jqYleleH-2" vertex="1">
          <mxGeometry x="30" y="80" width="218.96" height="71" as="geometry" />
        </mxCell>
        <mxCell id="GIPEAf3Tnj1e-WWM6_0W-4" value="" style="image;sketch=0;aspect=fixed;html=1;points=[];align=center;fontSize=12;image=img/lib/mscae/Docker.svg;" vertex="1" parent="rmpsdoVU6oN7jqYleleH-2">
          <mxGeometry x="334.92" width="71.95" height="59" as="geometry" />
        </mxCell>
        <mxCell id="rmpsdoVU6oN7jqYleleH-12" value="&lt;div style=&quot;font-size: 16px;&quot;&gt;LLM&lt;/div&gt;" style="text;html=1;align=center;verticalAlign=middle;whiteSpace=wrap;rounded=0;" parent="1" vertex="1">
          <mxGeometry x="1201.11" y="264" width="60" height="30" as="geometry" />
        </mxCell>
        <mxCell id="rmpsdoVU6oN7jqYleleH-15" value="" style="endArrow=classic;startArrow=classic;html=1;rounded=0;strokeColor=#0080ff;strokeWidth=2;entryX=0.006;entryY=0.515;entryDx=0;entryDy=0;entryPerimeter=0;" parent="1" target="GIPEAf3Tnj1e-WWM6_0W-2" edge="1">
          <mxGeometry width="50" height="50" relative="1" as="geometry">
            <mxPoint x="1060" y="200" as="sourcePoint" />
            <mxPoint x="1140" y="200" as="targetPoint" />
            <Array as="points" />
          </mxGeometry>
        </mxCell>
        <mxCell id="rmpsdoVU6oN7jqYleleH-16" value="" style="endArrow=classic;startArrow=classic;html=1;rounded=0;entryX=0;entryY=0.55;entryDx=0;entryDy=0;exitX=1;exitY=0.5;exitDx=0;exitDy=0;strokeColor=#0080ff;strokeWidth=2;entryPerimeter=0;" parent="1" source="rmpsdoVU6oN7jqYleleH-1" target="qV9nBuxsTvqUA0ls7C7F-1" edge="1">
          <mxGeometry width="50" height="50" relative="1" as="geometry">
            <mxPoint x="510" y="304.5" as="sourcePoint" />
            <mxPoint x="611" y="305" as="targetPoint" />
          </mxGeometry>
        </mxCell>
        <mxCell id="rmpsdoVU6oN7jqYleleH-24" value="" style="shape=image;imageAspect=0;aspect=fixed;verticalLabelPosition=bottom;verticalAlign=top;image=data:image/png,iVBORw0KGgoAAAANSUhEUgAAAEcAAABBCAYAAACD6bkCAAAAAXNSR0IArs4c6QAAAARnQU1BAACxjwv8YQUAAAAJcEhZcwAADsMAAA7DAcdvqGQAABK8SURBVHhe7Vx3VJTX9s2faStZ6+WfJCvrpdhii/kZfU/jMybRFKMmT3/RmNhLLLHFhklEFLvSBKQISAcRKUrvwiBSpYkUAWnSe8eW/e6+zvhgHIgwqHlrZa911zgz3/fNvZtz9jnnFp/BX+gVf5HTB/5nyLl79y5u374tX58UBpWce/fu4ebNm0hLS0NSUhIyMzNRXl6OO3fuKK/oic7OTly9ehWRkZEICQnBpUuXkJOTg46ODhQVFcHb2xuHDh3C6tWr8emnn2Ly5MmYMWOGfH/8+HGEh4ejtbVV+bTBx6CQk5ycjE2bNmHUqFEYMmQI3n77bbzzzjsYNmyY/Gz06NGYPXs2DA0NceXKFUnI1q1b5fdv/v3vePPNNzFixHDRRmDkyHcxbtw4+R2f9cEH4/HD9wvx0/p12LRxA9au+REzZ36JYUOH4tVXX8Xw4cOxf/9+VFZWKnszeNCKnJaWFmzevBkvvPCCGMQHOLBfH37nfaBQxOByXBxiFQqEhYbAxdkRv+7SwZQpH+KVV17BSy+9hLfeegtHDx9CRHgo0tPTUVRcLEjLEtYTiwu+3ggNDkJ1dTXaOu+iuKoZ2cW1yLpRi6KqJrSKzzo6u5CSnIR9e/XwxhtvSCLPnj2r7NngYMDktLW14ZtvvpF/vTPu7ujq6kTezQb4xObCzDsBh1wUOO5+CbYBqQhKLER6QRWq65qQl5cHN1dXVFaUI7+8Ea7hmdjrEIXNZoH4xToMhmfjcD7uOq6L74jo9CLM1zuDsUtP4INVJzFhtQWmrLfGyiNecA3LRGVDO2qqK7Fu3To899xzOHr0qLxvMDAgcn7//Xfs3LkTfxNWkJyUiIb2O9hhEYTJ66ww4gcjvLvIGKMWG2OkeJXvRfvnGgvM2uWMjMJq3PkdOOKmwD/XWmLE90biWhOMWWKC0aKp7uGzVhzxRnxWCWob23DY5SLGLjuB9wRJ45abyuv5OzN+toNTaBpu37kLaytLSZCRkZHUP20xIHKoGc8//zzsT9uhrvUWvvnVRRBgjHHLTPF/K8w0NhKkaxuGuuYOrDXwlde/18f1fBZJIxEkpq2jC25h6XhfvO/+O7QoXqdrGw7GMVPTE3j22WcRHx9/v7NaYEDk7NmzR4pne1srdotOceDdB6be+Neeud0edU1tMDgTK/7ifV/fvZEMWtNKYUV1Te1wCkmVpPLzB9eIxmuOuMagvaMdEydMkFqoLfpNDs2V4vuLzk4UVTbhXxtO9WkBbHQXh6AUIahVmPijRZ8W1lujpa057oNWYUH7HSOl23b//j3hcv8Qz84uqcPu337Bxx9/rOzxwNFvchgyhw0bCk+PM/CPz5f60L2T6o2dnrbRBmU1TTjoFCV1QtN1j9JoHUfdoqUF/lu48tglJ3p+LwiLSCuB5UkzmRdpi36Tk5WVJXOYiIhwWPgmyQ5376B6o3CuOuaNprZOfLb1tHQxTdc9Snt/udAi8ZqcexN+sdny2d2/Hym0J+xKEawsT8pkUVv0m5zExESZoKWmpkLf8SJGiw5176B6o6XY+SfJAU1cfVK6IN1KXTf+qFFXaIVDvzPAyqPeqBXW8/+7XaUgq64ZJciKziyDqYkRvv32W2WPB45+k8OyYPToUcjNzRViHPGH5FAbLmUWwzHoCoYvNJS5yhfb7DFbx0lqRPfB9dZIJqPW1yIV2HzCD7ssg1Fa3Qhrv6QH2sNrJq+zxDWRLO7S2QE9PT1ljweOfpPD2mfs2LGSpMOuChlG1QejanQDvqbll+NMZCZMz8WhqLxe5i2VdS3Iv1mHTSZ+0iLU71U1DvpDkfP4KK5Ja7lWVC2yZZE5d9yCd8w1mfvwd0jynF+cUSESzXlz/41z584pezxw9JuchoYGjB8/HoEB/nAITpNRRNOg2Og2jE4ZBZW4dfuuGFSNCLfR2GDsBz27cHjFXEV9c7u0ot4saOxSE1j6xKNUCLq5ePW6mIn5e9wQmVIg7s/CGHEfXY4WvMbgvMiWa2Q9Rm3UFv0mh6F86tSpcLS3Q0jyjT5zFpIzaa2V/Gu7h6dL1xgiNGOPSAaZ0ToFpyIjvwLWvgkahZ1Ww8ya15z0voyfzQLgq8jCRyJ9iBDkuIicR+VWJMfGPwVXRL31+eefD0q13m9yiPXr10Nn5w5cvVGDSWss5aDVB8ZGciYIy8ksrMQ++4gHySK15od9ZzBtgw08hLuFJefLMKx+v9QRQW6OINfAPUbez894f6awRiMPkVAqLfc98VtZxXU4fOggtmzZouypdhgQOc7Ozvjkk49RVlmHOUIkadrqA2MjOeNXmku3OurGwd0fCD+nGw3/3lCkA/FIzSt/8HnP+++/hibk4cKlbHk/75u+2Rb5ZXXQtQnFKGFx/P35e9xR09CMuUJv/P39lT3VDgMih5NZzHXq6+tkcaieraraA3LyBTkitVfXJ77Xd4hErhDYf/1kLcN79+/ZOHhDDwVySmqEFVnK3Gb6FjsUCDH/TZBDd2QGzpwrMz0NH300FU1NTcqeaocBkdPY2IhJkyYhLlaBU34psnPqg2IjOf8QbndVlA0HHKMe0hW+/9U6BIVioDO22GpMEPnZnF1OMsJtFEJOQj8UJGUJVz3urpBV/STxntMfR48cho6OjrKX2mNA5HDKYvny5dDfp4f0wppewzkt4RPhArmltdgpchP160iOvtCiXBHFpgrLoZ50/17VaC0BcTkyX6K+8blxmSUyuaTA/2R0QVrLjM9mDEo1rsKAyCFsbGywYMG3qGpok2auySXGiNrna5F7FFU0YKUoIR5K9wU5tiKRS8652auos9EyF+8/i6bWDqwWzxkmrCVCiDgjIJ+hEFmxt5cn5s2b1+t89UAwYHI4o/f++++joLBQWEXIQy7DRqGcI3KYosoGrDM838P9VHqkSC+CZ2SGxmilahRmkh8shJnWM2apKcISr8NZhPIfBGktbe345uuv4evrq+zd4GDA5DDfmT59OoIC/UQyli21QRVd/jsokQSKeop5jsEZRQ9BZtT5VtcNLe1dWHLQs9eIp2q0ugV67mgWBexW8wDEXRXVt8iPQpILERzoj6+++grt7e3K3g0OBkwOwdWE5cuWorqxQ0YbTZpBi7LzTxbRpR5T1lthrNJ6GOHoFimiIJ0gCBynRqymRjd1DUtDfVM7ioU12ojn1je1YPasWfDy8lL2avCgFTlcNWDUqqmpltmrJmFWiXKhqKn8haiynGB+Q6JYW3GOR5NLamq0tlk6jrLGKq1qRF5ZA1ycnfDdggXKHg0utCKHq480ZzcXJ0SkFvca0knaskOeuPu7KFzFgH6zCRNJoUKE51bhWq7yPnWX7K0xdLP8uCvcuqKiHO+OeBdr166Fm5sbzMzMZPY+c+ZMODg4yKiqDbQih3BxcZGLbI0t7Zin6/5QRJKuJoTXNzYHZaWlcgaxqOgGOjs6wK7fEBZ1XCSILB7VM2T1RiucLvKh4Phc+dvF4jkmRoY4uF8fxkYGcHR0kCunq1atknPcdXV18rqBQmty2IEJEyYgVhEtCMjr4SIcLMmyC0hBk0gcOTv3zDPPYMyYMbiem4Ok3HIYCqFubOnEmuO+fzg3RM1h6KeLLjt4DhY+CYgRYTw266YsgtMKqmWf+AebMmWK1gKtNTmEiYkJ5syeJUIq8xDfB9pD0T3kHI02EWrXrVuLoUOGYMWK5UiMj5PTFzO2nsY7IonLE3WShai6e3NLNhL9wSozXMoowtmLV4X+iFRglblc35otcinjc5dRVtsCRUyMnKk8deqUsncDx6CQ09zcLIX5tJ0tKho6MFsUo5x432UVgq7bd+Ds5IigoEDUNjShoLwBHlFZghg7DF1oCF27cNy6cw+WXn2TQ/fk9EV6fgVuC/HKv9kg6q06mYS2d3ShsCAfe3R18fLLL2Pjxo1yR4a2GBRyiKCgILkhIDQkGPWtt5EqTLyj6xb09PZg8aJF8hrP6GxsFlGNFfQqYWE+imy0dXTKpWQTj9g+3Yp6M22TDcqFddiK7Hznju3Q3f0bVq1cISffXn/9dYwcORLm5uaDQgwxaOQQjBbsJHdCmJuZYpnIgZhFv/jiizhw4ACui6y6qqYWNfWNUqsuX4rFwu++Q1pqCk54CsvpixwRxmfucEBDcxtmiOSTEWr37t3Yu3cvbG1tERoaqrUAq2NQySEuXLiA+fPnY+7cubC3t0dtbS0sLCzwtUjv+Rf+9JNPxL/nSMGcM2eOJDM+LhZmXvF9ksMcZ95uN9TWN2C20Lfr168rf/HxYdDJIZhfqO/AYkFYUVEhNzQlJCTIifqaGlGNT52KqMhwWJ1P7JMcRj1OxhcXF+PLL75AVVWV8smPD4+FnEdFV1eXrM+CAwNg45f8UI7UvTFFMBaudylWISxutrz3ceOpkzNL1EXe5zxFzZTRZ7QiOd4ikXR0OC1d9kngqZJD1+McjIW5mayuqSuaiGEbLRLAqPQSGBockyXCk8BTJYdgqv/LLh0k5lRqnDBj40TYxNXMcaqwfdvPMio+CTx1crZt2yZzlcLKZoxfYS5rLHVyqEVzf3NFZU0jPvtshqyfngSeOjncMvvhh5Nl9rzkgKdcbVCRcn8G8ASGi2zbxv8KMtJTZaJXUlKivPvx4qmTw10b3FsYER6GlPxquZeH4stGDZq28ZSMUi3tnUKf5srSYDD2+z0Knjo5TPUZsbhXuUDUR1xisb6QAhOvBLkztbyuFUU3CrF48SJMnDgRZWVlyjsfP546OURBQYHcnf7aa6/J5dyLURGIuRgFd1cXLFmyWLrSggULcOPGDeUdTwZ/CnIIlhncIjtt2jRJBnexf/nll9DX10dsbKzWs3oDwZ+GHBWY+3AD+GCvJAwEfzpy/kz4i5w+8Bc5feAvcvrA/xQ5eaW1OBuZAbuAZLiHpcn55Hv3ekax62V1OBeVCRu/JLiHp8ld8/eUkY5b7bjpia+PAo3kMGIwp+CEVHZ2ttx8yBN3TxM+MVlys7dT8BWEJl6XJPGAyQnPODn4W2LA3K36k/EFeZQgJDEPrqFp2HzCX66qcvcpN2f+KO6pbni0/YIayWHOwakETlZzqwmnOXmeietB/c03ONvHY4nagAPniml8VrHyk/vgsjCnTq8WVsJeWJOOZTBa23tOgnV23cZ+h0gcc4uR5KzRlhxayaJFi3rMtvHs5sKFC+VW2/7AyspKbujWBlzeWaTvgYRrDxecF1MLkZRThsUHzqKk6v4BNnWQlKWS3BKsN7qgHTmc6126dGmPeWBuXV22bJm0BB48pUVx1v/y5cvye95Dy/Lw8ICTk5OsgTIyMiTJxsbG8kBJcHAwrK2t4erqKu8jaWw8+Mo5Gh4Z4Huue7NxuUfVB/vAZCzcewbOwalIzC5FQ8t/rTEp5ya2mPqLa3svSPfZR8qdYBtN/LQjh5PXPKLIzkVFRSEiIgKHDx+W6b2np6ecZuAgrl27JpdGmN5zOwq3gdDqLl68KI8T8t880RcYGIjTp0/LZ1DHuPGJZ7YOHjwoXXfNmjVISUlBTEyMXG6hzvF0sKWlpSScoDvTQqx8E7DjZBA2CG3ZfjIQESn5CE/OlztL+8Ix12iYnI3FJqFBWpHDg6esa7ikSivgwDjBxLSeZHSvjHkymIOmFXGwJCo/Px+FhYXye1oET/bxLAJXDlTgVAXJNjU1hbu7u/yMFkZCSB5JjIuLk1MUrW3t6LrVcztbg3CV2IwifKfnDkP3WGwzC+wzCu2xC5NCvUFby9HkVgQ1SFdXVwq2Coxk+/btw61bt+R+HZ7QPXbsmCSDQsx1dH7O96Wlpcq77h8wITkU++joaPnZkSNHJFm01LCwMNmChfVmF1Vit02YFGZ10JL0HSKwXGgKt+NqQlW9kISDnnKj1Dqj86jRVpA5RUBL6Q6aNgfDvzTnYfg9B0NCOFDVeQOSqNInuiAtgBpC16NFsKnc6uTJk9J1CYVCIYlVFZ20VgcHezSLCPT9Pg+EJPQUduY4280D4BV9Fb4i1K839EVFXYvy2/tobO2U5yzsA1PQKHTqx+M+8jDbo0AjOdxnTBL4Pwaog1taafq0CDaKK2fm6CYcGAWXOuLj4yOvp5uRILoaBdnOzk7qFvWJbkvroHapEBAQIJ9L0kmc6jB9bHqRCOfncNglCi4if2G+s8sqGL+eCpUEEG4iMeRRR9Nzl+S/LXzi5XueIGZiSBH/XkS97RZB2HM6Qm5iYPtV6JWpd/xDM4wayXkUcGeF+uELuhaJVbc4WhL/6wWuZ6tALeNysSbQcjTtQm8SJCiEzpyPzcaFuByZId9Ri1DVja2IulIoT9Rwmx23+XI/D0lkqC+pasC1oqoejVk0r1HP4QZMTn/BRX66Hq3LwMBAWg3/R4MnhUctGbrjiZGjAtfMB3Mj9eMD8B+rg321JcoapwAAAABJRU5ErkJggg==;" parent="1" vertex="1">
          <mxGeometry x="1176.5" y="360" width="109.23" height="100" as="geometry" />
        </mxCell>
        <mxCell id="rmpsdoVU6oN7jqYleleH-26" value="&lt;font style=&quot;font-size: 16px;&quot;&gt;Statistics (optional)&lt;/font&gt;" style="text;html=1;align=center;verticalAlign=middle;whiteSpace=wrap;rounded=0;" parent="1" vertex="1">
          <mxGeometry x="1201.11" y="470" width="60" height="30" as="geometry" />
        </mxCell>
        <mxCell id="rmpsdoVU6oN7jqYleleH-28" value="" style="endArrow=classic;startArrow=classic;html=1;rounded=0;entryX=0;entryY=0.5;entryDx=0;entryDy=0;strokeColor=#0080ff;strokeWidth=2;" parent="1" edge="1">
          <mxGeometry width="50" height="50" relative="1" as="geometry">
            <mxPoint x="1060" y="411" as="sourcePoint" />
            <mxPoint x="1161.1099999999997" y="410" as="targetPoint" />
            <Array as="points" />
          </mxGeometry>
        </mxCell>
        <mxCell id="GIPEAf3Tnj1e-WWM6_0W-2" value="" style="image;aspect=fixed;html=1;points=[];align=center;fontSize=12;image=img/lib/azure2/ai_machine_learning/Cognitive_Services.svg;" vertex="1" parent="1">
          <mxGeometry x="1150" y="140" width="162.21" height="114.5" as="geometry" />
        </mxCell>
      </root>
    </mxGraphModel>
  </diagram>
</mxfile>
